<?xml version="1.0" encoding="utf-8"?>
<!-- Generator: Adobe Illustrator 22.0.0, SVG Export Plug-In . SVG Version: 6.00 Build 0)  -->
<svg version="1.1" id="Layer_1" xmlns="http://www.w3.org/2000/svg" xmlns:xlink="http://www.w3.org/1999/xlink" x="0px" y="0px"
	 viewBox="0 0 549.7 140.1" style="enable-background:new 0 0 549.7 140.1;" xml:space="preserve">
<style type="text/css">
	.st0{fill:url(#SVGID_1_);}
	.st1{fill:url(#SVGID_2_);}
	.st2{filter:url(#Adobe_OpacityMaskFilter);}
	.st3{mask:url(#SVGID_3_);fill:url(#SVGID_4_);}
	.st4{opacity:0.1;fill:url(#SVGID_5_);}
	.st5{fill:url(#SVGID_6_);}
	.st6{fill:url(#SVGID_7_);}
	.st7{fill:#18202D;}
</style>
<g>
	<g>
		<linearGradient id="SVGID_1_" gradientUnits="userSpaceOnUse" x1="51.9583" y1="49.1756" x2="21.6172" y2="144.5664">
			<stop  offset="0" style="stop-color:#611BEA"/>
			<stop  offset="1" style="stop-color:#161616"/>
		</linearGradient>
		<path class="st0" d="M60.4,130.8H34c-0.9,0-1.7-0.6-1.9-1.5L14.2,55.8c-0.3-1.2,0.6-2.5,1.9-2.5h26.5c0.9,0,1.7,0.6,1.9,1.5
			l17.8,73.5C62.7,129.6,61.7,130.8,60.4,130.8z"/>
		<linearGradient id="SVGID_2_" gradientUnits="userSpaceOnUse" x1="98.1924" y1="63.8813" x2="67.8512" y2="159.2721">
			<stop  offset="0" style="stop-color:#611BEA"/>
			<stop  offset="1" style="stop-color:#161616"/>
		</linearGradient>
		<path class="st1" d="M109.8,130.8H83.4c-0.8,0-1.6-0.5-1.9-1.3L61.4,72.9c-0.5-1.3,0.5-2.7,1.9-2.7h26.4c0.8,0,1.6,0.5,1.9,1.3
			l20.1,56.6C112.1,129.4,111.2,130.8,109.8,130.8z"/>
		<defs>
			<filter id="Adobe_OpacityMaskFilter" filterUnits="userSpaceOnUse" x="84.1" y="28.1" width="88.3" height="102.8">
				<feFlood  style="flood-color:white;flood-opacity:1" result="back"/>
				<feBlend  in="SourceGraphic" in2="back" mode="normal"/>
			</filter>
		</defs>
		<mask maskUnits="userSpaceOnUse" x="84.1" y="28.1" width="88.3" height="102.8" id="SVGID_3_">
			<g class="st2">
				<path d="M159,9.4l-31,22.1c-1.2,0.9-1.1,2.7,0.3,3.4l4.8,2.4l-16.1,31.2h28.7l9.7-20l4.8,2.4c1.3,0.7,2.9-0.3,2.9-1.8L162.1,11
					C162.1,9.4,160.3,8.5,159,9.4z"/>
			</g>
		</mask>
		<linearGradient id="SVGID_4_" gradientUnits="userSpaceOnUse" x1="131.6367" y1="74.519" x2="101.2955" y2="169.9099">
			<stop  offset="0" style="stop-color:#611BEA"/>
			<stop  offset="1" style="stop-color:#161616"/>
		</linearGradient>
		<path class="st3" d="M170.4,130.8h-25.8c-0.7,0-1.3-0.3-1.6-0.9L84.5,42.4c-0.6-0.9-0.4-2.2,0.6-2.8l17.5-11.3
			c0.9-0.6,2.1-0.3,2.7,0.6l66.8,98.8C173,129,172,130.8,170.4,130.8z"/>
	</g>
	<linearGradient id="SVGID_5_" gradientUnits="userSpaceOnUse" x1="128.8418" y1="68.4437" x2="128.8418" y2="81.4681">
		<stop  offset="0" style="stop-color:#032E3F"/>
		<stop  offset="0.9872" style="stop-color:#002838;stop-opacity:0"/>
	</linearGradient>
	<polygon class="st4" points="116.9,68.4 129.7,81.3 140.8,81.5 132,68.4 	"/>
	<g>
		<linearGradient id="SVGID_6_" gradientUnits="userSpaceOnUse" x1="82.8009" y1="158.0958" x2="53.8389" y2="78.3353">
			<stop  offset="0" style="stop-color:#2E6AEF"/>
			<stop  offset="1" style="stop-color:#06B8EF"/>
		</linearGradient>
		<path class="st5" d="M90,70.2h-1.4h0H59.4c-0.8,0-1.6,0.5-1.9,1.3l-22,58.1c-0.3,0.7-1,1.2-1.8,1.2h1.4h0h29.2
			c0.8,0,1.6-0.5,1.9-1.3l22-58.1C88.5,70.7,89.2,70.2,90,70.2z"/>
		<linearGradient id="SVGID_7_" gradientUnits="userSpaceOnUse" x1="146.0759" y1="135.1199" x2="117.1138" y2="55.3594">
			<stop  offset="0" style="stop-color:#2E6AEF"/>
			<stop  offset="1" style="stop-color:#06B8EF"/>
		</linearGradient>
		<path class="st6" d="M162.1,11c0-1.6-1.8-2.5-3.1-1.6l-31,22.1c-1.2,0.9-1.1,2.7,0.3,3.4l4.8,2.4l-47.8,92.5c-0.4,0.6-1.2,1-1.9,1
			h1.4h0H114c0.8,0,1.5-0.4,1.8-1.1l39.6-81.2l4.8,2.4c1.3,0.7,2.9-0.3,2.9-1.8L162.1,11z"/>
	</g>
</g>
<g>
	<path class="st7" d="M294.4,51.8l-20.5,68.8c-0.2,0.8-1,1.2-1.9,1.2h-12.2c-0.9,0-1.7-0.4-1.9-1.2l-11-31.5l-10.1,31.5
		c-0.2,0.8-1,1.2-1.9,1.2h-12.2c-0.9,0-1.7-0.4-1.9-1.2L200,51.8c-0.3-1,0.1-1.7,1.2-1.7h12c0.8,0,1.6,0.3,1.7,1.2l14.1,50.7
		l10.3-30c0.3-0.9,0.8-1.2,1.7-1.2h11.2c0.9,0,1.4,0.3,1.7,1.2l11.4,30l14.1-50.7c0.2-0.9,0.9-1.2,1.7-1.2h12
		C294.3,50,294.7,50.7,294.4,51.8z"/>
	<path class="st7" d="M288.3,96.7c0-14.9,11.2-26.4,26.4-26.4c15.1,0,26.3,11.5,26.3,26.4S329.8,123,314.7,123
		C299.5,123,288.3,111.6,288.3,96.7z M327.3,96.7c0-8.2-5.5-13.3-12.6-13.3c-7.2,0-12.7,5.1-12.7,13.3c0,8.2,5.5,13.3,12.7,13.3
		C321.8,110,327.3,104.9,327.3,96.7z"/>
	<path class="st7" d="M377.2,73.6v8.8c0,1.2-0.7,1.5-2.1,1.2c-1.1-0.3-2.3-0.5-3.7-0.5c-7,0-10.7,4.8-10.7,12v25.1
		c0,0.9-0.6,1.5-1.5,1.5h-11.1c-0.9,0-1.5-0.6-1.5-1.5V73.1c0-0.9,0.6-1.5,1.5-1.5h10.7c0.9,0,1.5,0.4,1.5,1.6l0.4,6.5
		c1.7-5.3,4.9-9.3,10.9-9.3c2.4,0,3.8,0.6,4.6,1.2C377,72.1,377.2,72.7,377.2,73.6z"/>
	<path class="st7" d="M379.6,120l15.2-23.9l-14.6-22.7c-0.6-1-0.2-1.8,1-1.8h12.1c0.8,0,1.4,0.3,1.8,1l8.1,13.4l8-13.4
		c0.4-0.7,1-1,1.8-1h12.1c1.2,0,1.7,0.8,1,1.8l-14.5,22.7l15.1,23.9c0.7,1,0.2,1.8-1,1.8h-12.1c-0.8,0-1.4-0.3-1.8-1l-8.6-14.7
		l-8.7,14.7c-0.4,0.7-1,1-1.8,1h-12.1C379.4,121.8,379,121,379.6,120z"/>
	<path class="st7" d="M430.8,114.7c-0.6-0.7-0.5-1.8,0.2-3l3.6-5c0.8-1.2,1.7-1,2.6-0.4c4.2,3.2,7.7,4.9,11.6,4.9
		c3.4,0,5.6-1.3,5.6-4.2c0-2.5-1.5-3.7-5.2-5.2l-6.4-2.6c-6.5-2.6-11-6.8-11-13.7c0-9.6,8.2-15.2,17.5-15.2c6.6,0,12.6,2.7,16.8,7.7
		c0.6,0.7,0.4,1.5-0.1,2.2l-4.5,5.4c-0.7,0.8-1.4,0.7-2.4,0c-3.3-2.8-6.2-4.2-9.1-4.2c-3.3,0-4.8,1.8-4.8,4c0,2.5,2.1,3.9,4.8,4.9
		l7.1,2.8c6.4,2.6,11.4,6.9,11.3,14.6c-0.1,10.2-8.8,15.4-18.9,15.4C441.2,123,434.8,119.5,430.8,114.7z"/>
	<path class="st7" d="M491.7,82.5v24.3c0,3,1.7,4.4,4.4,4.4c0.9,0,1.9,0,3.2-0.1c1.1-0.1,1.8,0.4,1.8,1.4v7.5c0,2.4-5.1,3-8.5,3
		c-8,0-15.2-3.7-15.2-14.7V82.5H471c-0.9,0-1.5-0.6-1.5-1.5v-7.9c0-0.9,0.6-1.5,1.5-1.5h6.4V59.8c0-0.9,0.6-1.5,1.5-1.5h11.2
		c0.9,0,1.5,0.6,1.5,1.5v11.8h7.9c0.9,0,1.5,0.6,1.5,1.5V81c0,0.9-0.6,1.5-1.5,1.5H491.7z"/>
	<path class="st7" d="M536.8,73.6v8.8c0,1.2-0.7,1.5-2.1,1.2c-1.1-0.3-2.3-0.5-3.7-0.5c-7,0-10.7,4.8-10.7,12v25.1
		c0,0.9-0.6,1.5-1.5,1.5h-11.1c-0.9,0-1.5-0.6-1.5-1.5V73.1c0-0.9,0.6-1.5,1.5-1.5h10.7c0.9,0,1.5,0.4,1.5,1.6l0.4,6.5
		c1.7-5.3,4.9-9.3,10.9-9.3c2.4,0,3.8,0.6,4.6,1.2C536.6,72.1,536.8,72.7,536.8,73.6z"/>
</g>
</svg>
