<?xml version="1.0" encoding="utf-8"?>
<!-- Generator: Adobe Illustrator 22.0.0, SVG Export Plug-In . SVG Version: 6.00 Build 0)  -->
<svg version="1.1" id="Layer_1" xmlns="http://www.w3.org/2000/svg" xmlns:xlink="http://www.w3.org/1999/xlink" x="0px" y="0px"
	 viewBox="0 0 1147.8 1026.7" style="enable-background:new 0 0 1147.8 1026.7;" xml:space="preserve">
<path d="M712.3,266.5L519.4,405c-3,2.2-2.6,6.8,0.7,8.4l35.5,17c2.4,1.2,3.5,4.1,2.3,6.5L312.2,950.5c-1.2,2.4-0.1,5.4,2.3,6.5
	l117.5,56.2c2.4,1.2,5.4,0.1,6.5-2.3l245.8-513.7c1.2-2.4,4.1-3.5,6.5-2.3l35.5,17c3.4,1.6,7.2-1,7-4.7l-13.2-237.1
	C719.9,266.4,715.5,264.3,712.3,266.5z"/>
</svg>
