<?xml version="1.0" encoding="utf-8"?>
<!-- Generator: Adobe Illustrator 22.0.0, SVG Export Plug-In . SVG Version: 6.00 Build 0)  -->
<svg version="1.1" id="Layer_1" xmlns="http://www.w3.org/2000/svg" xmlns:xlink="http://www.w3.org/1999/xlink" x="0px" y="0px"
	 viewBox="0 0 1039.5 1095.4" style="enable-background:new 0 0 1039.5 1095.4;" xml:space="preserve">
<style type="text/css">
	.st0{fill:#FFFFFF;}
	.st1{opacity:0.9;}
	.st2{fill:#F44336;}
	.st3{fill:#4CAF50;}
</style>
<g>
	<path class="st0" d="M1011,352H26c-6.6,0-12-5.4-12-12V25c0-6.6,5.4-12,12-12h985c6.6,0,12,5.4,12,12v315
		C1023,346.6,1017.6,352,1011,352z"/>
</g>
<g class="st1">
	<g>
		<path d="M70.3,101.2V75.4h7.9c2.3,0,4.3,0.5,6.1,1.5c1.8,1,3.2,2.5,4.2,4.4c1,1.9,1.5,4,1.5,6.4v1.2c0,2.4-0.5,4.5-1.5,6.4
			c-1,1.9-2.4,3.3-4.2,4.3c-1.8,1-3.8,1.5-6.1,1.6H70.3z M75.6,79.7v17.2h2.6c2.1,0,3.7-0.7,4.8-2c1.1-1.4,1.7-3.3,1.7-5.8v-1.4
			c0-2.6-0.5-4.6-1.6-6c-1.1-1.4-2.7-2-4.8-2H75.6z"/>
		<path d="M93.5,77c0-0.8,0.3-1.4,0.8-1.9s1.2-0.7,2.1-0.7c0.9,0,1.6,0.2,2.1,0.7s0.8,1.1,0.8,1.9c0,0.8-0.3,1.4-0.8,1.9
			c-0.5,0.5-1.2,0.7-2.1,0.7c-0.9,0-1.6-0.2-2.1-0.7S93.5,77.8,93.5,77z M98.9,101.2h-5.1V82h5.1V101.2z"/>
		<path d="M107.9,82l0.2,2.2c1.4-1.7,3.2-2.6,5.5-2.6c2,0,3.5,0.6,4.5,1.8c1,1.2,1.5,3,1.5,5.4v12.4h-5.1V88.9
			c0-1.1-0.2-1.9-0.7-2.4c-0.5-0.5-1.3-0.7-2.4-0.7c-1.4,0-2.5,0.6-3.2,1.8v13.5h-5.1V82H107.9z"/>
		<path d="M134.6,101.2c-0.2-0.5-0.4-1-0.5-1.7c-1.2,1.4-2.9,2.1-4.8,2.1c-1.9,0-3.4-0.5-4.7-1.6c-1.2-1.1-1.9-2.5-1.9-4.1
			c0-2,0.8-3.6,2.3-4.7s3.7-1.6,6.5-1.6h2.4v-1.1c0-0.9-0.2-1.6-0.7-2.1c-0.5-0.5-1.2-0.8-2.2-0.8c-0.9,0-1.5,0.2-2,0.6
			c-0.5,0.4-0.7,1-0.7,1.7h-5.1c0-1.1,0.3-2.1,1-3.1s1.7-1.7,2.9-2.2c1.3-0.5,2.7-0.8,4.2-0.8c2.4,0,4.2,0.6,5.6,1.8s2.1,2.9,2.1,5
			v8.3c0,1.8,0.3,3.2,0.8,4.1v0.3H134.6z M130.4,97.6c0.8,0,1.5-0.2,2.1-0.5c0.6-0.3,1.1-0.8,1.4-1.4v-3.3H132
			c-2.6,0-3.9,0.9-4.1,2.7l0,0.3c0,0.6,0.2,1.2,0.7,1.6C129,97.4,129.6,97.6,130.4,97.6z"/>
		<path d="M167.8,90.6h-10.2v10.5h-5.3V75.4h16.8v4.3h-11.5v6.7h10.2V90.6z"/>
		<path d="M170.7,91.4c0-1.9,0.4-3.6,1.1-5.1c0.7-1.5,1.8-2.6,3.2-3.5c1.4-0.8,3-1.2,4.8-1.2c2.6,0,4.7,0.8,6.3,2.4
			c1.6,1.6,2.5,3.7,2.7,6.4l0,1.3c0,2.9-0.8,5.3-2.5,7.1c-1.6,1.8-3.8,2.7-6.6,2.7c-2.8,0-5-0.9-6.6-2.7c-1.6-1.8-2.5-4.2-2.5-7.2
			V91.4z M175.8,91.8c0,1.8,0.3,3.2,1,4.2c0.7,1,1.7,1.4,2.9,1.4c1.2,0,2.2-0.5,2.9-1.4s1-2.5,1-4.6c0-1.8-0.3-3.2-1-4.2
			c-0.7-1-1.7-1.5-2.9-1.5c-1.3,0-2.2,0.5-2.9,1.5C176.1,88.2,175.8,89.7,175.8,91.8z"/>
		<path d="M198.9,87.7l3.2-5.7h5.5l-5.5,9.4l5.7,9.8h-5.5l-3.4-6l-3.4,6H190l5.7-9.8l-5.4-9.4h5.5L198.9,87.7z"/>
	</g>
	<g>
		<path d="M85.9,166.4l3.1-15.2h3.5l-4.7,20.2h-3.4l-3.8-14.7l-3.9,14.7h-3.4l-4.7-20.2h3.5l3.1,15.2l3.9-15.2h2.9L85.9,166.4z"/>
		<path d="M93.7,163.8c0-1.5,0.3-2.8,0.9-4s1.4-2.1,2.5-2.7c1.1-0.6,2.3-1,3.6-1c2,0,3.7,0.7,4.9,2c1.3,1.3,1.9,3,2,5.2l0,0.8
			c0,1.5-0.3,2.8-0.9,4c-0.6,1.2-1.4,2.1-2.4,2.7c-1.1,0.6-2.3,1-3.7,1c-2.1,0-3.8-0.7-5.1-2.1c-1.3-1.4-1.9-3.3-1.9-5.6V163.8z
			 M97,164.1c0,1.5,0.3,2.8,1,3.6s1.5,1.3,2.7,1.3c1.1,0,2-0.4,2.7-1.3c0.6-0.9,1-2.2,1-3.9c0-1.5-0.3-2.7-1-3.6s-1.5-1.3-2.7-1.3
			c-1.1,0-2,0.4-2.6,1.3C97.4,161,97,162.3,97,164.1z"/>
		<path d="M118.3,159.5c-0.4-0.1-0.9-0.1-1.4-0.1c-1.5,0-2.6,0.6-3.1,1.8v10.3h-3.4v-15h3.2l0.1,1.7c0.8-1.3,1.9-2,3.4-2
			c0.5,0,0.9,0.1,1.2,0.2L118.3,159.5z"/>
		<path d="M125.3,165l-1.5,1.5v4.9h-3.4v-21.3h3.4v12.3l1.1-1.3l4.1-4.7h4.1l-5.6,6.3l6.2,8.8h-3.9L125.3,165z"/>
		<path d="M141.6,171.7c-2.1,0-3.9-0.7-5.2-2c-1.3-1.3-2-3.1-2-5.4v-0.4c0-1.5,0.3-2.8,0.9-4c0.6-1.2,1.4-2.1,2.4-2.8s2.2-1,3.5-1
			c2,0,3.6,0.7,4.7,2c1.1,1.3,1.7,3.1,1.7,5.5v1.4h-9.8c0.1,1.2,0.5,2.2,1.2,2.9s1.6,1.1,2.7,1.1c1.5,0,2.8-0.6,3.8-1.9l1.8,1.7
			c-0.6,0.9-1.4,1.6-2.4,2.1C144,171.5,142.9,171.7,141.6,171.7z M141.2,158.9c-0.9,0-1.7,0.3-2.2,1c-0.6,0.6-0.9,1.5-1.1,2.7h6.4
			v-0.2c-0.1-1.1-0.4-2-0.9-2.6C142.9,159.1,142.1,158.9,141.2,158.9z"/>
		<path d="M149.6,163.8c0-2.3,0.5-4.2,1.6-5.6s2.5-2.1,4.3-2.1c1.6,0,2.9,0.6,3.9,1.7v-7.7h3.4v21.3h-3.1l-0.2-1.6
			c-1,1.2-2.4,1.8-4,1.8c-1.8,0-3.2-0.7-4.3-2.1C150.2,168.2,149.6,166.3,149.6,163.8z M153,164.1c0,1.5,0.3,2.7,0.9,3.6
			c0.6,0.9,1.4,1.3,2.5,1.3c1.4,0,2.4-0.6,3-1.8v-6.4c-0.6-1.2-1.6-1.8-3-1.8c-1.1,0-1.9,0.4-2.5,1.3S153,162.4,153,164.1z"/>
		<path d="M174.5,171.4v-12.5h-2.3v-2.5h2.3v-1.4c0-1.7,0.5-3,1.4-3.9s2.2-1.4,3.9-1.4c0.6,0,1.2,0.1,1.9,0.2l-0.1,2.6
			c-0.4-0.1-0.8-0.1-1.3-0.1c-1.6,0-2.4,0.8-2.4,2.5v1.3h3.1v2.5h-3.1v12.5H174.5z"/>
		<path d="M182.8,163.8c0-1.5,0.3-2.8,0.9-4s1.4-2.1,2.5-2.7c1.1-0.6,2.3-1,3.6-1c2,0,3.7,0.7,4.9,2c1.3,1.3,1.9,3,2,5.2l0,0.8
			c0,1.5-0.3,2.8-0.9,4c-0.6,1.2-1.4,2.1-2.4,2.7c-1.1,0.6-2.3,1-3.7,1c-2.1,0-3.8-0.7-5.1-2.1c-1.3-1.4-1.9-3.3-1.9-5.6V163.8z
			 M186.2,164.1c0,1.5,0.3,2.8,1,3.6s1.5,1.3,2.7,1.3c1.1,0,2-0.4,2.7-1.3c0.6-0.9,1-2.2,1-3.9c0-1.5-0.3-2.7-1-3.6
			s-1.5-1.3-2.7-1.3c-1.1,0-2,0.4-2.6,1.3C186.5,161,186.2,162.3,186.2,164.1z"/>
		<path d="M207.5,159.5c-0.4-0.1-0.9-0.1-1.4-0.1c-1.5,0-2.6,0.6-3.1,1.8v10.3h-3.4v-15h3.2l0.1,1.7c0.8-1.3,1.9-2,3.4-2
			c0.5,0,0.9,0.1,1.2,0.2L207.5,159.5z"/>
		<path d="M227.9,164.2h2.5v2.7h-2.5v4.5h-3.4v-4.5h-8.7l-0.1-2.1l8.7-13.6h3.5V164.2z M219.2,164.2h5.3v-8.4l-0.3,0.4L219.2,164.2z
			"/>
		<path d="M243.2,158.1c1.1-1.3,2.5-1.9,4.2-1.9c3.2,0,4.8,1.8,4.9,5.5v9.8h-3.4v-9.7c0-1-0.2-1.8-0.7-2.2c-0.4-0.4-1.1-0.6-2-0.6
			c-1.4,0-2.4,0.6-3,1.8v10.7h-3.4v-21.3h3.4V158.1z"/>
		<path d="M255,163.8c0-1.5,0.3-2.8,0.9-4s1.4-2.1,2.5-2.7c1.1-0.6,2.3-1,3.6-1c2,0,3.7,0.7,4.9,2c1.3,1.3,1.9,3,2,5.2l0,0.8
			c0,1.5-0.3,2.8-0.9,4c-0.6,1.2-1.4,2.1-2.4,2.7c-1.1,0.6-2.3,1-3.7,1c-2.1,0-3.8-0.7-5.1-2.1c-1.3-1.4-1.9-3.3-1.9-5.6V163.8z
			 M258.4,164.1c0,1.5,0.3,2.8,1,3.6s1.5,1.3,2.7,1.3c1.1,0,2-0.4,2.7-1.3c0.6-0.9,1-2.2,1-3.9c0-1.5-0.3-2.7-1-3.6
			s-1.5-1.3-2.7-1.3c-1.1,0-2,0.4-2.6,1.3C258.7,161,258.4,162.3,258.4,164.1z"/>
		<path d="M280.9,170c-1,1.2-2.4,1.7-4.2,1.7c-1.6,0-2.9-0.5-3.7-1.4c-0.8-1-1.3-2.3-1.3-4.1v-9.7h3.4v9.7c0,1.9,0.8,2.9,2.4,2.9
			c1.6,0,2.7-0.6,3.3-1.8v-10.8h3.4v15H281L280.9,170z"/>
		<path d="M295.5,159.5c-0.4-0.1-0.9-0.1-1.4-0.1c-1.5,0-2.6,0.6-3.1,1.8v10.3h-3.4v-15h3.2l0.1,1.7c0.8-1.3,1.9-2,3.4-2
			c0.5,0,0.9,0.1,1.2,0.2L295.5,159.5z"/>
		<path d="M306,167.4c0-0.6-0.2-1.1-0.7-1.4s-1.3-0.6-2.5-0.8c-1.1-0.2-2.1-0.5-2.9-0.9c-1.7-0.8-2.5-2-2.5-3.5
			c0-1.3,0.5-2.4,1.6-3.2c1.1-0.9,2.5-1.3,4.2-1.3c1.8,0,3.2,0.4,4.3,1.3c1.1,0.9,1.7,2,1.7,3.5h-3.4c0-0.6-0.2-1.2-0.7-1.6
			c-0.5-0.4-1.1-0.6-1.9-0.6c-0.7,0-1.3,0.2-1.8,0.5c-0.5,0.3-0.7,0.8-0.7,1.4c0,0.5,0.2,0.9,0.7,1.2c0.4,0.3,1.3,0.6,2.6,0.9
			c1.3,0.3,2.4,0.6,3.1,1s1.3,0.9,1.7,1.4c0.4,0.6,0.5,1.2,0.5,2.1c0,1.4-0.6,2.4-1.7,3.3c-1.1,0.8-2.6,1.3-4.4,1.3
			c-1.2,0-2.3-0.2-3.3-0.7c-1-0.4-1.7-1.1-2.2-1.8c-0.5-0.8-0.8-1.6-0.8-2.5h3.3c0,0.8,0.3,1.4,0.9,1.8c0.6,0.4,1.3,0.6,2.2,0.6
			c0.9,0,1.6-0.2,2-0.5C305.8,168.3,306,167.9,306,167.4z"/>
		<path d="M312.8,176l-1.8-1.1c0.5-0.8,0.9-1.6,1.1-2.2c0.2-0.6,0.3-1.3,0.3-1.9v-2.6h3l0,2.4c0,1-0.3,2-0.7,2.9
			C314.1,174.5,313.5,175.3,312.8,176z"/>
		<path d="M329.3,159.8h2.1c1,0,1.9-0.3,2.5-0.8c0.6-0.5,0.9-1.3,0.9-2.3c0-1-0.3-1.7-0.8-2.2c-0.5-0.5-1.3-0.8-2.3-0.8
			c-0.9,0-1.7,0.3-2.2,0.8c-0.6,0.5-0.9,1.2-0.9,2h-3.4c0-1,0.3-2,0.8-2.8c0.6-0.9,1.3-1.5,2.3-2c1-0.5,2.1-0.7,3.3-0.7
			c2,0,3.6,0.5,4.8,1.5s1.7,2.4,1.7,4.2c0,0.9-0.3,1.8-0.9,2.6c-0.6,0.8-1.3,1.4-2.2,1.8c1.1,0.4,2,1,2.5,1.8
			c0.6,0.8,0.9,1.8,0.9,2.9c0,1.8-0.6,3.3-1.9,4.3c-1.2,1.1-2.9,1.6-4.9,1.6c-1.9,0-3.5-0.5-4.8-1.6c-1.2-1-1.9-2.4-1.9-4.1h3.4
			c0,0.9,0.3,1.6,0.9,2.2c0.6,0.6,1.4,0.8,2.4,0.8c1,0,1.9-0.3,2.5-0.8c0.6-0.6,0.9-1.4,0.9-2.4c0-1.1-0.3-1.9-0.9-2.5
			c-0.6-0.6-1.6-0.9-2.8-0.9h-2V159.8z"/>
		<path d="M352,156.4l0.1,1.6c1.1-1.2,2.5-1.8,4.3-1.8c2,0,3.4,0.8,4.1,2.3c1.1-1.5,2.6-2.3,4.6-2.3c1.7,0,2.9,0.5,3.7,1.4
			c0.8,0.9,1.2,2.3,1.2,4.1v9.9h-3.4v-9.8c0-1-0.2-1.7-0.6-2.1c-0.4-0.4-1.1-0.7-2.1-0.7c-0.8,0-1.4,0.2-1.9,0.6s-0.8,1-1,1.6
			l0,10.3h-3.4v-9.9c0-1.8-0.9-2.6-2.7-2.6c-1.4,0-2.3,0.6-2.9,1.7v10.9h-3.4v-15H352z"/>
		<path d="M373.5,152.5c0-0.5,0.2-1,0.5-1.3c0.3-0.3,0.8-0.5,1.4-0.5s1.1,0.2,1.4,0.5c0.3,0.3,0.5,0.8,0.5,1.3
			c0,0.5-0.2,0.9-0.5,1.3c-0.3,0.3-0.8,0.5-1.4,0.5s-1.1-0.2-1.4-0.5C373.7,153.5,373.5,153,373.5,152.5z M377.1,171.4h-3.4v-15h3.4
			V171.4z"/>
		<path d="M383.9,156.4l0.1,1.7c1.1-1.3,2.6-2,4.4-2c3.1,0,4.7,1.8,4.8,5.4v9.9h-3.4v-9.7c0-1-0.2-1.7-0.6-2.1
			c-0.4-0.5-1.1-0.7-2-0.7c-1.4,0-2.4,0.6-3,1.8v10.7h-3.4v-15H383.9z"/>
		<path d="M405.7,170c-1,1.2-2.4,1.7-4.2,1.7c-1.6,0-2.9-0.5-3.7-1.4c-0.8-1-1.3-2.3-1.3-4.1v-9.7h3.4v9.7c0,1.9,0.8,2.9,2.4,2.9
			c1.6,0,2.7-0.6,3.3-1.8v-10.8h3.4v15h-3.2L405.7,170z"/>
		<path d="M416.6,152.8v3.6h2.6v2.5h-2.6v8.4c0,0.6,0.1,1,0.3,1.2c0.2,0.3,0.6,0.4,1.2,0.4c0.4,0,0.8,0,1.2-0.1v2.6
			c-0.8,0.2-1.5,0.3-2.2,0.3c-2.6,0-3.9-1.4-3.9-4.3v-8.5h-2.5v-2.5h2.5v-3.6H416.6z"/>
		<path d="M428.4,171.7c-2.1,0-3.9-0.7-5.2-2c-1.3-1.3-2-3.1-2-5.4v-0.4c0-1.5,0.3-2.8,0.9-4c0.6-1.2,1.4-2.1,2.4-2.8s2.2-1,3.5-1
			c2,0,3.6,0.7,4.7,2c1.1,1.3,1.7,3.1,1.7,5.5v1.4h-9.8c0.1,1.2,0.5,2.2,1.2,2.9s1.6,1.1,2.7,1.1c1.5,0,2.8-0.6,3.8-1.9l1.8,1.7
			c-0.6,0.9-1.4,1.6-2.4,2.1C430.8,171.5,429.7,171.7,428.4,171.7z M428,158.9c-0.9,0-1.7,0.3-2.2,1c-0.6,0.6-0.9,1.5-1.1,2.7h6.4
			v-0.2c-0.1-1.1-0.4-2-0.9-2.6C429.7,159.1,429,158.9,428,158.9z"/>
		<path d="M445.5,167.4c0-0.6-0.2-1.1-0.7-1.4s-1.3-0.6-2.5-0.8c-1.1-0.2-2.1-0.5-2.9-0.9c-1.7-0.8-2.5-2-2.5-3.5
			c0-1.3,0.5-2.4,1.6-3.2c1.1-0.9,2.5-1.3,4.2-1.3c1.8,0,3.2,0.4,4.3,1.3c1.1,0.9,1.7,2,1.7,3.5h-3.4c0-0.6-0.2-1.2-0.7-1.6
			c-0.5-0.4-1.1-0.6-1.9-0.6c-0.7,0-1.3,0.2-1.8,0.5c-0.5,0.3-0.7,0.8-0.7,1.4c0,0.5,0.2,0.9,0.7,1.2c0.4,0.3,1.3,0.6,2.6,0.9
			c1.3,0.3,2.4,0.6,3.1,1s1.3,0.9,1.7,1.4c0.4,0.6,0.5,1.2,0.5,2.1c0,1.4-0.6,2.4-1.7,3.3c-1.1,0.8-2.6,1.3-4.4,1.3
			c-1.2,0-2.3-0.2-3.3-0.7c-1-0.4-1.7-1.1-2.2-1.8c-0.5-0.8-0.8-1.6-0.8-2.5h3.3c0,0.8,0.3,1.4,0.9,1.8c0.6,0.4,1.3,0.6,2.2,0.6
			c0.9,0,1.6-0.2,2-0.5C445.2,168.3,445.5,167.9,445.5,167.4z"/>
		<path d="M78.6,216.7h-3.4v-16.2l-5,1.7v-2.8l7.9-2.9h0.4V216.7z"/>
		<path d="M98.8,208.2c0,2.9-0.5,5.1-1.6,6.6c-1.1,1.5-2.7,2.2-5,2.2c-2.2,0-3.8-0.7-4.9-2.2s-1.7-3.6-1.7-6.4V205
			c0-2.9,0.5-5.1,1.6-6.5c1.1-1.5,2.7-2.2,5-2.2c2.2,0,3.9,0.7,4.9,2.1c1.1,1.4,1.6,3.5,1.7,6.4V208.2z M95.5,204.5
			c0-1.9-0.3-3.3-0.8-4.2c-0.5-0.9-1.3-1.3-2.5-1.3c-1.1,0-1.9,0.4-2.4,1.3s-0.8,2.1-0.8,3.9v4.6c0,1.9,0.3,3.3,0.8,4.2
			c0.5,0.9,1.4,1.4,2.5,1.4c1.1,0,1.9-0.4,2.4-1.3c0.5-0.9,0.8-2.2,0.8-4V204.5z"/>
		<path d="M112.3,201.7l0.1,1.6c1.1-1.2,2.5-1.8,4.3-1.8c2,0,3.4,0.8,4.1,2.3c1.1-1.5,2.6-2.3,4.6-2.3c1.7,0,2.9,0.5,3.7,1.4
			c0.8,0.9,1.2,2.3,1.2,4.1v9.9H127V207c0-1-0.2-1.7-0.6-2.1c-0.4-0.4-1.1-0.7-2.1-0.7c-0.8,0-1.4,0.2-1.9,0.6s-0.8,1-1,1.6l0,10.3
			H118v-9.9c0-1.8-0.9-2.6-2.7-2.6c-1.4,0-2.3,0.6-2.9,1.7v10.9h-3.4v-15H112.3z"/>
		<path d="M133.8,197.8c0-0.5,0.2-1,0.5-1.3c0.3-0.3,0.8-0.5,1.4-0.5s1.1,0.2,1.4,0.5c0.3,0.3,0.5,0.8,0.5,1.3
			c0,0.5-0.2,0.9-0.5,1.3c-0.3,0.3-0.8,0.5-1.4,0.5s-1.1-0.2-1.4-0.5C134,198.8,133.8,198.3,133.8,197.8z M137.4,216.7H134v-15h3.4
			V216.7z"/>
		<path d="M144.2,201.7l0.1,1.7c1.1-1.3,2.6-2,4.4-2c3.1,0,4.7,1.8,4.8,5.4v9.9h-3.4V207c0-1-0.2-1.7-0.6-2.1
			c-0.4-0.5-1.1-0.7-2-0.7c-1.4,0-2.4,0.6-3,1.8v10.7H141v-15H144.2z"/>
		<path d="M166,215.3c-1,1.2-2.4,1.7-4.2,1.7c-1.6,0-2.9-0.5-3.7-1.4c-0.8-1-1.3-2.3-1.3-4.1v-9.7h3.4v9.7c0,1.9,0.8,2.9,2.4,2.9
			c1.6,0,2.7-0.6,3.3-1.8v-10.8h3.4v15H166L166,215.3z"/>
		<path d="M176.9,198.1v3.6h2.6v2.5h-2.6v8.4c0,0.6,0.1,1,0.3,1.2c0.2,0.3,0.6,0.4,1.2,0.4c0.4,0,0.8,0,1.2-0.1v2.6
			c-0.8,0.2-1.5,0.3-2.2,0.3c-2.6,0-3.9-1.4-3.9-4.3v-8.5H171v-2.5h2.5v-3.6H176.9z"/>
		<path d="M188.7,217c-2.1,0-3.9-0.7-5.2-2c-1.3-1.3-2-3.1-2-5.4v-0.4c0-1.5,0.3-2.8,0.9-4c0.6-1.2,1.4-2.1,2.4-2.8s2.2-1,3.5-1
			c2,0,3.6,0.7,4.7,2c1.1,1.3,1.7,3.1,1.7,5.5v1.4h-9.8c0.1,1.2,0.5,2.2,1.2,2.9s1.6,1.1,2.7,1.1c1.5,0,2.8-0.6,3.8-1.9l1.8,1.7
			c-0.6,0.9-1.4,1.6-2.4,2.1C191.1,216.8,190,217,188.7,217z M188.3,204.2c-0.9,0-1.7,0.3-2.2,1c-0.6,0.6-0.9,1.5-1.1,2.7h6.4v-0.2
			c-0.1-1.1-0.4-2-0.9-2.6C190,204.4,189.2,204.2,188.3,204.2z"/>
		<path d="M217.6,209.4c0,2.3-0.5,4.2-1.6,5.6c-1,1.4-2.5,2.1-4.3,2.1c-1.8,0-3.1-0.6-4.1-1.9l-0.2,1.6h-3.1v-21.3h3.4v7.7
			c1-1.1,2.3-1.7,3.9-1.7c1.8,0,3.3,0.7,4.3,2s1.6,3.3,1.6,5.7V209.4z M214.2,209.1c0-1.6-0.3-2.8-0.9-3.7c-0.6-0.8-1.4-1.2-2.5-1.2
			c-1.5,0-2.5,0.6-3.1,1.9v6.2c0.6,1.3,1.6,2,3.1,2c1.1,0,1.9-0.4,2.4-1.2c0.6-0.8,0.9-2,0.9-3.6V209.1z"/>
		<path d="M228.3,204.8c-0.4-0.1-0.9-0.1-1.4-0.1c-1.5,0-2.6,0.6-3.1,1.8v10.3h-3.4v-15h3.2l0.1,1.7c0.8-1.3,1.9-2,3.4-2
			c0.5,0,0.9,0.1,1.2,0.2L228.3,204.8z"/>
		<path d="M236.7,217c-2.1,0-3.9-0.7-5.2-2c-1.3-1.3-2-3.1-2-5.4v-0.4c0-1.5,0.3-2.8,0.9-4c0.6-1.2,1.4-2.1,2.4-2.8s2.2-1,3.5-1
			c2,0,3.6,0.7,4.7,2c1.1,1.3,1.7,3.1,1.7,5.5v1.4H233c0.1,1.2,0.5,2.2,1.2,2.9s1.6,1.1,2.7,1.1c1.5,0,2.8-0.6,3.8-1.9l1.8,1.7
			c-0.6,0.9-1.4,1.6-2.4,2.1C239.1,216.8,238,217,236.7,217z M236.3,204.2c-0.9,0-1.7,0.3-2.2,1c-0.6,0.6-0.9,1.5-1.1,2.7h6.4v-0.2
			c-0.1-1.1-0.4-2-0.9-2.6C238,204.4,237.3,204.2,236.3,204.2z"/>
		<path d="M254.4,216.7c-0.1-0.3-0.3-0.8-0.4-1.4c-1.1,1.1-2.4,1.7-3.9,1.7c-1.5,0-2.7-0.4-3.7-1.3c-1-0.9-1.4-1.9-1.4-3.2
			c0-1.6,0.6-2.8,1.8-3.7c1.2-0.9,2.9-1.3,5.1-1.3h2.1v-1c0-0.8-0.2-1.4-0.7-1.9c-0.4-0.5-1.1-0.7-2-0.7c-0.8,0-1.4,0.2-1.9,0.6
			s-0.7,0.9-0.7,1.5h-3.4c0-0.8,0.3-1.6,0.8-2.3c0.5-0.7,1.3-1.3,2.2-1.7c0.9-0.4,2-0.6,3.1-0.6c1.8,0,3.2,0.4,4.2,1.3
			c1,0.9,1.6,2.1,1.6,3.7v6.8c0,1.4,0.2,2.4,0.6,3.2v0.2H254.4z M250.6,214.3c0.7,0,1.3-0.2,1.9-0.5c0.6-0.3,1-0.8,1.3-1.3v-2.8H252
			c-1.2,0-2.2,0.2-2.8,0.7c-0.6,0.4-0.9,1-0.9,1.8c0,0.6,0.2,1.2,0.6,1.5C249.4,214.1,249.9,214.3,250.6,214.3z"/>
		<path d="M265.6,210.3l-1.5,1.5v4.9h-3.4v-21.3h3.4v12.3l1.1-1.3l4.1-4.7h4.1l-5.6,6.3l6.2,8.8h-3.9L265.6,210.3z"/>
	</g>
</g>
<g class="st1">
	<path d="M586.3,91.4c0-0.8-0.2-1.4-0.6-1.8c-0.4-0.4-1.1-0.9-2.1-1.2c-1-0.4-1.9-0.8-2.6-1.1c-0.7-0.4-1.4-0.8-1.9-1.3
		c-0.5-0.5-0.9-1.1-1.2-1.7c-0.3-0.7-0.4-1.4-0.4-2.3c0-1.6,0.5-2.8,1.5-3.8c1-1,2.3-1.6,4-1.7v-3h2.2v3c1.6,0.2,2.9,0.9,3.8,2
		s1.4,2.6,1.4,4.4h-4c0-1.1-0.2-1.9-0.7-2.5c-0.5-0.5-1.1-0.8-1.8-0.8c-0.8,0-1.3,0.2-1.8,0.6c-0.4,0.4-0.6,1-0.6,1.8
		c0,0.7,0.2,1.3,0.6,1.7c0.4,0.4,1.2,0.9,2.3,1.3c1.1,0.4,2,0.9,2.7,1.3c0.7,0.4,1.3,0.8,1.8,1.3c0.5,0.5,0.9,1.1,1.1,1.7
		c0.3,0.6,0.4,1.4,0.4,2.2c0,1.6-0.5,2.8-1.5,3.8c-1,1-2.3,1.6-4.1,1.7v2.8h-2.2V97c-1.9-0.2-3.4-0.9-4.4-2c-1-1.1-1.6-2.7-1.6-4.6
		h4c0,1.1,0.3,1.9,0.8,2.5c0.5,0.6,1.3,0.9,2.3,0.9c0.8,0,1.5-0.2,1.9-0.6C586,92.7,586.3,92.2,586.3,91.4z"/>
	<path d="M604.9,89.1h2.3v3.2h-2.3v4.4h-4v-4.4h-8.3l-0.2-2.5l8.4-13.3h4.1V89.1z M596.4,89.1h4.5V82l-0.3,0.5L596.4,89.1z"/>
	<path d="M622.9,88.4c0,2.8-0.6,4.9-1.7,6.4c-1.2,1.5-2.8,2.2-5.1,2.2c-2.2,0-3.9-0.7-5-2.2c-1.2-1.5-1.8-3.5-1.8-6.2v-3.7
		c0-2.8,0.6-5,1.8-6.4c1.2-1.5,2.9-2.2,5.1-2.2s3.9,0.7,5,2.2c1.2,1.4,1.8,3.5,1.8,6.2V88.4z M618.9,84.3c0-1.7-0.2-2.9-0.7-3.7
		c-0.5-0.8-1.2-1.1-2.1-1.1c-0.9,0-1.6,0.4-2.1,1.1c-0.4,0.7-0.7,1.9-0.7,3.4v4.9c0,1.6,0.2,2.9,0.7,3.7s1.2,1.2,2.2,1.2
		c1,0,1.7-0.4,2.1-1.2c0.4-0.8,0.7-1.9,0.7-3.5V84.3z"/>
	<path d="M626,94.8c0-0.6,0.2-1.2,0.6-1.6c0.4-0.4,1-0.6,1.6-0.6c0.7,0,1.2,0.2,1.6,0.6c0.4,0.4,0.6,0.9,0.6,1.6
		c0,0.6-0.2,1.1-0.6,1.5c-0.4,0.4-1,0.6-1.6,0.6c-0.7,0-1.2-0.2-1.6-0.6C626.2,95.9,626,95.4,626,94.8z"/>
	<path d="M634.4,86.8l1.2-10.3h11.3v3.3h-8l-0.5,4.3c1-0.5,2-0.8,3-0.8c1.9,0,3.4,0.6,4.5,1.8c1.1,1.2,1.6,2.9,1.6,5
		c0,1.3-0.3,2.5-0.8,3.5c-0.5,1-1.3,1.8-2.4,2.4s-2.2,0.9-3.6,0.9c-1.2,0-2.4-0.2-3.4-0.7c-1-0.5-1.9-1.2-2.5-2.1
		c-0.6-0.9-0.9-1.9-1-3.1h4c0.1,0.8,0.4,1.5,0.9,2c0.5,0.5,1.2,0.7,2,0.7c0.9,0,1.6-0.3,2.1-1c0.5-0.7,0.7-1.6,0.7-2.8
		c0-1.1-0.3-2-0.8-2.6c-0.6-0.6-1.4-0.9-2.4-0.9c-1,0-1.7,0.2-2.3,0.7l-0.4,0.4L634.4,86.8z"/>
	<path d="M663.7,88.4c0,2.8-0.6,4.9-1.7,6.4c-1.2,1.5-2.8,2.2-5.1,2.2c-2.2,0-3.9-0.7-5-2.2c-1.2-1.5-1.8-3.5-1.8-6.2v-3.7
		c0-2.8,0.6-5,1.8-6.4c1.2-1.5,2.9-2.2,5.1-2.2s3.9,0.7,5,2.2s1.8,3.5,1.8,6.2V88.4z M659.7,84.3c0-1.7-0.2-2.9-0.7-3.7
		c-0.5-0.8-1.2-1.1-2.1-1.1c-0.9,0-1.6,0.4-2.1,1.1s-0.7,1.9-0.7,3.4v4.9c0,1.6,0.2,2.9,0.7,3.7c0.4,0.8,1.2,1.2,2.2,1.2
		c1,0,1.7-0.4,2.1-1.2c0.4-0.8,0.7-1.9,0.7-3.5V84.3z"/>
	<path d="M698.8,85.1h2.1c1,0,1.9-0.3,2.5-0.8c0.6-0.5,0.9-1.3,0.9-2.3c0-1-0.3-1.7-0.8-2.2c-0.5-0.5-1.3-0.8-2.3-0.8
		c-0.9,0-1.7,0.3-2.2,0.8c-0.6,0.5-0.9,1.2-0.9,2h-3.4c0-1,0.3-2,0.8-2.8c0.6-0.9,1.3-1.5,2.3-2c1-0.5,2.1-0.7,3.3-0.7
		c2,0,3.6,0.5,4.8,1.5s1.7,2.4,1.7,4.2c0,0.9-0.3,1.8-0.9,2.6c-0.6,0.8-1.3,1.4-2.2,1.8c1.1,0.4,2,1,2.5,1.8
		c0.6,0.8,0.9,1.8,0.9,2.9c0,1.8-0.6,3.3-1.9,4.3c-1.2,1.1-2.9,1.6-4.9,1.6c-1.9,0-3.5-0.5-4.8-1.6c-1.2-1-1.9-2.4-1.9-4.1h3.4
		c0,0.9,0.3,1.6,0.9,2.2s1.4,0.8,2.4,0.8c1,0,1.9-0.3,2.5-0.8c0.6-0.6,0.9-1.4,0.9-2.4c0-1.1-0.3-1.9-0.9-2.5
		c-0.6-0.6-1.6-0.9-2.8-0.9h-2V85.1z"/>
	<path d="M713.3,81.4c0.6,0,1.1,0.2,1.5,0.5s0.5,0.8,0.5,1.3c0,0.5-0.2,1-0.5,1.3s-0.8,0.5-1.5,0.5c-0.6,0-1.1-0.2-1.4-0.5
		c-0.4-0.3-0.5-0.8-0.5-1.3c0-0.5,0.2-1,0.5-1.3S712.7,81.4,713.3,81.4z M713.3,93.2c0.6,0,1.1,0.2,1.5,0.5s0.5,0.8,0.5,1.3
		c0,0.5-0.2,1-0.5,1.3s-0.8,0.5-1.5,0.5c-0.6,0-1.1-0.2-1.4-0.5c-0.4-0.3-0.5-0.8-0.5-1.3c0-0.5,0.2-1,0.5-1.3
		S712.7,93.2,713.3,93.2z"/>
	<path d="M731.7,88.2c0,2.9-0.5,5.1-1.6,6.6c-1.1,1.5-2.7,2.2-5,2.2c-2.2,0-3.8-0.7-4.9-2.2c-1.1-1.4-1.7-3.6-1.7-6.4V85
		c0-2.9,0.5-5.1,1.6-6.5c1.1-1.5,2.7-2.2,5-2.2c2.2,0,3.9,0.7,4.9,2.1c1.1,1.4,1.6,3.5,1.7,6.4V88.2z M728.4,84.5
		c0-1.9-0.3-3.3-0.8-4.2c-0.5-0.9-1.3-1.3-2.5-1.3c-1.1,0-1.9,0.4-2.4,1.3s-0.8,2.1-0.8,3.9v4.6c0,1.9,0.3,3.3,0.8,4.2
		s1.4,1.4,2.5,1.4c1.1,0,1.9-0.4,2.4-1.3s0.8-2.2,0.8-4V84.5z"/>
	<path d="M747.9,88.2c0,2.9-0.5,5.1-1.6,6.6c-1.1,1.5-2.7,2.2-5,2.2c-2.2,0-3.8-0.7-4.9-2.2c-1.1-1.4-1.7-3.6-1.7-6.4V85
		c0-2.9,0.5-5.1,1.6-6.5c1.1-1.5,2.7-2.2,5-2.2c2.2,0,3.9,0.7,4.9,2.1c1.1,1.4,1.6,3.5,1.7,6.4V88.2z M744.5,84.5
		c0-1.9-0.3-3.3-0.8-4.2c-0.5-0.9-1.3-1.3-2.5-1.3c-1.1,0-1.9,0.4-2.4,1.3s-0.8,2.1-0.8,3.9v4.6c0,1.9,0.3,3.3,0.8,4.2
		s1.4,1.4,2.5,1.4c1.1,0,1.9-0.4,2.4-1.3s0.8-2.2,0.8-4V84.5z"/>
	<path d="M762,89.2v7.5h-3.5V76.5h7.7c2.3,0,4,0.6,5.4,1.8s2,2.7,2,4.7c0,2-0.6,3.5-1.9,4.6c-1.3,1.1-3.1,1.7-5.5,1.7H762z
		 M762,86.4h4.2c1.2,0,2.2-0.3,2.9-0.9c0.7-0.6,1-1.4,1-2.5c0-1.1-0.3-2-1-2.6c-0.7-0.7-1.6-1-2.7-1H762V86.4z"/>
	<path d="M781.2,76.5L787,92l5.8-15.5h4.5v20.2h-3.5v-6.7l0.3-8.9l-6,15.6h-2.5l-6-15.6l0.3,8.9v6.7h-3.5V76.5H781.2z"/>
	<path d="M814.8,89.5h-7.3v-2.7h7.3V89.5z"/>
	<path d="M837.9,78.4l-8.1,18.3h-3.5l8.1-17.5h-10.4v-2.7h14V78.4z"/>
	<path d="M842.8,81.4c0.6,0,1.1,0.2,1.5,0.5s0.5,0.8,0.5,1.3c0,0.5-0.2,1-0.5,1.3s-0.8,0.5-1.5,0.5c-0.6,0-1.1-0.2-1.4-0.5
		c-0.4-0.3-0.5-0.8-0.5-1.3c0-0.5,0.2-1,0.5-1.3S842.2,81.4,842.8,81.4z M842.8,93.2c0.6,0,1.1,0.2,1.5,0.5s0.5,0.8,0.5,1.3
		c0,0.5-0.2,1-0.5,1.3s-0.8,0.5-1.5,0.5c-0.6,0-1.1-0.2-1.4-0.5c-0.4-0.3-0.5-0.8-0.5-1.3c0-0.5,0.2-1,0.5-1.3
		S842.2,93.2,842.8,93.2z"/>
	<path d="M861.3,88.2c0,2.9-0.5,5.1-1.6,6.6c-1.1,1.5-2.7,2.2-5,2.2c-2.2,0-3.8-0.7-4.9-2.2c-1.1-1.4-1.7-3.6-1.7-6.4V85
		c0-2.9,0.5-5.1,1.6-6.5c1.1-1.5,2.7-2.2,5-2.2c2.2,0,3.9,0.7,4.9,2.1c1.1,1.4,1.6,3.5,1.7,6.4V88.2z M857.9,84.5
		c0-1.9-0.3-3.3-0.8-4.2c-0.5-0.9-1.3-1.3-2.5-1.3c-1.1,0-1.9,0.4-2.4,1.3s-0.8,2.1-0.8,3.9v4.6c0,1.9,0.3,3.3,0.8,4.2
		s1.4,1.4,2.5,1.4c1.1,0,1.9-0.4,2.4-1.3s0.8-2.2,0.8-4V84.5z"/>
	<path d="M868.2,85.1h2.1c1,0,1.9-0.3,2.5-0.8c0.6-0.5,0.9-1.3,0.9-2.3c0-1-0.3-1.7-0.8-2.2c-0.5-0.5-1.3-0.8-2.3-0.8
		c-0.9,0-1.7,0.3-2.2,0.8c-0.6,0.5-0.9,1.2-0.9,2H864c0-1,0.3-2,0.8-2.8c0.6-0.9,1.3-1.5,2.3-2c1-0.5,2.1-0.7,3.3-0.7
		c2,0,3.6,0.5,4.8,1.5s1.7,2.4,1.7,4.2c0,0.9-0.3,1.8-0.9,2.6c-0.6,0.8-1.3,1.4-2.2,1.8c1.1,0.4,2,1,2.5,1.8
		c0.6,0.8,0.9,1.8,0.9,2.9c0,1.8-0.6,3.3-1.9,4.3c-1.2,1.1-2.9,1.6-4.9,1.6c-1.9,0-3.5-0.5-4.8-1.6c-1.2-1-1.9-2.4-1.9-4.1h3.4
		c0,0.9,0.3,1.6,0.9,2.2s1.4,0.8,2.4,0.8c1,0,1.9-0.3,2.5-0.8c0.6-0.6,0.9-1.4,0.9-2.4c0-1.1-0.3-1.9-0.9-2.5
		c-0.6-0.6-1.6-0.9-2.8-0.9h-2V85.1z"/>
	<path d="M891.5,89.2v7.5H888V76.5h7.7c2.3,0,4,0.6,5.4,1.8s2,2.7,2,4.7c0,2-0.6,3.5-1.9,4.6c-1.3,1.1-3.1,1.7-5.5,1.7H891.5z
		 M891.5,86.4h4.2c1.2,0,2.2-0.3,2.9-0.9c0.7-0.6,1-1.4,1-2.5c0-1.1-0.3-2-1-2.6c-0.7-0.7-1.6-1-2.7-1h-4.3V86.4z"/>
	<path d="M910.7,76.5l5.8,15.5l5.8-15.5h4.5v20.2h-3.5v-6.7l0.3-8.9l-6,15.6h-2.5l-6-15.6l0.3,8.9v6.7h-3.5V76.5H910.7z"/>
</g>
<path class="st2" d="M898,290.1l-1.6-1.6l-6.2,6.2l-6.2-6.2l-1.6,1.6l6.2,6.2l-6.2,6.2l1.6,1.6l6.2-6.2l6.2,6.2l1.6-1.6l-6.2-6.2
	L898,290.1z"/>
<g class="st1">
	<path class="st2" d="M909.2,306v-18.5h5.5c1.6,0,3.1,0.4,4.4,1.1c1.3,0.7,2.2,1.8,2.9,3.1c0.7,1.3,1,2.9,1,4.6v0.9
		c0,1.8-0.3,3.3-1,4.6c-0.7,1.3-1.7,2.4-3,3.1c-1.3,0.7-2.8,1.1-4.4,1.1H909.2z M912.4,290.1v13.3h2.1c1.7,0,3-0.5,3.9-1.6
		s1.4-2.6,1.4-4.5v-1c0-2-0.4-3.5-1.3-4.6c-0.9-1.1-2.1-1.6-3.8-1.6H912.4z"/>
	<path class="st2" d="M937,297.8h-7.6v5.7h8.9v2.6h-12.1v-18.5h12v2.6h-8.8v5.1h7.6V297.8z"/>
	<path class="st2" d="M955.6,306h-3.2l-8.2-13.1V306h-3.2v-18.5h3.2l8.3,13.2v-13.2h3.2V306z"/>
	<path class="st2" d="M965.1,296.3l4.3-8.8h3.6l-6.2,11.7v6.8h-3.2v-6.8l-6.2-11.7h3.6L965.1,296.3z"/>
</g>
<path class="st3" d="M727,290.7l-13.1,13.1l-6-6l1.5-1.5l4.5,4.5l11.6-11.5L727,290.7z"/>
<g class="st1">
	<path class="st3" d="M747.1,301.7H740l-1.5,4.3h-3.3l7-18.5h2.9l7,18.5h-3.4L747.1,301.7z M740.9,299.1h5.4l-2.7-7.7L740.9,299.1z"
		/>
	<path class="st3" d="M757.3,299.2v6.9h-3.2v-18.5h7.1c2.1,0,3.7,0.5,4.9,1.6c1.2,1.1,1.8,2.5,1.8,4.3c0,1.8-0.6,3.2-1.8,4.2
		c-1.2,1-2.9,1.5-5,1.5H757.3z M757.3,296.6h3.9c1.1,0,2-0.3,2.6-0.8s0.9-1.3,0.9-2.3c0-1-0.3-1.8-0.9-2.4s-1.4-0.9-2.5-0.9h-4
		V296.6z"/>
	<path class="st3" d="M774,299.2v6.9h-3.2v-18.5h7.1c2.1,0,3.7,0.5,4.9,1.6c1.2,1.1,1.8,2.5,1.8,4.3c0,1.8-0.6,3.2-1.8,4.2
		c-1.2,1-2.9,1.5-5,1.5H774z M774,296.6h3.9c1.1,0,2-0.3,2.6-0.8s0.9-1.3,0.9-2.3c0-1-0.3-1.8-0.9-2.4s-1.4-0.9-2.5-0.9h-4V296.6z"
		/>
	<path class="st3" d="M794.2,298.9h-3.6v7.1h-3.2v-18.5h6.5c2.1,0,3.8,0.5,4.9,1.4s1.7,2.3,1.7,4.2c0,1.2-0.3,2.3-0.9,3.1
		c-0.6,0.8-1.4,1.5-2.5,1.9l4.2,7.7v0.2h-3.4L794.2,298.9z M790.6,296.3h3.3c1.1,0,1.9-0.3,2.5-0.8c0.6-0.5,0.9-1.3,0.9-2.2
		c0-1-0.3-1.8-0.8-2.3c-0.6-0.5-1.4-0.8-2.5-0.8h-3.4V296.3z"/>
	<path class="st3" d="M818.4,297.3c0,1.8-0.3,3.4-0.9,4.8c-0.6,1.4-1.5,2.4-2.7,3.2c-1.2,0.7-2.5,1.1-4,1.1c-1.5,0-2.8-0.4-4-1.1
		c-1.2-0.7-2.1-1.8-2.7-3.1c-0.6-1.4-1-2.9-1-4.7v-1c0-1.8,0.3-3.4,1-4.8c0.6-1.4,1.5-2.4,2.7-3.2c1.2-0.7,2.5-1.1,4-1.1
		c1.5,0,2.8,0.4,4,1.1c1.2,0.7,2.1,1.8,2.7,3.1c0.6,1.4,1,2.9,1,4.7V297.3z M815.2,296.3c0-2.1-0.4-3.6-1.2-4.7
		c-0.8-1.1-1.9-1.6-3.3-1.6c-1.4,0-2.5,0.5-3.3,1.6s-1.2,2.6-1.2,4.6v1.1c0,2,0.4,3.6,1.2,4.7c0.8,1.1,1.9,1.7,3.3,1.7
		c1.4,0,2.5-0.5,3.3-1.6c0.8-1.1,1.2-2.7,1.2-4.8V296.3z"/>
	<path class="st3" d="M827.8,302l4.7-14.5h3.5l-6.7,18.5h-3.1l-6.6-18.5h3.5L827.8,302z"/>
	<path class="st3" d="M849,297.8h-7.6v5.7h8.9v2.6h-12.1v-18.5h12v2.6h-8.8v5.1h7.6V297.8z"/>
</g>
<g>
	<path d="M970.9,92l-6.4-6.4l-6.4,6.4l-2-2l8.4-8.4l8.4,8.4L970.9,92z"/>
</g>
<g>
	<path class="st0" d="M1011,715H26c-6.6,0-12-5.4-12-12V388c0-6.6,5.4-12,12-12h985c6.6,0,12,5.4,12,12v315
		C1023,709.6,1017.6,715,1011,715z"/>
</g>
<g class="st1">
	<g>
		<path d="M90.7,460.9c-1,1.1-2.3,2-4.1,2.7c-1.7,0.6-3.7,0.9-5.8,0.9c-2.2,0-4.2-0.5-5.9-1.5c-1.7-1-3-2.4-3.9-4.2
			c-0.9-1.9-1.4-4-1.4-6.5v-1.8c0-2.6,0.4-4.8,1.3-6.7s2.1-3.3,3.8-4.3s3.6-1.5,5.7-1.5c3.1,0,5.4,0.7,7.2,2.2
			c1.7,1.5,2.7,3.6,3.1,6.4h-5.2c-0.2-1.5-0.8-2.6-1.6-3.2c-0.8-0.7-1.9-1-3.3-1c-1.8,0-3.2,0.7-4.1,2c-0.9,1.4-1.4,3.4-1.4,6.1v1.6
			c0,2.7,0.5,4.7,1.5,6.1c1,1.4,2.5,2.1,4.5,2.1c2,0,3.4-0.4,4.3-1.3v-4.4h-4.8v-3.9h10.2V460.9z"/>
		<path d="M100.1,464.2h-5.1V437h5.1V464.2z"/>
		<path d="M113.1,464.5c-2.8,0-5.1-0.9-6.9-2.6s-2.6-4-2.6-6.9v-0.5c0-1.9,0.4-3.6,1.1-5.2s1.8-2.7,3.2-3.5c1.4-0.8,2.9-1.2,4.7-1.2
			c2.6,0,4.7,0.8,6.2,2.5c1.5,1.7,2.3,4,2.3,7v2.1h-12.2c0.2,1.3,0.7,2.3,1.5,3c0.8,0.8,1.9,1.1,3.2,1.1c2,0,3.5-0.7,4.6-2.1
			l2.5,2.8c-0.8,1.1-1.8,1.9-3.1,2.5C116.2,464.2,114.7,464.5,113.1,464.5z M112.5,448.8c-1,0-1.8,0.3-2.5,1s-1,1.7-1.2,3h7.1v-0.4
			c0-1.1-0.3-2-0.9-2.6C114.5,449.1,113.6,448.8,112.5,448.8z"/>
		<path d="M128.6,445l0.2,2.2c1.4-1.7,3.2-2.6,5.5-2.6c2,0,3.5,0.6,4.5,1.8c1,1.2,1.5,3,1.5,5.4v12.4h-5.1v-12.3
			c0-1.1-0.2-1.9-0.7-2.4c-0.5-0.5-1.3-0.7-2.4-0.7c-1.4,0-2.5,0.6-3.2,1.8v13.5h-5.1V445H128.6z"/>
		<path d="M148.9,445l0.2,2.2c1.4-1.7,3.2-2.6,5.5-2.6c2,0,3.5,0.6,4.5,1.8c1,1.2,1.5,3,1.5,5.4v12.4h-5.1v-12.3
			c0-1.1-0.2-1.9-0.7-2.4c-0.5-0.5-1.3-0.7-2.4-0.7c-1.4,0-2.5,0.6-3.2,1.8v13.5h-5.1V445H148.9z"/>
		<path d="M187.3,457.4c0-1-0.4-1.8-1.1-2.3c-0.7-0.5-2-1.1-3.8-1.7c-1.8-0.6-3.3-1.2-4.4-1.8c-2.9-1.6-4.4-3.7-4.4-6.4
			c0-1.4,0.4-2.6,1.2-3.7c0.8-1.1,1.9-1.9,3.4-2.6c1.5-0.6,3.1-0.9,5-0.9c1.8,0,3.5,0.3,4.9,1c1.4,0.7,2.6,1.6,3.4,2.8
			c0.8,1.2,1.2,2.6,1.2,4.1h-5.3c0-1.2-0.4-2.1-1.1-2.8c-0.7-0.7-1.8-1-3.1-1c-1.3,0-2.3,0.3-3,0.8s-1.1,1.3-1.1,2.2
			c0,0.8,0.4,1.5,1.3,2.1s2.1,1.1,3.7,1.6c3,0.9,5.2,2,6.6,3.4c1.4,1.3,2.1,3,2.1,5c0,2.2-0.8,4-2.5,5.3c-1.7,1.3-4,1.9-6.8,1.9
			c-2,0-3.8-0.4-5.4-1.1c-1.6-0.7-2.9-1.7-3.7-3c-0.9-1.3-1.3-2.7-1.3-4.4h5.3c0,2.8,1.7,4.3,5.1,4.3c1.3,0,2.2-0.3,3-0.8
			C186.9,459,187.3,458.3,187.3,457.4z"/>
		<path d="M202,440.3v4.7h3.3v3.8H202v9.6c0,0.7,0.1,1.2,0.4,1.5c0.3,0.3,0.8,0.5,1.6,0.5c0.6,0,1.1,0,1.5-0.1v3.9
			c-1,0.3-2,0.5-3.1,0.5c-3.6,0-5.4-1.8-5.5-5.4v-10.3h-2.8V445h2.8v-4.7H202z"/>
		<path d="M219.6,462.2c-1.3,1.5-3,2.3-5.2,2.3c-2.1,0-3.6-0.6-4.7-1.8c-1.1-1.2-1.6-2.9-1.7-5.2V445h5.1v12.4c0,2,0.9,3,2.7,3
			c1.7,0,2.9-0.6,3.6-1.8V445h5.1v19.2h-4.8L219.6,462.2z"/>
		<path d="M239.2,449.8c-0.7-0.1-1.3-0.1-1.8-0.1c-1.9,0-3.2,0.7-3.8,2v12.5h-5.1V445h4.8l0.1,2.3c1-1.8,2.5-2.6,4.3-2.6
			c0.6,0,1.1,0.1,1.6,0.2L239.2,449.8z"/>
		<path d="M240.6,454.4c0-2.9,0.7-5.3,2.1-7.1c1.4-1.8,3.3-2.7,5.7-2.7c2.1,0,3.7,0.7,4.9,2.2l0.2-1.8h4.6v18.5
			c0,1.7-0.4,3.1-1.1,4.4c-0.8,1.2-1.8,2.2-3.2,2.8s-3,1-4.9,1c-1.4,0-2.8-0.3-4.1-0.8c-1.3-0.6-2.3-1.3-3-2.2l2.3-3.1
			c1.3,1.4,2.8,2.1,4.6,2.1c1.4,0,2.4-0.4,3.2-1.1c0.8-0.7,1.1-1.8,1.1-3.1v-1c-1.2,1.3-2.7,2-4.7,2c-2.3,0-4.2-0.9-5.6-2.7
			c-1.4-1.8-2.1-4.2-2.1-7.2V454.4z M245.7,454.8c0,1.7,0.3,3.1,1,4.1s1.7,1.5,2.9,1.5c1.6,0,2.7-0.6,3.3-1.8v-8.1
			c-0.7-1.2-1.8-1.8-3.3-1.8c-1.2,0-2.2,0.5-2.9,1.5C246.1,451.3,245.7,452.8,245.7,454.8z"/>
		<path d="M262,440c0-0.8,0.3-1.4,0.8-1.9s1.2-0.7,2.1-0.7c0.9,0,1.6,0.2,2.1,0.7s0.8,1.1,0.8,1.9c0,0.8-0.3,1.4-0.8,1.9
			c-0.5,0.5-1.2,0.7-2.1,0.7c-0.9,0-1.6-0.2-2.1-0.7S262,440.8,262,440z M267.5,464.2h-5.1V445h5.1V464.2z"/>
		<path d="M282.1,458.9c0-0.6-0.3-1.1-0.9-1.5s-1.6-0.7-3-1c-4.6-1-6.8-2.9-6.8-5.8c0-1.7,0.7-3.1,2.1-4.3c1.4-1.1,3.3-1.7,5.5-1.7
			c2.4,0,4.4,0.6,5.8,1.7c1.5,1.1,2.2,2.6,2.2,4.5h-5.1c0-0.7-0.2-1.3-0.7-1.8s-1.2-0.7-2.2-0.7c-0.9,0-1.5,0.2-2,0.6
			c-0.5,0.4-0.7,0.9-0.7,1.5c0,0.6,0.3,1,0.8,1.4c0.5,0.3,1.4,0.6,2.7,0.9c1.3,0.3,2.4,0.5,3.2,0.9c2.7,1,4.1,2.7,4.1,5.2
			c0,1.7-0.8,3.2-2.2,4.2c-1.5,1.1-3.4,1.6-5.8,1.6c-1.6,0-3-0.3-4.3-0.9s-2.2-1.4-2.9-2.4c-0.7-1-1.1-2.1-1.1-3.2h4.9
			c0,0.9,0.4,1.6,1,2.1c0.6,0.5,1.5,0.7,2.5,0.7c1,0,1.7-0.2,2.2-0.6C281.8,460,282.1,459.5,282.1,458.9z"/>
	</g>
	<g>
		<path d="M85.9,529.4l3.1-15.2h3.5l-4.7,20.2h-3.4l-3.8-14.7l-3.9,14.7h-3.4l-4.7-20.2h3.5l3.1,15.2l3.9-15.2h2.9L85.9,529.4z"/>
		<path d="M93.7,526.8c0-1.5,0.3-2.8,0.9-4s1.4-2.1,2.5-2.7c1.1-0.6,2.3-1,3.6-1c2,0,3.7,0.7,4.9,2c1.3,1.3,1.9,3,2,5.2l0,0.8
			c0,1.5-0.3,2.8-0.9,4c-0.6,1.2-1.4,2.1-2.4,2.7c-1.1,0.6-2.3,1-3.7,1c-2.1,0-3.8-0.7-5.1-2.1c-1.3-1.4-1.9-3.3-1.9-5.6V526.8z
			 M97,527.1c0,1.5,0.3,2.8,1,3.6s1.5,1.3,2.7,1.3c1.1,0,2-0.4,2.7-1.3c0.6-0.9,1-2.2,1-3.9c0-1.5-0.3-2.7-1-3.6s-1.5-1.3-2.7-1.3
			c-1.1,0-2,0.4-2.6,1.3C97.4,524,97,525.3,97,527.1z"/>
		<path d="M118.3,522.5c-0.4-0.1-0.9-0.1-1.4-0.1c-1.5,0-2.6,0.6-3.1,1.8v10.3h-3.4v-15h3.2l0.1,1.7c0.8-1.3,1.9-2,3.4-2
			c0.5,0,0.9,0.1,1.2,0.2L118.3,522.5z"/>
		<path d="M125.3,528l-1.5,1.5v4.9h-3.4v-21.3h3.4v12.3l1.1-1.3l4.1-4.7h4.1l-5.6,6.3l6.2,8.8h-3.9L125.3,528z"/>
		<path d="M141.6,534.7c-2.1,0-3.9-0.7-5.2-2c-1.3-1.3-2-3.1-2-5.4v-0.4c0-1.5,0.3-2.8,0.9-4c0.6-1.2,1.4-2.1,2.4-2.8s2.2-1,3.5-1
			c2,0,3.6,0.7,4.7,2c1.1,1.3,1.7,3.1,1.7,5.5v1.4h-9.8c0.1,1.2,0.5,2.2,1.2,2.9s1.6,1.1,2.7,1.1c1.5,0,2.8-0.6,3.8-1.9l1.8,1.7
			c-0.6,0.9-1.4,1.6-2.4,2.1C144,534.5,142.9,534.7,141.6,534.7z M141.2,521.9c-0.9,0-1.7,0.3-2.2,1c-0.6,0.6-0.9,1.5-1.1,2.7h6.4
			v-0.2c-0.1-1.1-0.4-2-0.9-2.6C142.9,522.1,142.1,521.9,141.2,521.9z"/>
		<path d="M149.6,526.8c0-2.3,0.5-4.2,1.6-5.6s2.5-2.1,4.3-2.1c1.6,0,2.9,0.6,3.9,1.7v-7.7h3.4v21.3h-3.1l-0.2-1.6
			c-1,1.2-2.4,1.8-4,1.8c-1.8,0-3.2-0.7-4.3-2.1C150.2,531.2,149.6,529.3,149.6,526.8z M153,527.1c0,1.5,0.3,2.7,0.9,3.6
			c0.6,0.9,1.4,1.3,2.5,1.3c1.4,0,2.4-0.6,3-1.8v-6.4c-0.6-1.2-1.6-1.8-3-1.8c-1.1,0-1.9,0.4-2.5,1.3S153,525.4,153,527.1z"/>
		<path d="M174.5,534.4v-12.5h-2.3v-2.5h2.3v-1.4c0-1.7,0.5-3,1.4-3.9s2.2-1.4,3.9-1.4c0.6,0,1.2,0.1,1.9,0.2l-0.1,2.6
			c-0.4-0.1-0.8-0.1-1.3-0.1c-1.6,0-2.4,0.8-2.4,2.5v1.3h3.1v2.5h-3.1v12.5H174.5z"/>
		<path d="M182.8,526.8c0-1.5,0.3-2.8,0.9-4s1.4-2.1,2.5-2.7c1.1-0.6,2.3-1,3.6-1c2,0,3.7,0.7,4.9,2c1.3,1.3,1.9,3,2,5.2l0,0.8
			c0,1.5-0.3,2.8-0.9,4c-0.6,1.2-1.4,2.1-2.4,2.7c-1.1,0.6-2.3,1-3.7,1c-2.1,0-3.8-0.7-5.1-2.1c-1.3-1.4-1.9-3.3-1.9-5.6V526.8z
			 M186.2,527.1c0,1.5,0.3,2.8,1,3.6s1.5,1.3,2.7,1.3c1.1,0,2-0.4,2.7-1.3c0.6-0.9,1-2.2,1-3.9c0-1.5-0.3-2.7-1-3.6
			s-1.5-1.3-2.7-1.3c-1.1,0-2,0.4-2.6,1.3C186.5,524,186.2,525.3,186.2,527.1z"/>
		<path d="M207.5,522.5c-0.4-0.1-0.9-0.1-1.4-0.1c-1.5,0-2.6,0.6-3.1,1.8v10.3h-3.4v-15h3.2l0.1,1.7c0.8-1.3,1.9-2,3.4-2
			c0.5,0,0.9,0.1,1.2,0.2L207.5,522.5z"/>
		<path d="M217.4,524.4l1.1-10.2h10.8v2.9h-8l-0.6,4.8c0.9-0.5,2-0.8,3.2-0.8c1.9,0,3.4,0.6,4.5,1.8c1.1,1.2,1.6,2.9,1.6,5
			c0,2.1-0.6,3.7-1.8,4.9c-1.2,1.2-2.8,1.8-4.9,1.8c-1.8,0-3.4-0.5-4.6-1.6c-1.2-1-1.9-2.4-2-4.2h3.3c0.1,1,0.5,1.7,1.1,2.3
			s1.3,0.8,2.2,0.8c1,0,1.8-0.4,2.4-1.1c0.6-0.7,0.9-1.7,0.9-3c0-1.2-0.3-2.2-1-2.9s-1.5-1.1-2.6-1.1c-0.6,0-1.1,0.1-1.6,0.2
			c-0.4,0.2-0.9,0.5-1.4,1L217.4,524.4z"/>
		<path d="M243.2,521.1c1.1-1.3,2.5-1.9,4.2-1.9c3.2,0,4.8,1.8,4.9,5.5v9.8h-3.4v-9.7c0-1-0.2-1.8-0.7-2.2c-0.4-0.4-1.1-0.6-2-0.6
			c-1.4,0-2.4,0.6-3,1.8v10.7h-3.4v-21.3h3.4V521.1z"/>
		<path d="M255,526.8c0-1.5,0.3-2.8,0.9-4s1.4-2.1,2.5-2.7c1.1-0.6,2.3-1,3.6-1c2,0,3.7,0.7,4.9,2c1.3,1.3,1.9,3,2,5.2l0,0.8
			c0,1.5-0.3,2.8-0.9,4c-0.6,1.2-1.4,2.1-2.4,2.7c-1.1,0.6-2.3,1-3.7,1c-2.1,0-3.8-0.7-5.1-2.1c-1.3-1.4-1.9-3.3-1.9-5.6V526.8z
			 M258.4,527.1c0,1.5,0.3,2.8,1,3.6s1.5,1.3,2.7,1.3c1.1,0,2-0.4,2.7-1.3c0.6-0.9,1-2.2,1-3.9c0-1.5-0.3-2.7-1-3.6
			s-1.5-1.3-2.7-1.3c-1.1,0-2,0.4-2.6,1.3C258.7,524,258.4,525.3,258.4,527.1z"/>
		<path d="M280.9,533c-1,1.2-2.4,1.7-4.2,1.7c-1.6,0-2.9-0.5-3.7-1.4c-0.8-1-1.3-2.3-1.3-4.1v-9.7h3.4v9.7c0,1.9,0.8,2.9,2.4,2.9
			c1.6,0,2.7-0.6,3.3-1.8v-10.8h3.4v15H281L280.9,533z"/>
		<path d="M295.5,522.5c-0.4-0.1-0.9-0.1-1.4-0.1c-1.5,0-2.6,0.6-3.1,1.8v10.3h-3.4v-15h3.2l0.1,1.7c0.8-1.3,1.9-2,3.4-2
			c0.5,0,0.9,0.1,1.2,0.2L295.5,522.5z"/>
		<path d="M306,530.4c0-0.6-0.2-1.1-0.7-1.4s-1.3-0.6-2.5-0.8c-1.1-0.2-2.1-0.5-2.9-0.9c-1.7-0.8-2.5-2-2.5-3.5
			c0-1.3,0.5-2.4,1.6-3.2c1.1-0.9,2.5-1.3,4.2-1.3c1.8,0,3.2,0.4,4.3,1.3c1.1,0.9,1.7,2,1.7,3.5h-3.4c0-0.6-0.2-1.2-0.7-1.6
			c-0.5-0.4-1.1-0.6-1.9-0.6c-0.7,0-1.3,0.2-1.8,0.5c-0.5,0.3-0.7,0.8-0.7,1.4c0,0.5,0.2,0.9,0.7,1.2c0.4,0.3,1.3,0.6,2.6,0.9
			c1.3,0.3,2.4,0.6,3.1,1s1.3,0.9,1.7,1.4c0.4,0.6,0.5,1.2,0.5,2.1c0,1.4-0.6,2.4-1.7,3.3c-1.1,0.8-2.6,1.3-4.4,1.3
			c-1.2,0-2.3-0.2-3.3-0.7c-1-0.4-1.7-1.1-2.2-1.8c-0.5-0.8-0.8-1.6-0.8-2.5h3.3c0,0.8,0.3,1.4,0.9,1.8c0.6,0.4,1.3,0.6,2.2,0.6
			c0.9,0,1.6-0.2,2-0.5C305.8,531.3,306,530.9,306,530.4z"/>
		<path d="M312.8,539l-1.8-1.1c0.5-0.8,0.9-1.6,1.1-2.2c0.2-0.6,0.3-1.3,0.3-1.9v-2.6h3l0,2.4c0,1-0.3,2-0.7,2.9
			C314.1,537.5,313.5,538.3,312.8,539z"/>
		<path d="M326.3,524.4l1.1-10.2h10.8v2.9h-8l-0.6,4.8c0.9-0.5,2-0.8,3.2-0.8c1.9,0,3.4,0.6,4.5,1.8c1.1,1.2,1.6,2.9,1.6,5
			c0,2.1-0.6,3.7-1.8,4.9c-1.2,1.2-2.8,1.8-4.9,1.8c-1.8,0-3.4-0.5-4.6-1.6c-1.2-1-1.9-2.4-2-4.2h3.3c0.1,1,0.5,1.7,1.1,2.3
			s1.3,0.8,2.2,0.8c1,0,1.8-0.4,2.4-1.1c0.6-0.7,0.9-1.7,0.9-3c0-1.2-0.3-2.2-1-2.9s-1.5-1.1-2.6-1.1c-0.6,0-1.1,0.1-1.6,0.2
			c-0.4,0.2-0.9,0.5-1.4,1L326.3,524.4z"/>
		<path d="M354.2,519.6c0,1-0.3,1.9-0.8,2.6c-0.5,0.8-1.2,1.4-2.1,1.8c1.1,0.5,1.9,1.2,2.4,2c0.6,0.9,0.9,1.8,0.9,2.9
			c0,1.8-0.6,3.2-1.8,4.2s-2.8,1.6-4.8,1.6c-2,0-3.6-0.5-4.8-1.6s-1.8-2.5-1.8-4.2c0-1.1,0.3-2.1,0.9-2.9c0.6-0.9,1.4-1.5,2.4-2
			c-0.9-0.4-1.6-1.1-2.1-1.8c-0.5-0.8-0.8-1.7-0.8-2.6c0-1.7,0.6-3.1,1.7-4.1c1.1-1,2.6-1.5,4.5-1.5c1.9,0,3.4,0.5,4.5,1.5
			C353.7,516.5,354.2,517.8,354.2,519.6z M351.3,528.8c0-1-0.3-1.8-0.9-2.4c-0.6-0.6-1.4-0.9-2.4-0.9c-1,0-1.8,0.3-2.4,0.9
			s-0.9,1.4-0.9,2.4c0,1,0.3,1.8,0.9,2.4c0.6,0.6,1.4,0.9,2.4,0.9s1.8-0.3,2.4-0.9C351,530.6,351.3,529.8,351.3,528.8z M350.9,519.7
			c0-0.9-0.3-1.6-0.8-2.2c-0.5-0.6-1.2-0.9-2.1-0.9c-0.9,0-1.5,0.3-2,0.8c-0.5,0.5-0.7,1.3-0.7,2.2c0,0.9,0.3,1.7,0.8,2.2
			c0.5,0.5,1.2,0.8,2,0.8c0.9,0,1.5-0.3,2-0.8C350.6,521.3,350.9,520.6,350.9,519.7z"/>
		<path d="M368.1,519.4l0.1,1.6c1.1-1.2,2.5-1.8,4.3-1.8c2,0,3.4,0.8,4.1,2.3c1.1-1.5,2.6-2.3,4.6-2.3c1.7,0,2.9,0.5,3.7,1.4
			c0.8,0.9,1.2,2.3,1.2,4.1v9.9h-3.4v-9.8c0-1-0.2-1.7-0.6-2.1c-0.4-0.4-1.1-0.7-2.1-0.7c-0.8,0-1.4,0.2-1.9,0.6s-0.8,1-1,1.6
			l0,10.3h-3.4v-9.9c0-1.8-0.9-2.6-2.7-2.6c-1.4,0-2.3,0.6-2.9,1.7v10.9H365v-15H368.1z"/>
		<path d="M389.7,515.5c0-0.5,0.2-1,0.5-1.3c0.3-0.3,0.8-0.5,1.4-0.5s1.1,0.2,1.4,0.5c0.3,0.3,0.5,0.8,0.5,1.3
			c0,0.5-0.2,0.9-0.5,1.3c-0.3,0.3-0.8,0.5-1.4,0.5s-1.1-0.2-1.4-0.5C389.8,516.5,389.7,516,389.7,515.5z M393.3,534.4h-3.4v-15h3.4
			V534.4z"/>
		<path d="M400.1,519.4l0.1,1.7c1.1-1.3,2.6-2,4.4-2c3.1,0,4.7,1.8,4.8,5.4v9.9h-3.4v-9.7c0-1-0.2-1.7-0.6-2.1
			c-0.4-0.5-1.1-0.7-2-0.7c-1.4,0-2.4,0.6-3,1.8v10.7h-3.4v-15H400.1z"/>
		<path d="M421.8,533c-1,1.2-2.4,1.7-4.2,1.7c-1.6,0-2.9-0.5-3.7-1.4c-0.8-1-1.3-2.3-1.3-4.1v-9.7h3.4v9.7c0,1.9,0.8,2.9,2.4,2.9
			c1.6,0,2.7-0.6,3.3-1.8v-10.8h3.4v15h-3.2L421.8,533z"/>
		<path d="M432.7,515.8v3.6h2.6v2.5h-2.6v8.4c0,0.6,0.1,1,0.3,1.2c0.2,0.3,0.6,0.4,1.2,0.4c0.4,0,0.8,0,1.2-0.1v2.6
			c-0.8,0.2-1.5,0.3-2.2,0.3c-2.6,0-3.9-1.4-3.9-4.3v-8.5h-2.5v-2.5h2.5v-3.6H432.7z"/>
		<path d="M444.6,534.7c-2.1,0-3.9-0.7-5.2-2c-1.3-1.3-2-3.1-2-5.4v-0.4c0-1.5,0.3-2.8,0.9-4c0.6-1.2,1.4-2.1,2.4-2.8s2.2-1,3.5-1
			c2,0,3.6,0.7,4.7,2c1.1,1.3,1.7,3.1,1.7,5.5v1.4h-9.8c0.1,1.2,0.5,2.2,1.2,2.9s1.6,1.1,2.7,1.1c1.5,0,2.8-0.6,3.8-1.9l1.8,1.7
			c-0.6,0.9-1.4,1.6-2.4,2.1C447,534.5,445.8,534.7,444.6,534.7z M444.2,521.9c-0.9,0-1.7,0.3-2.2,1c-0.6,0.6-0.9,1.5-1.1,2.7h6.4
			v-0.2c-0.1-1.1-0.4-2-0.9-2.6C445.8,522.1,445.1,521.9,444.2,521.9z"/>
		<path d="M461.6,530.4c0-0.6-0.2-1.1-0.7-1.4s-1.3-0.6-2.5-0.8c-1.1-0.2-2.1-0.5-2.9-0.9c-1.7-0.8-2.5-2-2.5-3.5
			c0-1.3,0.5-2.4,1.6-3.2c1.1-0.9,2.5-1.3,4.2-1.3c1.8,0,3.2,0.4,4.3,1.3c1.1,0.9,1.7,2,1.7,3.5h-3.4c0-0.6-0.2-1.2-0.7-1.6
			c-0.5-0.4-1.1-0.6-1.9-0.6c-0.7,0-1.3,0.2-1.8,0.5c-0.5,0.3-0.7,0.8-0.7,1.4c0,0.5,0.2,0.9,0.7,1.2c0.4,0.3,1.3,0.6,2.6,0.9
			c1.3,0.3,2.4,0.6,3.1,1s1.3,0.9,1.7,1.4c0.4,0.6,0.5,1.2,0.5,2.1c0,1.4-0.6,2.4-1.7,3.3c-1.1,0.8-2.6,1.3-4.4,1.3
			c-1.2,0-2.3-0.2-3.3-0.7c-1-0.4-1.7-1.1-2.2-1.8c-0.5-0.8-0.8-1.6-0.8-2.5h3.3c0,0.8,0.3,1.4,0.9,1.8c0.6,0.4,1.3,0.6,2.2,0.6
			c0.9,0,1.6-0.2,2-0.5C461.4,531.3,461.6,530.9,461.6,530.4z"/>
		<path d="M78.6,579.7h-3.4v-16.2l-5,1.7v-2.8l7.9-2.9h0.4V579.7z"/>
		<path d="M96.1,559.4v2.8h-0.4c-1.9,0-3.4,0.5-4.5,1.6c-1.1,1-1.8,2.4-2,4.3c1.1-1.1,2.5-1.7,4.1-1.7c1.8,0,3.2,0.6,4.2,1.9
			c1,1.3,1.5,2.9,1.5,4.9c0,2.1-0.6,3.7-1.8,5c-1.2,1.3-2.8,1.9-4.8,1.9c-2,0-3.7-0.7-4.9-2.2c-1.3-1.5-1.9-3.4-1.9-5.9v-1.2
			c0-3.5,0.9-6.3,2.6-8.3c1.7-2,4.2-3,7.4-3H96.1z M92.5,569.1c-0.7,0-1.4,0.2-2,0.6s-1.1,1-1.4,1.7v1c0,1.5,0.3,2.7,0.9,3.6
			s1.4,1.3,2.4,1.3c1,0,1.8-0.4,2.4-1.1s0.9-1.7,0.9-3s-0.3-2.2-0.9-3S93.5,569.1,92.5,569.1z"/>
		<path d="M112.3,564.7l0.1,1.6c1.1-1.2,2.5-1.8,4.3-1.8c2,0,3.4,0.8,4.1,2.3c1.1-1.5,2.6-2.3,4.6-2.3c1.7,0,2.9,0.5,3.7,1.4
			c0.8,0.9,1.2,2.3,1.2,4.1v9.9H127V570c0-1-0.2-1.7-0.6-2.1c-0.4-0.4-1.1-0.7-2.1-0.7c-0.8,0-1.4,0.2-1.9,0.6s-0.8,1-1,1.6l0,10.3
			H118v-9.9c0-1.8-0.9-2.6-2.7-2.6c-1.4,0-2.3,0.5-2.9,1.7v10.9h-3.4v-15H112.3z"/>
		<path d="M133.8,560.8c0-0.5,0.2-1,0.5-1.3c0.3-0.3,0.8-0.5,1.4-0.5s1.1,0.2,1.4,0.5c0.3,0.3,0.5,0.8,0.5,1.3
			c0,0.5-0.2,0.9-0.5,1.3c-0.3,0.3-0.8,0.5-1.4,0.5s-1.1-0.2-1.4-0.5C134,561.8,133.8,561.3,133.8,560.8z M137.4,579.7H134v-15h3.4
			V579.7z"/>
		<path d="M144.2,564.7l0.1,1.7c1.1-1.3,2.6-2,4.4-2c3.1,0,4.7,1.8,4.8,5.4v9.9h-3.4V570c0-1-0.2-1.7-0.6-2.1s-1.1-0.7-2-0.7
			c-1.4,0-2.4,0.6-3,1.8v10.7H141v-15H144.2z"/>
		<path d="M166,578.3c-1,1.2-2.4,1.7-4.2,1.7c-1.6,0-2.9-0.5-3.7-1.4c-0.8-1-1.3-2.3-1.3-4.1v-9.7h3.4v9.7c0,1.9,0.8,2.9,2.4,2.9
			c1.6,0,2.7-0.6,3.3-1.8v-10.8h3.4v15H166L166,578.3z"/>
		<path d="M176.9,561.1v3.6h2.6v2.5h-2.6v8.4c0,0.6,0.1,1,0.3,1.2c0.2,0.3,0.6,0.4,1.2,0.4c0.4,0,0.8,0,1.2-0.1v2.6
			c-0.8,0.2-1.5,0.3-2.2,0.3c-2.6,0-3.9-1.4-3.9-4.3v-8.5H171v-2.5h2.5v-3.6H176.9z"/>
		<path d="M188.7,580c-2.1,0-3.9-0.7-5.2-2c-1.3-1.3-2-3.1-2-5.4v-0.4c0-1.5,0.3-2.8,0.9-4c0.6-1.2,1.4-2.1,2.4-2.8
			c1-0.7,2.2-1,3.5-1c2,0,3.6,0.7,4.7,2c1.1,1.3,1.7,3.1,1.7,5.5v1.4h-9.8c0.1,1.2,0.5,2.2,1.2,2.9s1.6,1.1,2.7,1.1
			c1.5,0,2.8-0.6,3.8-1.9l1.8,1.7c-0.6,0.9-1.4,1.6-2.4,2.1C191.1,579.8,190,580,188.7,580z M188.3,567.2c-0.9,0-1.7,0.3-2.2,1
			s-0.9,1.5-1.1,2.7h6.4v-0.2c-0.1-1.1-0.4-2-0.9-2.6C190,567.4,189.2,567.2,188.3,567.2z"/>
		<path d="M217.6,572.4c0,2.3-0.5,4.2-1.6,5.6c-1,1.4-2.5,2.1-4.3,2.1c-1.8,0-3.1-0.6-4.1-1.9l-0.2,1.6h-3.1v-21.3h3.4v7.7
			c1-1.1,2.3-1.7,3.9-1.7c1.8,0,3.3,0.7,4.3,2s1.6,3.3,1.6,5.7V572.4z M214.2,572.1c0-1.6-0.3-2.8-0.9-3.7c-0.6-0.8-1.4-1.2-2.5-1.2
			c-1.5,0-2.5,0.6-3.1,1.9v6.2c0.6,1.3,1.6,2,3.1,2c1.1,0,1.9-0.4,2.4-1.2c0.6-0.8,0.9-2,0.9-3.6V572.1z"/>
		<path d="M228.3,567.8c-0.4-0.1-0.9-0.1-1.4-0.1c-1.5,0-2.6,0.6-3.1,1.8v10.3h-3.4v-15h3.2l0.1,1.7c0.8-1.3,1.9-2,3.4-2
			c0.5,0,0.9,0.1,1.2,0.2L228.3,567.8z"/>
		<path d="M236.7,580c-2.1,0-3.9-0.7-5.2-2c-1.3-1.3-2-3.1-2-5.4v-0.4c0-1.5,0.3-2.8,0.9-4c0.6-1.2,1.4-2.1,2.4-2.8
			c1-0.7,2.2-1,3.5-1c2,0,3.6,0.7,4.7,2c1.1,1.3,1.7,3.1,1.7,5.5v1.4H233c0.1,1.2,0.5,2.2,1.2,2.9s1.6,1.1,2.7,1.1
			c1.5,0,2.8-0.6,3.8-1.9l1.8,1.7c-0.6,0.9-1.4,1.6-2.4,2.1C239.1,579.8,238,580,236.7,580z M236.3,567.2c-0.9,0-1.7,0.3-2.2,1
			s-0.9,1.5-1.1,2.7h6.4v-0.2c-0.1-1.1-0.4-2-0.9-2.6C238,567.4,237.3,567.2,236.3,567.2z"/>
		<path d="M254.4,579.7c-0.1-0.3-0.3-0.8-0.4-1.4c-1.1,1.1-2.4,1.7-3.9,1.7c-1.5,0-2.7-0.4-3.7-1.3c-1-0.9-1.4-1.9-1.4-3.2
			c0-1.6,0.6-2.8,1.8-3.7c1.2-0.9,2.9-1.3,5.1-1.3h2.1v-1c0-0.8-0.2-1.4-0.7-1.9c-0.4-0.5-1.1-0.7-2-0.7c-0.8,0-1.4,0.2-1.9,0.6
			c-0.5,0.4-0.7,0.9-0.7,1.5h-3.4c0-0.8,0.3-1.6,0.8-2.3c0.5-0.7,1.3-1.3,2.2-1.7c0.9-0.4,2-0.6,3.1-0.6c1.8,0,3.2,0.4,4.2,1.3
			c1,0.9,1.6,2.1,1.6,3.7v6.8c0,1.3,0.2,2.4,0.6,3.2v0.2H254.4z M250.6,577.3c0.7,0,1.3-0.2,1.9-0.5c0.6-0.3,1-0.8,1.3-1.3v-2.8H252
			c-1.2,0-2.2,0.2-2.8,0.7c-0.6,0.4-0.9,1-0.9,1.8c0,0.6,0.2,1.2,0.6,1.5C249.4,577.1,249.9,577.3,250.6,577.3z"/>
		<path d="M265.6,573.3l-1.5,1.5v4.9h-3.4v-21.3h3.4v12.3l1.1-1.3l4.1-4.7h4.1l-5.6,6.3l6.2,8.8h-3.9L265.6,573.3z"/>
	</g>
</g>
<g class="st1">
	<path d="M586.3,454.4c0-0.8-0.2-1.4-0.6-1.8c-0.4-0.4-1.1-0.9-2.1-1.2c-1-0.4-1.9-0.8-2.6-1.1c-0.7-0.4-1.4-0.8-1.9-1.3
		c-0.5-0.5-0.9-1.1-1.2-1.7c-0.3-0.7-0.4-1.4-0.4-2.3c0-1.6,0.5-2.8,1.5-3.8c1-1,2.3-1.6,4-1.7v-3h2.2v3c1.6,0.2,2.9,0.9,3.8,2
		s1.4,2.6,1.4,4.4h-4c0-1.1-0.2-1.9-0.7-2.5c-0.5-0.5-1.1-0.8-1.8-0.8c-0.8,0-1.3,0.2-1.8,0.6c-0.4,0.4-0.6,1-0.6,1.8
		c0,0.7,0.2,1.3,0.6,1.7c0.4,0.4,1.2,0.9,2.3,1.3c1.1,0.4,2,0.9,2.7,1.3c0.7,0.4,1.3,0.8,1.8,1.3c0.5,0.5,0.9,1.1,1.1,1.7
		c0.3,0.6,0.4,1.4,0.4,2.2c0,1.6-0.5,2.8-1.5,3.8c-1,1-2.3,1.6-4.1,1.7v2.8h-2.2V460c-1.9-0.2-3.4-0.9-4.4-2c-1-1.1-1.6-2.7-1.6-4.6
		h4c0,1.1,0.3,1.9,0.8,2.5c0.5,0.6,1.3,0.9,2.3,0.9c0.8,0,1.5-0.2,1.9-0.6C586,455.7,586.3,455.2,586.3,454.4z"/>
	<path d="M593.6,449.8l1.2-10.3h11.3v3.3h-8l-0.5,4.3c1-0.5,2-0.8,3-0.8c1.9,0,3.4,0.6,4.5,1.8c1.1,1.2,1.6,2.9,1.6,5
		c0,1.3-0.3,2.5-0.8,3.5c-0.6,1-1.3,1.8-2.4,2.4c-1,0.6-2.2,0.9-3.6,0.9c-1.2,0-2.4-0.2-3.4-0.7c-1-0.5-1.9-1.2-2.5-2.1
		c-0.6-0.9-0.9-1.9-1-3.1h4c0.1,0.8,0.4,1.5,0.9,2c0.5,0.5,1.2,0.7,2,0.7c0.9,0,1.6-0.3,2.1-1c0.5-0.7,0.7-1.6,0.7-2.8
		c0-1.1-0.3-2-0.8-2.6s-1.4-0.9-2.4-0.9c-1,0-1.7,0.2-2.3,0.7l-0.4,0.4L593.6,449.8z"/>
	<path d="M618.7,451.7c-1,1-2.3,1.5-3.7,1.5c-1.8,0-3.2-0.6-4.3-1.8c-1.1-1.2-1.6-2.9-1.6-5c0-1.3,0.3-2.5,0.9-3.6
		c0.6-1.1,1.4-2,2.4-2.6c1-0.6,2.2-0.9,3.5-0.9c1.3,0,2.5,0.3,3.6,1c1,0.7,1.8,1.6,2.4,2.9c0.6,1.2,0.9,2.7,0.9,4.3v1.5
		c0,3.4-0.8,6-2.5,7.9c-1.7,1.9-4,3-7.1,3.1l-1,0v-3.3l0.9,0C616.5,456.4,618.4,454.8,618.7,451.7z M616,450.1
		c0.6,0,1.2-0.2,1.7-0.5c0.5-0.3,0.8-0.7,1.1-1.2v-1.7c0-1.4-0.3-2.4-0.8-3.2c-0.5-0.7-1.2-1.1-2.1-1.1c-0.8,0-1.5,0.4-2,1.1
		s-0.8,1.7-0.8,2.8c0,1.1,0.3,2,0.8,2.7C614.4,449.8,615.1,450.1,616,450.1z"/>
	<path d="M626,457.8c0-0.6,0.2-1.2,0.6-1.6c0.4-0.4,1-0.6,1.6-0.6c0.7,0,1.2,0.2,1.6,0.6c0.4,0.4,0.6,0.9,0.6,1.6
		c0,0.6-0.2,1.1-0.6,1.5c-0.4,0.4-1,0.6-1.6,0.6c-0.7,0-1.2-0.2-1.6-0.6C626.2,458.9,626,458.4,626,457.8z"/>
	<path d="M644.7,439.3v3.3h-0.4c-1.8,0-3.3,0.5-4.4,1.4c-1.1,0.9-1.8,2.2-2,3.8c1.1-1.1,2.4-1.6,4.1-1.6c1.8,0,3.2,0.6,4.2,1.9
		c1,1.3,1.6,2.9,1.6,5c0,1.3-0.3,2.5-0.9,3.6c-0.6,1.1-1.4,1.9-2.4,2.5c-1,0.6-2.2,0.9-3.5,0.9c-2.1,0-3.8-0.7-5.2-2.2
		c-1.3-1.5-2-3.5-2-5.9v-1.4c0-2.2,0.4-4.1,1.2-5.8c0.8-1.7,2-3,3.6-3.9c1.5-0.9,3.3-1.4,5.4-1.4H644.7z M640.8,449.5
		c-0.6,0-1.2,0.2-1.8,0.5c-0.5,0.3-0.9,0.8-1.2,1.3v1.2c0,1.3,0.3,2.4,0.8,3.1c0.5,0.8,1.3,1.1,2.2,1.1c0.9,0,1.6-0.3,2.1-1
		c0.5-0.7,0.8-1.6,0.8-2.6c0-1.1-0.3-2-0.8-2.7S641.7,449.5,640.8,449.5z"/>
	<path d="M663.9,441.8l-7.8,18h-4.2l7.8-17h-10v-3.2h14.3V441.8z"/>
	<path d="M704,459.7h-3.4v-16.2l-5,1.7v-2.8l7.9-2.9h0.4V459.7z"/>
	<path d="M713.3,444.4c0.6,0,1.1,0.2,1.5,0.5s0.5,0.8,0.5,1.3c0,0.5-0.2,1-0.5,1.3s-0.8,0.5-1.5,0.5c-0.6,0-1.1-0.2-1.4-0.5
		c-0.4-0.3-0.5-0.8-0.5-1.3c0-0.5,0.2-1,0.5-1.3S712.7,444.4,713.3,444.4z M713.3,456.2c0.6,0,1.1,0.2,1.5,0.5s0.5,0.8,0.5,1.3
		c0,0.5-0.2,1-0.5,1.3s-0.8,0.5-1.5,0.5c-0.6,0-1.1-0.2-1.4-0.5c-0.4-0.3-0.5-0.8-0.5-1.3c0-0.5,0.2-1,0.5-1.3
		S712.7,456.2,713.3,456.2z"/>
	<path d="M731.7,451.2c0,2.9-0.5,5.1-1.6,6.6c-1.1,1.5-2.7,2.2-5,2.2c-2.2,0-3.8-0.7-4.9-2.2c-1.1-1.4-1.7-3.6-1.7-6.4V448
		c0-2.9,0.5-5.1,1.6-6.5c1.1-1.5,2.7-2.2,5-2.2c2.2,0,3.9,0.7,4.9,2.1c1.1,1.4,1.6,3.5,1.7,6.4V451.2z M728.4,447.5
		c0-1.9-0.3-3.3-0.8-4.2c-0.5-0.9-1.3-1.3-2.5-1.3c-1.1,0-1.9,0.4-2.4,1.3s-0.8,2.1-0.8,3.9v4.6c0,1.9,0.3,3.3,0.8,4.2
		s1.4,1.4,2.5,1.4c1.1,0,1.9-0.4,2.4-1.3s0.8-2.2,0.8-4V447.5z"/>
	<path d="M748.3,459.7h-13.6v-2.3l6.7-7.3c1-1.1,1.7-2,2.1-2.7c0.4-0.7,0.6-1.5,0.6-2.2c0-1-0.3-1.7-0.8-2.3s-1.3-0.9-2.2-0.9
		c-1.1,0-1.9,0.3-2.5,1c-0.6,0.7-0.9,1.6-0.9,2.7h-3.4c0-1.2,0.3-2.3,0.8-3.3s1.4-1.8,2.4-2.3c1-0.5,2.2-0.8,3.6-0.8
		c2,0,3.5,0.5,4.6,1.5c1.1,1,1.7,2.3,1.7,4.1c0,1-0.3,2.1-0.9,3.2c-0.6,1.1-1.5,2.4-2.8,3.8l-4.9,5.3h9.4V459.7z"/>
	<path d="M762,452.2v7.5h-3.5v-20.2h7.7c2.3,0,4,0.6,5.4,1.8s2,2.7,2,4.7c0,2-0.6,3.5-1.9,4.6c-1.3,1.1-3.1,1.7-5.5,1.7H762z
		 M762,449.4h4.2c1.2,0,2.2-0.3,2.9-0.9c0.7-0.6,1-1.4,1-2.5c0-1.1-0.3-2-1-2.6c-0.7-0.7-1.6-1-2.7-1H762V449.4z"/>
	<path d="M781.2,439.5L787,455l5.8-15.5h4.5v20.2h-3.5v-6.7l0.3-8.9l-6,15.6h-2.5l-6-15.6l0.3,8.9v6.7h-3.5v-20.2H781.2z"/>
	<path d="M814.8,452.5h-7.3v-2.7h7.3V452.5z"/>
	<path d="M837.9,441.4l-8.1,18.3h-3.5l8.1-17.5h-10.4v-2.7h14V441.4z"/>
	<path d="M842.8,444.4c0.6,0,1.1,0.2,1.5,0.5s0.5,0.8,0.5,1.3c0,0.5-0.2,1-0.5,1.3s-0.8,0.5-1.5,0.5c-0.6,0-1.1-0.2-1.4-0.5
		c-0.4-0.3-0.5-0.8-0.5-1.3c0-0.5,0.2-1,0.5-1.3S842.2,444.4,842.8,444.4z M842.8,456.2c0.6,0,1.1,0.2,1.5,0.5s0.5,0.8,0.5,1.3
		c0,0.5-0.2,1-0.5,1.3s-0.8,0.5-1.5,0.5c-0.6,0-1.1-0.2-1.4-0.5c-0.4-0.3-0.5-0.8-0.5-1.3c0-0.5,0.2-1,0.5-1.3
		S842.2,456.2,842.8,456.2z"/>
	<path d="M861.3,451.2c0,2.9-0.5,5.1-1.6,6.6c-1.1,1.5-2.7,2.2-5,2.2c-2.2,0-3.8-0.7-4.9-2.2c-1.1-1.4-1.7-3.6-1.7-6.4V448
		c0-2.9,0.5-5.1,1.6-6.5c1.1-1.5,2.7-2.2,5-2.2c2.2,0,3.9,0.7,4.9,2.1c1.1,1.4,1.6,3.5,1.7,6.4V451.2z M857.9,447.5
		c0-1.9-0.3-3.3-0.8-4.2c-0.5-0.9-1.3-1.3-2.5-1.3c-1.1,0-1.9,0.4-2.4,1.3s-0.8,2.1-0.8,3.9v4.6c0,1.9,0.3,3.3,0.8,4.2
		s1.4,1.4,2.5,1.4c1.1,0,1.9-0.4,2.4-1.3s0.8-2.2,0.8-4V447.5z"/>
	<path d="M877.4,451.2c0,2.9-0.5,5.1-1.6,6.6c-1.1,1.5-2.7,2.2-5,2.2c-2.2,0-3.8-0.7-4.9-2.2c-1.1-1.4-1.7-3.6-1.7-6.4V448
		c0-2.9,0.5-5.1,1.6-6.5c1.1-1.5,2.7-2.2,5-2.2c2.2,0,3.9,0.7,4.9,2.1c1.1,1.4,1.6,3.5,1.7,6.4V451.2z M874.1,447.5
		c0-1.9-0.3-3.3-0.8-4.2c-0.5-0.9-1.3-1.3-2.5-1.3c-1.1,0-1.9,0.4-2.4,1.3s-0.8,2.1-0.8,3.9v4.6c0,1.9,0.3,3.3,0.8,4.2
		s1.4,1.4,2.5,1.4c1.1,0,1.9-0.4,2.4-1.3s0.8-2.2,0.8-4V447.5z"/>
	<path d="M891.5,452.2v7.5H888v-20.2h7.7c2.3,0,4,0.6,5.4,1.8s2,2.7,2,4.7c0,2-0.6,3.5-1.9,4.6c-1.3,1.1-3.1,1.7-5.5,1.7H891.5z
		 M891.5,449.4h4.2c1.2,0,2.2-0.3,2.9-0.9c0.7-0.6,1-1.4,1-2.5c0-1.1-0.3-2-1-2.6c-0.7-0.7-1.6-1-2.7-1h-4.3V449.4z"/>
	<path d="M910.7,439.5l5.8,15.5l5.8-15.5h4.5v20.2h-3.5v-6.7l0.3-8.9l-6,15.6h-2.5l-6-15.6l0.3,8.9v6.7h-3.5v-20.2H910.7z"/>
</g>
<path class="st2" d="M898,653.1l-1.6-1.6l-6.2,6.2l-6.2-6.2l-1.6,1.6l6.2,6.2l-6.2,6.2l1.6,1.6l6.2-6.2l6.2,6.2l1.6-1.6l-6.2-6.2
	L898,653.1z"/>
<g class="st1">
	<path class="st2" d="M909.2,669v-18.5h5.5c1.6,0,3.1,0.4,4.4,1.1c1.3,0.7,2.2,1.8,2.9,3.1c0.7,1.3,1,2.9,1,4.6v0.9
		c0,1.8-0.3,3.3-1,4.6c-0.7,1.3-1.7,2.4-3,3.1c-1.3,0.7-2.8,1.1-4.4,1.1H909.2z M912.4,653.1v13.3h2.1c1.7,0,3-0.5,3.9-1.6
		s1.4-2.6,1.4-4.5v-1c0-2-0.4-3.5-1.3-4.6c-0.9-1.1-2.1-1.6-3.8-1.6H912.4z"/>
	<path class="st2" d="M937,660.8h-7.6v5.7h8.9v2.6h-12.1v-18.5h12v2.6h-8.8v5.1h7.6V660.8z"/>
	<path class="st2" d="M955.6,669h-3.2l-8.2-13.1V669h-3.2v-18.5h3.2l8.3,13.2v-13.2h3.2V669z"/>
	<path class="st2" d="M965.1,659.3l4.3-8.8h3.6l-6.2,11.7v6.8h-3.2v-6.8l-6.2-11.7h3.6L965.1,659.3z"/>
</g>
<path class="st3" d="M727,653.7l-13.1,13.1l-6-6l1.5-1.5l4.5,4.5l11.6-11.5L727,653.7z"/>
<g class="st1">
	<path class="st3" d="M747.1,664.7H740l-1.5,4.3h-3.3l7-18.5h2.9l7,18.5h-3.4L747.1,664.7z M740.9,662.1h5.4l-2.7-7.7L740.9,662.1z"
		/>
	<path class="st3" d="M757.3,662.2v6.9h-3.2v-18.5h7.1c2.1,0,3.7,0.5,4.9,1.6c1.2,1.1,1.8,2.5,1.8,4.3c0,1.8-0.6,3.2-1.8,4.2
		c-1.2,1-2.9,1.5-5,1.5H757.3z M757.3,659.6h3.9c1.1,0,2-0.3,2.6-0.8s0.9-1.3,0.9-2.3c0-1-0.3-1.8-0.9-2.4s-1.4-0.9-2.5-0.9h-4
		V659.6z"/>
	<path class="st3" d="M774,662.2v6.9h-3.2v-18.5h7.1c2.1,0,3.7,0.5,4.9,1.6c1.2,1.1,1.8,2.5,1.8,4.3c0,1.8-0.6,3.2-1.8,4.2
		c-1.2,1-2.9,1.5-5,1.5H774z M774,659.6h3.9c1.1,0,2-0.3,2.6-0.8s0.9-1.3,0.9-2.3c0-1-0.3-1.8-0.9-2.4s-1.4-0.9-2.5-0.9h-4V659.6z"
		/>
	<path class="st3" d="M794.2,661.9h-3.6v7.1h-3.2v-18.5h6.5c2.1,0,3.8,0.5,4.9,1.4s1.7,2.3,1.7,4.2c0,1.2-0.3,2.3-0.9,3.1
		c-0.6,0.8-1.4,1.5-2.5,1.9l4.2,7.7v0.2h-3.4L794.2,661.9z M790.6,659.3h3.3c1.1,0,1.9-0.3,2.5-0.8c0.6-0.5,0.9-1.3,0.9-2.2
		c0-1-0.3-1.8-0.8-2.3c-0.6-0.5-1.4-0.8-2.5-0.8h-3.4V659.3z"/>
	<path class="st3" d="M818.4,660.3c0,1.8-0.3,3.4-0.9,4.8c-0.6,1.4-1.5,2.4-2.7,3.2c-1.2,0.7-2.5,1.1-4,1.1c-1.5,0-2.8-0.4-4-1.1
		c-1.2-0.7-2.1-1.8-2.7-3.1c-0.6-1.4-1-2.9-1-4.7v-1c0-1.8,0.3-3.4,1-4.8c0.6-1.4,1.5-2.4,2.7-3.2c1.2-0.7,2.5-1.1,4-1.1
		c1.5,0,2.8,0.4,4,1.1c1.2,0.7,2.1,1.8,2.7,3.1c0.6,1.4,1,2.9,1,4.7V660.3z M815.2,659.3c0-2.1-0.4-3.6-1.2-4.7
		c-0.8-1.1-1.9-1.6-3.3-1.6c-1.4,0-2.5,0.5-3.3,1.6s-1.2,2.6-1.2,4.6v1.1c0,2,0.4,3.6,1.2,4.7c0.8,1.1,1.9,1.7,3.3,1.7
		c1.4,0,2.5-0.5,3.3-1.6c0.8-1.1,1.2-2.7,1.2-4.8V659.3z"/>
	<path class="st3" d="M827.8,665l4.7-14.5h3.5l-6.7,18.5h-3.1l-6.6-18.5h3.5L827.8,665z"/>
	<path class="st3" d="M849,660.8h-7.6v5.7h8.9v2.6h-12.1v-18.5h12v2.6h-8.8v5.1h7.6V660.8z"/>
</g>
<g>
	<path d="M970.9,455l-6.4-6.4l-6.4,6.4l-2-2l8.4-8.4l8.4,8.4L970.9,455z"/>
</g>
<g>
	<path class="st0" d="M1011,1078H26c-6.6,0-12-5.4-12-12V751c0-6.6,5.4-12,12-12h985c6.6,0,12,5.4,12,12v315
		C1023,1072.6,1017.6,1078,1011,1078z"/>
</g>
<g class="st1">
	<g>
		<path d="M90.6,818.6c-0.2,2.8-1.2,5-3.1,6.6c-1.8,1.6-4.3,2.4-7.3,2.4c-3.3,0-5.9-1.1-7.8-3.3c-1.9-2.2-2.8-5.3-2.8-9.2v-1.6
			c0-2.5,0.4-4.7,1.3-6.6c0.9-1.9,2.1-3.3,3.7-4.3s3.5-1.5,5.7-1.5c3,0,5.4,0.8,7.2,2.4c1.8,1.6,2.9,3.8,3.2,6.7h-5.3
			c-0.1-1.7-0.6-2.9-1.4-3.6c-0.8-0.8-2-1.1-3.6-1.1c-1.8,0-3.1,0.6-4,1.9c-0.9,1.3-1.3,3.2-1.4,5.9v1.9c0,2.8,0.4,4.8,1.3,6.1
			c0.8,1.3,2.2,1.9,4,1.9c1.6,0,2.9-0.4,3.7-1.1c0.8-0.8,1.3-1.9,1.4-3.5H90.6z"/>
		<path d="M98.7,810.1c1.4-1.6,3.1-2.4,5.1-2.4c4.2,0,6.3,2.4,6.3,7.2v12.3H105V815c0-1.1-0.2-1.9-0.7-2.4c-0.5-0.5-1.3-0.8-2.4-0.8
			c-1.5,0-2.6,0.6-3.3,1.7v13.7h-5.1V800h5.1V810.1z"/>
		<path d="M122.8,827.5c-2.8,0-5.1-0.9-6.9-2.6c-1.8-1.7-2.6-4-2.6-6.9v-0.5c0-1.9,0.4-3.6,1.1-5.2s1.8-2.7,3.2-3.5
			c1.4-0.8,2.9-1.2,4.7-1.2c2.6,0,4.7,0.8,6.2,2.5s2.3,4,2.3,7v2.1h-12.2c0.2,1.3,0.7,2.3,1.5,3c0.8,0.8,1.9,1.1,3.2,1.1
			c2,0,3.5-0.7,4.6-2.1l2.5,2.8c-0.8,1.1-1.8,1.9-3.1,2.5C125.9,827.2,124.4,827.5,122.8,827.5z M122.2,811.8c-1,0-1.8,0.3-2.5,1
			s-1,1.7-1.2,3h7.1v-0.4c0-1.1-0.3-2-0.9-2.6C124.2,812.1,123.3,811.8,122.2,811.8z"/>
		<path d="M140.5,819.9l3.5-11.9h5.5l-7.7,22.1l-0.4,1c-1.1,2.5-3,3.8-5.7,3.8c-0.7,0-1.5-0.1-2.3-0.3v-3.9l0.8,0
			c1,0,1.7-0.1,2.2-0.4c0.5-0.3,0.9-0.8,1.1-1.5l0.6-1.6l-6.7-19.2h5.5L140.5,819.9z"/>
		<path d="M160.2,827.5c-2.8,0-5.1-0.9-6.9-2.6c-1.8-1.7-2.6-4-2.6-6.9v-0.5c0-1.9,0.4-3.6,1.1-5.2s1.8-2.7,3.2-3.5
			c1.4-0.8,2.9-1.2,4.7-1.2c2.6,0,4.7,0.8,6.2,2.5s2.3,4,2.3,7v2.1h-12.2c0.2,1.3,0.7,2.3,1.5,3c0.8,0.8,1.9,1.1,3.2,1.1
			c2,0,3.5-0.7,4.6-2.1l2.5,2.8c-0.8,1.1-1.8,1.9-3.1,2.5C163.2,827.2,161.8,827.5,160.2,827.5z M159.6,811.8c-1,0-1.8,0.3-2.5,1
			s-1,1.7-1.2,3h7.1v-0.4c0-1.1-0.3-2-0.9-2.6C161.5,812.1,160.7,811.8,159.6,811.8z"/>
		<path d="M175.7,808l0.2,2.2c1.4-1.7,3.2-2.6,5.5-2.6c2,0,3.5,0.6,4.5,1.8c1,1.2,1.5,3,1.5,5.3v12.4h-5.1v-12.3
			c0-1.1-0.2-1.9-0.7-2.4c-0.5-0.5-1.3-0.7-2.4-0.7c-1.4,0-2.5,0.6-3.2,1.8v13.5h-5.1V808H175.7z"/>
		<path d="M196,808l0.2,2.2c1.4-1.7,3.2-2.6,5.5-2.6c2,0,3.5,0.6,4.5,1.8c1,1.2,1.5,3,1.5,5.3v12.4h-5.1v-12.3
			c0-1.1-0.2-1.9-0.7-2.4c-0.5-0.5-1.3-0.7-2.4-0.7c-1.4,0-2.5,0.6-3.2,1.8v13.5h-5.1V808H196z"/>
		<path d="M220.4,827.5c-2.8,0-5.1-0.9-6.9-2.6c-1.8-1.7-2.6-4-2.6-6.9v-0.5c0-1.9,0.4-3.6,1.1-5.2s1.8-2.7,3.2-3.5
			c1.4-0.8,2.9-1.2,4.7-1.2c2.6,0,4.7,0.8,6.2,2.5s2.3,4,2.3,7v2.1h-12.2c0.2,1.3,0.7,2.3,1.5,3c0.8,0.8,1.9,1.1,3.2,1.1
			c2,0,3.5-0.7,4.6-2.1l2.5,2.8c-0.8,1.1-1.8,1.9-3.1,2.5C223.5,827.2,222,827.5,220.4,827.5z M219.9,811.8c-1,0-1.8,0.3-2.5,1
			s-1,1.7-1.2,3h7.1v-0.4c0-1.1-0.3-2-0.9-2.6C221.8,812.1,220.9,811.8,219.9,811.8z"/>
		<path d="M259,805.7h-7.9v21.5h-5.3v-21.5h-7.8v-4.3h21V805.7z"/>
		<path d="M266.6,810.1c1.4-1.6,3.1-2.4,5.1-2.4c4.2,0,6.3,2.4,6.3,7.2v12.3H273V815c0-1.1-0.2-1.9-0.7-2.4
			c-0.5-0.5-1.3-0.8-2.4-0.8c-1.5,0-2.6,0.6-3.3,1.7v13.7h-5.1V800h5.1V810.1z"/>
		<path d="M281.1,817.4c0-1.9,0.4-3.6,1.1-5.1c0.7-1.5,1.8-2.6,3.2-3.5c1.4-0.8,3-1.2,4.8-1.2c2.6,0,4.7,0.8,6.3,2.4
			c1.6,1.6,2.5,3.7,2.7,6.4l0,1.3c0,2.9-0.8,5.3-2.5,7.1c-1.6,1.8-3.8,2.7-6.6,2.7c-2.8,0-5-0.9-6.6-2.7s-2.5-4.2-2.5-7.2V817.4z
			 M286.3,817.8c0,1.8,0.3,3.2,1,4.2c0.7,1,1.7,1.4,2.9,1.4c1.2,0,2.2-0.5,2.9-1.4c0.7-1,1-2.5,1-4.6c0-1.8-0.3-3.2-1-4.2
			c-0.7-1-1.7-1.5-2.9-1.5c-1.3,0-2.2,0.5-2.9,1.5C286.6,814.2,286.3,815.7,286.3,817.8z"/>
		<path d="M307.3,808l0.2,2.1c1.4-1.7,3.2-2.5,5.5-2.5c2.5,0,4.2,1,5.1,2.9c1.3-1.9,3.3-2.9,5.8-2.9c2.1,0,3.6,0.6,4.6,1.8
			s1.5,3,1.5,5.5v12.2h-5.1v-12.3c0-1.1-0.2-1.9-0.6-2.4s-1.2-0.8-2.3-0.8c-1.5,0-2.6,0.7-3.2,2.2l0,13.2h-5.1v-12.2
			c0-1.1-0.2-1.9-0.7-2.4c-0.4-0.5-1.2-0.7-2.2-0.7c-1.5,0-2.5,0.6-3.2,1.8v13.6h-5.1V808H307.3z"/>
		<path d="M351.1,817.8c0,3-0.7,5.3-2,7.1c-1.3,1.8-3.2,2.7-5.4,2.7c-1.9,0-3.5-0.7-4.7-2v9h-5.1V808h4.7l0.2,1.9
			c1.2-1.5,2.9-2.2,4.9-2.2c2.4,0,4.2,0.9,5.5,2.6c1.3,1.7,2,4.2,2,7.2V817.8z M346,817.4c0-1.8-0.3-3.2-0.9-4.1
			c-0.6-1-1.5-1.5-2.8-1.5c-1.6,0-2.7,0.6-3.3,1.8v7.9c0.6,1.3,1.7,1.9,3.3,1.9C344.8,823.4,346,821.4,346,817.4z"/>
		<path d="M364.7,821.9c0-0.6-0.3-1.1-0.9-1.5c-0.6-0.4-1.6-0.7-3-1c-4.6-1-6.8-2.9-6.8-5.8c0-1.7,0.7-3.1,2.1-4.3
			c1.4-1.1,3.3-1.7,5.5-1.7c2.4,0,4.4,0.6,5.8,1.7c1.5,1.1,2.2,2.6,2.2,4.5h-5.1c0-0.7-0.2-1.3-0.7-1.8s-1.2-0.7-2.2-0.7
			c-0.9,0-1.5,0.2-2,0.6c-0.5,0.4-0.7,0.9-0.7,1.5c0,0.6,0.3,1,0.8,1.4c0.5,0.3,1.4,0.7,2.7,0.9s2.4,0.5,3.2,0.9
			c2.7,1,4.1,2.7,4.1,5.2c0,1.7-0.8,3.2-2.2,4.2c-1.5,1.1-3.4,1.6-5.8,1.6c-1.6,0-3-0.3-4.3-0.9s-2.2-1.4-2.9-2.4
			c-0.7-1-1.1-2.1-1.1-3.2h4.9c0,0.9,0.4,1.6,1,2.1c0.6,0.5,1.5,0.7,2.5,0.7c1,0,1.7-0.2,2.2-0.6C364.4,823,364.7,822.5,364.7,821.9
			z"/>
		<path d="M372.2,817.4c0-1.9,0.4-3.6,1.1-5.1c0.7-1.5,1.8-2.6,3.2-3.5c1.4-0.8,3-1.2,4.8-1.2c2.6,0,4.7,0.8,6.3,2.4
			c1.6,1.6,2.5,3.7,2.7,6.4l0,1.3c0,2.9-0.8,5.3-2.5,7.1c-1.6,1.8-3.8,2.7-6.6,2.7c-2.8,0-5-0.9-6.6-2.7s-2.5-4.2-2.5-7.2V817.4z
			 M377.3,817.8c0,1.8,0.3,3.2,1,4.2c0.7,1,1.7,1.4,2.9,1.4c1.2,0,2.2-0.5,2.9-1.4c0.7-1,1-2.5,1-4.6c0-1.8-0.3-3.2-1-4.2
			c-0.7-1-1.7-1.5-2.9-1.5c-1.3,0-2.2,0.5-2.9,1.5C377.6,814.2,377.3,815.7,377.3,817.8z"/>
		<path d="M398.2,808l0.2,2.2c1.4-1.7,3.2-2.6,5.5-2.6c2,0,3.5,0.6,4.5,1.8c1,1.2,1.5,3,1.5,5.3v12.4h-5.1v-12.3
			c0-1.1-0.2-1.9-0.7-2.4c-0.5-0.5-1.3-0.7-2.4-0.7c-1.4,0-2.5,0.6-3.2,1.8v13.5h-5.1V808H398.2z"/>
	</g>
	<g>
		<path d="M85.9,892.4l3.1-15.2h3.5l-4.7,20.2h-3.4l-3.8-14.7l-3.9,14.7h-3.4l-4.7-20.2h3.5l3.1,15.2l3.9-15.2h2.9L85.9,892.4z"/>
		<path d="M93.7,889.8c0-1.5,0.3-2.8,0.9-4s1.4-2.1,2.5-2.7c1.1-0.6,2.3-1,3.6-1c2,0,3.7,0.7,4.9,2c1.3,1.3,1.9,3,2,5.2l0,0.8
			c0,1.5-0.3,2.8-0.9,4c-0.6,1.2-1.4,2.1-2.4,2.7c-1.1,0.6-2.3,1-3.7,1c-2.1,0-3.8-0.7-5.1-2.1c-1.3-1.4-1.9-3.3-1.9-5.6V889.8z
			 M97,890.1c0,1.5,0.3,2.8,1,3.6c0.6,0.9,1.5,1.3,2.7,1.3c1.1,0,2-0.4,2.7-1.3s1-2.2,1-3.9c0-1.5-0.3-2.7-1-3.6
			c-0.7-0.9-1.5-1.3-2.7-1.3c-1.1,0-2,0.4-2.6,1.3C97.4,887,97,888.3,97,890.1z"/>
		<path d="M118.3,885.5c-0.4-0.1-0.9-0.1-1.4-0.1c-1.5,0-2.6,0.6-3.1,1.8v10.3h-3.4v-15h3.2l0.1,1.7c0.8-1.3,1.9-2,3.4-2
			c0.5,0,0.9,0.1,1.2,0.2L118.3,885.5z"/>
		<path d="M125.3,891l-1.5,1.5v4.9h-3.4v-21.3h3.4v12.3l1.1-1.3l4.1-4.7h4.1l-5.6,6.3l6.2,8.8h-3.9L125.3,891z"/>
		<path d="M141.6,897.7c-2.1,0-3.9-0.7-5.2-2c-1.3-1.3-2-3.1-2-5.4v-0.4c0-1.5,0.3-2.8,0.9-4c0.6-1.2,1.4-2.1,2.4-2.8
			c1-0.7,2.2-1,3.5-1c2,0,3.6,0.7,4.7,2c1.1,1.3,1.7,3.1,1.7,5.5v1.4h-9.8c0.1,1.2,0.5,2.2,1.2,2.9s1.6,1.1,2.7,1.1
			c1.5,0,2.8-0.6,3.8-1.9l1.8,1.7c-0.6,0.9-1.4,1.6-2.4,2.1C144,897.5,142.9,897.7,141.6,897.7z M141.2,884.9c-0.9,0-1.7,0.3-2.2,1
			s-0.9,1.5-1.1,2.7h6.4v-0.2c-0.1-1.1-0.4-2-0.9-2.6C142.9,885.1,142.1,884.9,141.2,884.9z"/>
		<path d="M149.6,889.8c0-2.3,0.5-4.2,1.6-5.6s2.5-2.1,4.3-2.1c1.6,0,2.9,0.6,3.9,1.7v-7.7h3.4v21.3h-3.1l-0.2-1.6
			c-1,1.2-2.4,1.8-4,1.8c-1.8,0-3.2-0.7-4.3-2.1C150.2,894.2,149.6,892.3,149.6,889.8z M153,890.1c0,1.5,0.3,2.7,0.9,3.6
			c0.6,0.9,1.4,1.3,2.5,1.3c1.4,0,2.4-0.6,3-1.8v-6.4c-0.6-1.2-1.6-1.8-3-1.8c-1.1,0-1.9,0.4-2.5,1.3S153,888.4,153,890.1z"/>
		<path d="M174.5,897.4v-12.5h-2.3v-2.5h2.3v-1.4c0-1.7,0.5-3,1.4-3.9s2.2-1.4,3.9-1.4c0.6,0,1.2,0.1,1.9,0.3l-0.1,2.6
			c-0.4-0.1-0.8-0.1-1.3-0.1c-1.6,0-2.4,0.8-2.4,2.5v1.3h3.1v2.5h-3.1v12.5H174.5z"/>
		<path d="M182.8,889.8c0-1.5,0.3-2.8,0.9-4s1.4-2.1,2.5-2.7c1.1-0.6,2.3-1,3.6-1c2,0,3.7,0.7,4.9,2c1.3,1.3,1.9,3,2,5.2l0,0.8
			c0,1.5-0.3,2.8-0.9,4c-0.6,1.2-1.4,2.1-2.4,2.7c-1.1,0.6-2.3,1-3.7,1c-2.1,0-3.8-0.7-5.1-2.1c-1.3-1.4-1.9-3.3-1.9-5.6V889.8z
			 M186.2,890.1c0,1.5,0.3,2.8,1,3.6c0.6,0.9,1.5,1.3,2.7,1.3c1.1,0,2-0.4,2.7-1.3s1-2.2,1-3.9c0-1.5-0.3-2.7-1-3.6
			c-0.7-0.9-1.5-1.3-2.7-1.3c-1.1,0-2,0.4-2.6,1.3C186.5,887,186.2,888.3,186.2,890.1z"/>
		<path d="M207.5,885.5c-0.4-0.1-0.9-0.1-1.4-0.1c-1.5,0-2.6,0.6-3.1,1.8v10.3h-3.4v-15h3.2l0.1,1.7c0.8-1.3,1.9-2,3.4-2
			c0.5,0,0.9,0.1,1.2,0.2L207.5,885.5z"/>
		<path d="M217.4,887.4l1.1-10.2h10.8v2.9h-8l-0.6,4.8c0.9-0.5,2-0.8,3.2-0.8c1.9,0,3.4,0.6,4.5,1.8c1.1,1.2,1.6,2.9,1.6,5
			c0,2.1-0.6,3.7-1.8,4.9c-1.2,1.2-2.8,1.8-4.9,1.8c-1.8,0-3.4-0.5-4.6-1.6c-1.2-1-1.9-2.4-2-4.2h3.3c0.1,1,0.5,1.7,1.1,2.3
			c0.6,0.5,1.3,0.8,2.2,0.8c1,0,1.8-0.4,2.4-1.1c0.6-0.7,0.9-1.7,0.9-3c0-1.2-0.3-2.2-1-2.9s-1.5-1.1-2.6-1.1
			c-0.6,0-1.1,0.1-1.6,0.2c-0.4,0.2-0.9,0.5-1.4,0.9L217.4,887.4z"/>
		<path d="M243.2,884.1c1.1-1.3,2.5-1.9,4.2-1.9c3.2,0,4.8,1.8,4.9,5.5v9.8h-3.4v-9.7c0-1-0.2-1.8-0.7-2.2c-0.4-0.4-1.1-0.6-2-0.6
			c-1.4,0-2.4,0.6-3,1.8v10.7h-3.4v-21.3h3.4V884.1z"/>
		<path d="M255,889.8c0-1.5,0.3-2.8,0.9-4s1.4-2.1,2.5-2.7c1.1-0.6,2.3-1,3.6-1c2,0,3.7,0.7,4.9,2c1.3,1.3,1.9,3,2,5.2l0,0.8
			c0,1.5-0.3,2.8-0.9,4c-0.6,1.2-1.4,2.1-2.4,2.7c-1.1,0.6-2.3,1-3.7,1c-2.1,0-3.8-0.7-5.1-2.1c-1.3-1.4-1.9-3.3-1.9-5.6V889.8z
			 M258.4,890.1c0,1.5,0.3,2.8,1,3.6c0.6,0.9,1.5,1.3,2.7,1.3c1.1,0,2-0.4,2.7-1.3s1-2.2,1-3.9c0-1.5-0.3-2.7-1-3.6
			c-0.7-0.9-1.5-1.3-2.7-1.3c-1.1,0-2,0.4-2.6,1.3C258.7,887,258.4,888.3,258.4,890.1z"/>
		<path d="M280.9,896c-1,1.2-2.4,1.7-4.2,1.7c-1.6,0-2.9-0.5-3.7-1.4c-0.8-1-1.3-2.3-1.3-4.1v-9.7h3.4v9.7c0,1.9,0.8,2.9,2.4,2.9
			c1.6,0,2.7-0.6,3.3-1.8v-10.8h3.4v15H281L280.9,896z"/>
		<path d="M295.5,885.5c-0.4-0.1-0.9-0.1-1.4-0.1c-1.5,0-2.6,0.6-3.1,1.8v10.3h-3.4v-15h3.2l0.1,1.7c0.8-1.3,1.9-2,3.4-2
			c0.5,0,0.9,0.1,1.2,0.2L295.5,885.5z"/>
		<path d="M306,893.4c0-0.6-0.2-1.1-0.7-1.4s-1.3-0.6-2.5-0.8c-1.1-0.2-2.1-0.5-2.9-0.9c-1.7-0.8-2.5-2-2.5-3.5
			c0-1.3,0.5-2.4,1.6-3.2c1.1-0.9,2.5-1.3,4.2-1.3c1.8,0,3.2,0.4,4.3,1.3c1.1,0.9,1.7,2,1.7,3.5h-3.4c0-0.6-0.2-1.2-0.7-1.6
			c-0.5-0.4-1.1-0.6-1.9-0.6c-0.7,0-1.3,0.2-1.8,0.5s-0.7,0.8-0.7,1.4c0,0.5,0.2,0.9,0.7,1.2c0.4,0.3,1.3,0.6,2.6,0.9
			c1.3,0.3,2.4,0.6,3.1,1s1.3,0.9,1.7,1.5c0.4,0.6,0.5,1.2,0.5,2.1c0,1.3-0.6,2.4-1.7,3.3c-1.1,0.8-2.6,1.3-4.4,1.3
			c-1.2,0-2.3-0.2-3.3-0.7c-1-0.4-1.7-1.1-2.2-1.8c-0.5-0.8-0.8-1.6-0.8-2.5h3.3c0,0.8,0.3,1.4,0.9,1.8c0.6,0.4,1.3,0.6,2.2,0.6
			c0.9,0,1.6-0.2,2-0.5C305.8,894.3,306,893.9,306,893.4z"/>
		<path d="M312.8,902l-1.8-1.1c0.5-0.8,0.9-1.6,1.1-2.2c0.2-0.6,0.3-1.3,0.3-1.9v-2.6h3l0,2.4c0,1-0.3,2-0.7,2.9
			C314.1,900.5,313.5,901.3,312.8,902z"/>
		<path d="M339,897.4h-13.6v-2.3l6.7-7.3c1-1.1,1.7-2,2.1-2.7s0.6-1.5,0.6-2.2c0-1-0.3-1.7-0.8-2.3s-1.3-0.9-2.2-0.9
			c-1.1,0-1.9,0.3-2.5,1s-0.9,1.6-0.9,2.7H325c0-1.2,0.3-2.3,0.8-3.3c0.6-1,1.4-1.8,2.4-2.3c1-0.5,2.2-0.8,3.6-0.8
			c2,0,3.5,0.5,4.6,1.5s1.7,2.3,1.7,4.1c0,1-0.3,2.1-0.9,3.2c-0.6,1.1-1.5,2.4-2.8,3.8l-4.9,5.3h9.4V897.4z"/>
		<path d="M352,882.4l0.1,1.6c1.1-1.2,2.5-1.8,4.3-1.8c2,0,3.4,0.8,4.1,2.3c1.1-1.5,2.6-2.3,4.6-2.3c1.7,0,2.9,0.5,3.7,1.4
			c0.8,0.9,1.2,2.3,1.2,4.1v9.9h-3.4v-9.8c0-1-0.2-1.7-0.6-2.1c-0.4-0.4-1.1-0.7-2.1-0.7c-0.8,0-1.4,0.2-1.9,0.6s-0.8,1-1,1.6
			l0,10.3h-3.4v-9.9c0-1.8-0.9-2.6-2.7-2.6c-1.4,0-2.3,0.5-2.9,1.7v10.9h-3.4v-15H352z"/>
		<path d="M373.5,878.5c0-0.5,0.2-1,0.5-1.3c0.3-0.3,0.8-0.5,1.4-0.5s1.1,0.2,1.4,0.5c0.3,0.3,0.5,0.8,0.5,1.3
			c0,0.5-0.2,0.9-0.5,1.3c-0.3,0.3-0.8,0.5-1.4,0.5s-1.1-0.2-1.4-0.5C373.7,879.5,373.5,879,373.5,878.5z M377.1,897.4h-3.4v-15h3.4
			V897.4z"/>
		<path d="M383.9,882.4l0.1,1.7c1.1-1.3,2.6-2,4.4-2c3.1,0,4.7,1.8,4.8,5.4v9.9h-3.4v-9.7c0-1-0.2-1.7-0.6-2.1s-1.1-0.7-2-0.7
			c-1.4,0-2.4,0.6-3,1.8v10.7h-3.4v-15H383.9z"/>
		<path d="M405.7,896c-1,1.2-2.4,1.7-4.2,1.7c-1.6,0-2.9-0.5-3.7-1.4c-0.8-1-1.3-2.3-1.3-4.1v-9.7h3.4v9.7c0,1.9,0.8,2.9,2.4,2.9
			c1.6,0,2.7-0.6,3.3-1.8v-10.8h3.4v15h-3.2L405.7,896z"/>
		<path d="M416.6,878.8v3.6h2.6v2.5h-2.6v8.4c0,0.6,0.1,1,0.3,1.2c0.2,0.3,0.6,0.4,1.2,0.4c0.4,0,0.8,0,1.2-0.1v2.6
			c-0.8,0.2-1.5,0.3-2.2,0.3c-2.6,0-3.9-1.4-3.9-4.3v-8.5h-2.5v-2.5h2.5v-3.6H416.6z"/>
		<path d="M428.4,897.7c-2.1,0-3.9-0.7-5.2-2c-1.3-1.3-2-3.1-2-5.4v-0.4c0-1.5,0.3-2.8,0.9-4c0.6-1.2,1.4-2.1,2.4-2.8
			c1-0.7,2.2-1,3.5-1c2,0,3.6,0.7,4.7,2c1.1,1.3,1.7,3.1,1.7,5.5v1.4h-9.8c0.1,1.2,0.5,2.2,1.2,2.9s1.6,1.1,2.7,1.1
			c1.5,0,2.8-0.6,3.8-1.9l1.8,1.7c-0.6,0.9-1.4,1.6-2.4,2.1C430.8,897.5,429.7,897.7,428.4,897.7z M428,884.9c-0.9,0-1.7,0.3-2.2,1
			s-0.9,1.5-1.1,2.7h6.4v-0.2c-0.1-1.1-0.4-2-0.9-2.6C429.7,885.1,429,884.9,428,884.9z"/>
		<path d="M445.5,893.4c0-0.6-0.2-1.1-0.7-1.4s-1.3-0.6-2.5-0.8c-1.1-0.2-2.1-0.5-2.9-0.9c-1.7-0.8-2.5-2-2.5-3.5
			c0-1.3,0.5-2.4,1.6-3.2c1.1-0.9,2.5-1.3,4.2-1.3c1.8,0,3.2,0.4,4.3,1.3c1.1,0.9,1.7,2,1.7,3.5h-3.4c0-0.6-0.2-1.2-0.7-1.6
			c-0.5-0.4-1.1-0.6-1.9-0.6c-0.7,0-1.3,0.2-1.8,0.5s-0.7,0.8-0.7,1.4c0,0.5,0.2,0.9,0.7,1.2c0.4,0.3,1.3,0.6,2.6,0.9
			c1.3,0.3,2.4,0.6,3.1,1s1.3,0.9,1.7,1.5c0.4,0.6,0.5,1.2,0.5,2.1c0,1.3-0.6,2.4-1.7,3.3c-1.1,0.8-2.6,1.3-4.4,1.3
			c-1.2,0-2.3-0.2-3.3-0.7c-1-0.4-1.7-1.1-2.2-1.8c-0.5-0.8-0.8-1.6-0.8-2.5h3.3c0,0.8,0.3,1.4,0.9,1.8c0.6,0.4,1.3,0.6,2.2,0.6
			c0.9,0,1.6-0.2,2-0.5C445.2,894.3,445.5,893.9,445.5,893.4z"/>
		<path d="M78.6,942.7h-3.4v-16.2l-5,1.7v-2.8l7.9-2.9h0.4V942.7z"/>
		<path d="M99.2,942.7H85.7v-2.3l6.7-7.3c1-1.1,1.7-2,2.1-2.7s0.6-1.5,0.6-2.2c0-1-0.3-1.7-0.8-2.3S93,925,92.1,925
			c-1.1,0-1.9,0.3-2.5,1s-0.9,1.6-0.9,2.7h-3.4c0-1.2,0.3-2.3,0.8-3.3c0.6-1,1.4-1.8,2.4-2.3c1-0.5,2.2-0.8,3.6-0.8
			c2,0,3.5,0.5,4.6,1.5s1.7,2.3,1.7,4.1c0,1-0.3,2.1-0.9,3.2c-0.6,1.1-1.5,2.4-2.8,3.8l-4.9,5.3h9.4V942.7z"/>
		<path d="M112.3,927.7l0.1,1.6c1.1-1.2,2.5-1.8,4.3-1.8c2,0,3.4,0.8,4.1,2.3c1.1-1.5,2.6-2.3,4.6-2.3c1.7,0,2.9,0.5,3.7,1.4
			c0.8,0.9,1.2,2.3,1.2,4.1v9.9H127V933c0-1-0.2-1.7-0.6-2.1c-0.4-0.4-1.1-0.7-2.1-0.7c-0.8,0-1.4,0.2-1.9,0.6s-0.8,1-1,1.6l0,10.3
			H118v-9.9c0-1.8-0.9-2.6-2.7-2.6c-1.4,0-2.3,0.5-2.9,1.7v10.9h-3.4v-15H112.3z"/>
		<path d="M133.8,923.8c0-0.5,0.2-1,0.5-1.3c0.3-0.3,0.8-0.5,1.4-0.5s1.1,0.2,1.4,0.5c0.3,0.3,0.5,0.8,0.5,1.3
			c0,0.5-0.2,0.9-0.5,1.3c-0.3,0.3-0.8,0.5-1.4,0.5s-1.1-0.2-1.4-0.5C134,924.8,133.8,924.3,133.8,923.8z M137.4,942.7H134v-15h3.4
			V942.7z"/>
		<path d="M144.2,927.7l0.1,1.7c1.1-1.3,2.6-2,4.4-2c3.1,0,4.7,1.8,4.8,5.4v9.9h-3.4V933c0-1-0.2-1.7-0.6-2.1s-1.1-0.7-2-0.7
			c-1.4,0-2.4,0.6-3,1.8v10.7H141v-15H144.2z"/>
		<path d="M166,941.3c-1,1.2-2.4,1.7-4.2,1.7c-1.6,0-2.9-0.5-3.7-1.4c-0.8-1-1.3-2.3-1.3-4.1v-9.7h3.4v9.7c0,1.9,0.8,2.9,2.4,2.9
			c1.6,0,2.7-0.6,3.3-1.8v-10.8h3.4v15H166L166,941.3z"/>
		<path d="M176.9,924.1v3.6h2.6v2.5h-2.6v8.4c0,0.6,0.1,1,0.3,1.2c0.2,0.3,0.6,0.4,1.2,0.4c0.4,0,0.8,0,1.2-0.1v2.6
			c-0.8,0.2-1.5,0.3-2.2,0.3c-2.6,0-3.9-1.4-3.9-4.3v-8.5H171v-2.5h2.5v-3.6H176.9z"/>
		<path d="M188.7,943c-2.1,0-3.9-0.7-5.2-2c-1.3-1.3-2-3.1-2-5.4v-0.4c0-1.5,0.3-2.8,0.9-4c0.6-1.2,1.4-2.1,2.4-2.8
			c1-0.7,2.2-1,3.5-1c2,0,3.6,0.7,4.7,2c1.1,1.3,1.7,3.1,1.7,5.5v1.4h-9.8c0.1,1.2,0.5,2.2,1.2,2.9s1.6,1.1,2.7,1.1
			c1.5,0,2.8-0.6,3.8-1.9l1.8,1.7c-0.6,0.9-1.4,1.6-2.4,2.1C191.1,942.8,190,943,188.7,943z M188.3,930.2c-0.9,0-1.7,0.3-2.2,1
			s-0.9,1.5-1.1,2.7h6.4v-0.2c-0.1-1.1-0.4-2-0.9-2.6C190,930.4,189.2,930.2,188.3,930.2z"/>
		<path d="M217.6,935.4c0,2.3-0.5,4.2-1.6,5.6c-1,1.4-2.5,2.1-4.3,2.1c-1.8,0-3.1-0.6-4.1-1.9l-0.2,1.6h-3.1v-21.3h3.4v7.7
			c1-1.1,2.3-1.7,3.9-1.7c1.8,0,3.3,0.7,4.3,2s1.6,3.3,1.6,5.7V935.4z M214.2,935.1c0-1.6-0.3-2.8-0.9-3.7c-0.6-0.8-1.4-1.2-2.5-1.2
			c-1.5,0-2.5,0.6-3.1,1.9v6.2c0.6,1.3,1.6,2,3.1,2c1.1,0,1.9-0.4,2.4-1.2c0.6-0.8,0.9-2,0.9-3.6V935.1z"/>
		<path d="M228.3,930.8c-0.4-0.1-0.9-0.1-1.4-0.1c-1.5,0-2.6,0.6-3.1,1.8v10.3h-3.4v-15h3.2l0.1,1.7c0.8-1.3,1.9-2,3.4-2
			c0.5,0,0.9,0.1,1.2,0.2L228.3,930.8z"/>
		<path d="M236.7,943c-2.1,0-3.9-0.7-5.2-2c-1.3-1.3-2-3.1-2-5.4v-0.4c0-1.5,0.3-2.8,0.9-4c0.6-1.2,1.4-2.1,2.4-2.8
			c1-0.7,2.2-1,3.5-1c2,0,3.6,0.7,4.7,2c1.1,1.3,1.7,3.1,1.7,5.5v1.4H233c0.1,1.2,0.5,2.2,1.2,2.9s1.6,1.1,2.7,1.1
			c1.5,0,2.8-0.6,3.8-1.9l1.8,1.7c-0.6,0.9-1.4,1.6-2.4,2.1C239.1,942.8,238,943,236.7,943z M236.3,930.2c-0.9,0-1.7,0.3-2.2,1
			s-0.9,1.5-1.1,2.7h6.4v-0.2c-0.1-1.1-0.4-2-0.9-2.6C238,930.4,237.3,930.2,236.3,930.2z"/>
		<path d="M254.4,942.7c-0.1-0.3-0.3-0.8-0.4-1.4c-1.1,1.1-2.4,1.7-3.9,1.7c-1.5,0-2.7-0.4-3.7-1.3c-1-0.9-1.4-1.9-1.4-3.2
			c0-1.6,0.6-2.8,1.8-3.7c1.2-0.9,2.9-1.3,5.1-1.3h2.1v-1c0-0.8-0.2-1.4-0.7-1.9c-0.4-0.5-1.1-0.7-2-0.7c-0.8,0-1.4,0.2-1.9,0.6
			c-0.5,0.4-0.7,0.9-0.7,1.5h-3.4c0-0.8,0.3-1.6,0.8-2.3c0.5-0.7,1.3-1.3,2.2-1.7c0.9-0.4,2-0.6,3.1-0.6c1.8,0,3.2,0.4,4.2,1.3
			c1,0.9,1.6,2.1,1.6,3.7v6.8c0,1.3,0.2,2.4,0.6,3.2v0.2H254.4z M250.6,940.3c0.7,0,1.3-0.2,1.9-0.5c0.6-0.3,1-0.8,1.3-1.3v-2.8H252
			c-1.2,0-2.2,0.2-2.8,0.7c-0.6,0.4-0.9,1-0.9,1.8c0,0.6,0.2,1.2,0.6,1.5C249.4,940.1,249.9,940.3,250.6,940.3z"/>
		<path d="M265.6,936.3l-1.5,1.5v4.9h-3.4v-21.3h3.4v12.3l1.1-1.3l4.1-4.7h4.1l-5.6,6.3l6.2,8.8h-3.9L265.6,936.3z"/>
	</g>
</g>
<g class="st1">
	<path d="M585.5,817.4c0-0.8-0.2-1.4-0.6-1.8c-0.4-0.4-1.1-0.9-2.1-1.2c-1-0.4-1.9-0.8-2.6-1.1c-0.7-0.4-1.4-0.8-1.9-1.3
		c-0.5-0.5-0.9-1.1-1.2-1.7c-0.3-0.7-0.4-1.4-0.4-2.3c0-1.6,0.5-2.8,1.5-3.8c1-1,2.3-1.6,4-1.7v-3h2.2v3c1.6,0.2,2.9,0.9,3.8,2
		s1.4,2.6,1.4,4.4h-4c0-1.1-0.2-1.9-0.7-2.5c-0.5-0.5-1.1-0.8-1.8-0.8c-0.8,0-1.3,0.2-1.8,0.6c-0.4,0.4-0.6,1-0.6,1.8
		c0,0.7,0.2,1.3,0.6,1.7c0.4,0.4,1.2,0.9,2.3,1.3c1.1,0.4,2,0.9,2.7,1.3c0.7,0.4,1.3,0.8,1.8,1.3c0.5,0.5,0.9,1.1,1.1,1.7
		c0.3,0.6,0.4,1.4,0.4,2.2c0,1.6-0.5,2.8-1.5,3.8c-1,1-2.3,1.6-4.1,1.7v2.8h-2.2V823c-1.9-0.2-3.4-0.9-4.4-2s-1.6-2.7-1.6-4.6h4
		c0,1.1,0.3,1.9,0.8,2.5c0.5,0.6,1.3,0.9,2.3,0.9c0.8,0,1.5-0.2,1.9-0.6C585.3,818.7,585.5,818.2,585.5,817.4z"/>
	<path d="M592.8,812.8l1.2-10.3h11.3v3.3h-8l-0.5,4.3c1-0.5,2-0.8,3-0.8c1.9,0,3.4,0.6,4.5,1.8c1.1,1.2,1.6,2.9,1.6,5
		c0,1.3-0.3,2.5-0.8,3.5c-0.6,1-1.3,1.8-2.4,2.4c-1,0.6-2.2,0.9-3.6,0.9c-1.2,0-2.4-0.2-3.4-0.7c-1-0.5-1.9-1.2-2.5-2.1
		c-0.6-0.9-0.9-1.9-1-3.1h4c0.1,0.8,0.4,1.5,0.9,2s1.2,0.7,2,0.7c0.9,0,1.6-0.3,2.1-1c0.5-0.7,0.7-1.6,0.7-2.8c0-1.1-0.3-2-0.8-2.6
		s-1.4-0.9-2.4-0.9c-1,0-1.7,0.2-2.3,0.7l-0.4,0.4L592.8,812.8z"/>
	<path d="M622.1,814.4c0,2.8-0.6,4.9-1.7,6.4c-1.2,1.5-2.8,2.2-5.1,2.2c-2.2,0-3.9-0.7-5-2.2c-1.2-1.5-1.8-3.5-1.8-6.2v-3.7
		c0-2.8,0.6-5,1.8-6.4c1.2-1.5,2.9-2.2,5.1-2.2s3.9,0.7,5,2.2c1.2,1.4,1.8,3.5,1.8,6.2V814.4z M618.1,810.3c0-1.7-0.2-2.9-0.7-3.7
		c-0.5-0.8-1.2-1.1-2.1-1.1c-0.9,0-1.6,0.4-2.1,1.1c-0.4,0.7-0.7,1.9-0.7,3.4v4.9c0,1.6,0.2,2.9,0.7,3.7s1.2,1.2,2.2,1.2
		c1,0,1.7-0.4,2.1-1.2c0.4-0.8,0.7-1.9,0.7-3.5V810.3z"/>
	<path d="M625.2,820.8c0-0.6,0.2-1.2,0.6-1.6c0.4-0.4,1-0.6,1.6-0.6c0.7,0,1.2,0.2,1.6,0.6c0.4,0.4,0.6,0.9,0.6,1.6
		c0,0.6-0.2,1.1-0.6,1.5c-0.4,0.4-1,0.6-1.6,0.6c-0.7,0-1.2-0.2-1.6-0.6C625.4,821.9,625.2,821.4,625.2,820.8z"/>
	<path d="M637.2,810.9h2.1c1,0,1.8-0.3,2.3-0.8c0.5-0.5,0.7-1.2,0.7-2c0-0.8-0.2-1.4-0.7-1.9c-0.5-0.5-1.2-0.7-2-0.7
		c-0.8,0-1.4,0.2-1.9,0.6c-0.5,0.4-0.8,1-0.8,1.6h-4c0-1.1,0.3-2,0.9-2.8s1.4-1.5,2.4-2s2.1-0.7,3.4-0.7c2.1,0,3.8,0.5,5,1.5
		c1.2,1,1.8,2.4,1.8,4.2c0,0.9-0.3,1.8-0.8,2.6s-1.3,1.4-2.2,1.8c1.1,0.4,2,1,2.5,1.8c0.6,0.8,0.8,1.8,0.8,2.9c0,1.8-0.7,3.2-2,4.3
		s-3,1.6-5.2,1.6c-2,0-3.7-0.5-4.9-1.6c-1.3-1.1-1.9-2.5-1.9-4.2h4c0,0.8,0.3,1.4,0.9,1.9c0.6,0.5,1.3,0.7,2.1,0.7
		c1,0,1.7-0.3,2.2-0.8c0.5-0.5,0.8-1.2,0.8-2c0-2-1.1-3-3.3-3h-2.1V810.9z"/>
	<path d="M653.5,810.9h2.1c1,0,1.8-0.3,2.3-0.8c0.5-0.5,0.7-1.2,0.7-2c0-0.8-0.2-1.4-0.7-1.9c-0.5-0.5-1.2-0.7-2-0.7
		c-0.8,0-1.4,0.2-1.9,0.6c-0.5,0.4-0.8,1-0.8,1.6h-4c0-1.1,0.3-2,0.9-2.8c0.6-0.8,1.4-1.5,2.4-2c1-0.5,2.1-0.7,3.4-0.7
		c2.1,0,3.8,0.5,5,1.5c1.2,1,1.8,2.4,1.8,4.2c0,0.9-0.3,1.8-0.8,2.6s-1.3,1.4-2.2,1.8c1.1,0.4,2,1,2.5,1.8c0.6,0.8,0.8,1.8,0.8,2.9
		c0,1.8-0.7,3.2-2,4.3s-3,1.6-5.2,1.6c-2,0-3.7-0.5-4.9-1.6c-1.3-1.1-1.9-2.5-1.9-4.2h4c0,0.8,0.3,1.4,0.9,1.9
		c0.6,0.5,1.3,0.7,2.1,0.7c1,0,1.7-0.3,2.2-0.8c0.5-0.5,0.8-1.2,0.8-2c0-2-1.1-3-3.3-3h-2.1V810.9z"/>
	<path d="M703.7,814.3c-1.1,1.2-2.4,1.8-4,1.8c-1.8,0-3.2-0.6-4.2-1.9c-1.1-1.2-1.6-2.9-1.6-4.9c0-1.3,0.3-2.5,0.8-3.6
		s1.3-1.9,2.3-2.5c1-0.6,2.1-0.9,3.4-0.9c2,0,3.6,0.8,4.8,2.3c1.2,1.5,1.8,3.5,1.8,6.1v0.9c0,3.6-0.8,6.4-2.5,8.3
		c-1.6,1.9-4.1,2.9-7.4,2.9h-0.4V820h0.5c2,0,3.5-0.5,4.6-1.4C703,817.7,703.6,816.2,703.7,814.3z M700.4,813.4
		c0.7,0,1.3-0.2,1.9-0.6c0.6-0.4,1-0.9,1.4-1.6v-1.3c0-1.5-0.3-2.7-0.9-3.6c-0.6-0.9-1.4-1.4-2.4-1.4c-1,0-1.7,0.4-2.3,1.2
		c-0.6,0.8-0.9,1.8-0.9,3c0,1.3,0.3,2.3,0.9,3.1C698.7,813.1,699.5,813.4,700.4,813.4z"/>
	<path d="M712.5,807.4c0.6,0,1.1,0.2,1.5,0.5c0.3,0.4,0.5,0.8,0.5,1.3c0,0.5-0.2,1-0.5,1.3c-0.3,0.3-0.8,0.5-1.5,0.5
		c-0.6,0-1.1-0.2-1.4-0.5s-0.5-0.8-0.5-1.3c0-0.5,0.2-1,0.5-1.3C711.4,807.6,711.9,807.4,712.5,807.4z M712.5,819.2
		c0.6,0,1.1,0.2,1.5,0.5c0.3,0.4,0.5,0.8,0.5,1.3c0,0.5-0.2,1-0.5,1.3c-0.3,0.3-0.8,0.5-1.5,0.5c-0.6,0-1.1-0.2-1.4-0.5
		s-0.5-0.8-0.5-1.3c0-0.5,0.2-1,0.5-1.3C711.4,819.4,711.9,819.2,712.5,819.2z"/>
	<path d="M731,814.2c0,2.9-0.5,5.1-1.6,6.6c-1.1,1.5-2.7,2.2-5,2.2c-2.2,0-3.8-0.7-4.9-2.2c-1.1-1.4-1.7-3.6-1.7-6.4V811
		c0-2.9,0.5-5.1,1.6-6.5c1.1-1.5,2.7-2.2,5-2.2c2.2,0,3.9,0.7,4.9,2.1c1.1,1.4,1.6,3.5,1.7,6.4V814.2z M727.6,810.5
		c0-1.9-0.3-3.3-0.8-4.2c-0.5-0.9-1.3-1.3-2.5-1.3c-1.1,0-1.9,0.4-2.4,1.3s-0.8,2.1-0.8,3.9v4.6c0,1.9,0.3,3.3,0.8,4.2
		s1.4,1.4,2.5,1.4c1.1,0,1.9-0.4,2.4-1.3s0.8-2.2,0.8-4V810.5z"/>
	<path d="M743.1,822.7h-3.4v-16.2l-5,1.7v-2.8l7.9-2.9h0.4V822.7z"/>
	<path d="M769,818h-7.8l-1.6,4.7h-3.6l7.6-20.2h3.1l7.6,20.2h-3.7L769,818z M762.2,815.2h5.9l-2.9-8.4L762.2,815.2z"/>
	<path d="M781.2,802.5L787,818l5.8-15.5h4.5v20.2h-3.5v-6.7l0.3-8.9l-6,15.6h-2.5l-6-15.6l0.3,8.9v6.7h-3.5v-20.2H781.2z"/>
	<path d="M814.8,815.5h-7.3v-2.7h7.3V815.5z"/>
	<path d="M838,822.7h-13.6v-2.3l6.7-7.3c1-1.1,1.7-2,2.1-2.7c0.4-0.7,0.6-1.5,0.6-2.2c0-1-0.3-1.7-0.8-2.3s-1.3-0.9-2.2-0.9
		c-1.1,0-1.9,0.3-2.5,1c-0.6,0.7-0.9,1.6-0.9,2.7H824c0-1.2,0.3-2.3,0.8-3.3c0.6-1,1.4-1.8,2.4-2.3c1-0.5,2.2-0.8,3.6-0.8
		c2,0,3.5,0.5,4.6,1.5c1.1,1,1.7,2.3,1.7,4.1c0,1-0.3,2.1-0.9,3.2c-0.6,1.1-1.5,2.4-2.8,3.8l-4.9,5.3h9.4V822.7z"/>
	<path d="M842.8,807.4c0.6,0,1.1,0.2,1.5,0.5c0.3,0.4,0.5,0.8,0.5,1.3c0,0.5-0.2,1-0.5,1.3c-0.3,0.3-0.8,0.5-1.5,0.5
		c-0.6,0-1.1-0.2-1.4-0.5s-0.5-0.8-0.5-1.3c0-0.5,0.2-1,0.5-1.3C841.7,807.6,842.2,807.4,842.8,807.4z M842.8,819.2
		c0.6,0,1.1,0.2,1.5,0.5c0.3,0.4,0.5,0.8,0.5,1.3c0,0.5-0.2,1-0.5,1.3c-0.3,0.3-0.8,0.5-1.5,0.5c-0.6,0-1.1-0.2-1.4-0.5
		s-0.5-0.8-0.5-1.3c0-0.5,0.2-1,0.5-1.3C841.7,819.4,842.2,819.2,842.8,819.2z"/>
	<path d="M861.3,814.2c0,2.9-0.5,5.1-1.6,6.6c-1.1,1.5-2.7,2.2-5,2.2c-2.2,0-3.8-0.7-4.9-2.2c-1.1-1.4-1.7-3.6-1.7-6.4V811
		c0-2.9,0.5-5.1,1.6-6.5c1.1-1.5,2.7-2.2,5-2.2c2.2,0,3.9,0.7,4.9,2.1c1.1,1.4,1.6,3.5,1.7,6.4V814.2z M857.9,810.5
		c0-1.9-0.3-3.3-0.8-4.2c-0.5-0.9-1.3-1.3-2.5-1.3c-1.1,0-1.9,0.4-2.4,1.3s-0.8,2.1-0.8,3.9v4.6c0,1.9,0.3,3.3,0.8,4.2
		s1.4,1.4,2.5,1.4c1.1,0,1.9-0.4,2.4-1.3s0.8-2.2,0.8-4V810.5z"/>
	<path d="M868.2,811.1h2.1c1,0,1.9-0.3,2.5-0.8c0.6-0.5,0.9-1.3,0.9-2.3c0-1-0.3-1.7-0.8-2.2s-1.3-0.8-2.3-0.8
		c-0.9,0-1.7,0.3-2.2,0.8c-0.6,0.5-0.9,1.2-0.9,2H864c0-1,0.3-2,0.8-2.8c0.6-0.9,1.3-1.5,2.3-2c1-0.5,2.1-0.7,3.3-0.7
		c2,0,3.6,0.5,4.8,1.5s1.7,2.4,1.7,4.2c0,0.9-0.3,1.8-0.9,2.6c-0.6,0.8-1.3,1.4-2.2,1.8c1.1,0.4,2,1,2.5,1.8
		c0.6,0.8,0.9,1.8,0.9,2.9c0,1.8-0.6,3.3-1.9,4.3c-1.2,1.1-2.9,1.6-4.9,1.6c-1.9,0-3.5-0.5-4.8-1.6c-1.2-1-1.9-2.4-1.9-4.1h3.4
		c0,0.9,0.3,1.6,0.9,2.2s1.4,0.8,2.4,0.8c1,0,1.9-0.3,2.5-0.8c0.6-0.6,0.9-1.4,0.9-2.4c0-1.1-0.3-1.9-0.9-2.5s-1.6-0.9-2.8-0.9h-2
		V811.1z"/>
	<path d="M891.5,815.2v7.5H888v-20.2h7.7c2.3,0,4,0.6,5.4,1.8s2,2.7,2,4.7c0,2-0.6,3.5-1.9,4.6c-1.3,1.1-3.1,1.7-5.5,1.7H891.5z
		 M891.5,812.4h4.2c1.2,0,2.2-0.3,2.9-0.9c0.7-0.6,1-1.4,1-2.5c0-1.1-0.3-2-1-2.6c-0.7-0.7-1.6-1-2.7-1h-4.3V812.4z"/>
	<path d="M910.7,802.5l5.8,15.5l5.8-15.5h4.5v20.2h-3.5v-6.7l0.3-8.9l-6,15.6h-2.5l-6-15.6l0.3,8.9v6.7h-3.5v-20.2H910.7z"/>
</g>
<path class="st2" d="M898,1016.1l-1.6-1.6l-6.2,6.2l-6.2-6.2l-1.6,1.6l6.2,6.2l-6.2,6.2l1.6,1.6l6.2-6.2l6.2,6.2l1.6-1.6l-6.2-6.2
	L898,1016.1z"/>
<g class="st1">
	<path class="st2" d="M909.2,1032v-18.5h5.5c1.6,0,3.1,0.4,4.4,1.1c1.3,0.7,2.2,1.8,2.9,3.1c0.7,1.3,1,2.9,1,4.6v0.9
		c0,1.8-0.3,3.3-1,4.6c-0.7,1.3-1.7,2.4-3,3.1c-1.3,0.7-2.8,1.1-4.4,1.1H909.2z M912.4,1016.1v13.3h2.1c1.7,0,3-0.5,3.9-1.6
		s1.4-2.6,1.4-4.5v-1c0-2-0.4-3.5-1.3-4.6c-0.9-1.1-2.1-1.6-3.8-1.6H912.4z"/>
	<path class="st2" d="M937,1023.8h-7.6v5.7h8.9v2.6h-12.1v-18.5h12v2.6h-8.8v5.1h7.6V1023.8z"/>
	<path class="st2" d="M955.6,1032h-3.2l-8.2-13.1v13.1h-3.2v-18.5h3.2l8.3,13.2v-13.2h3.2V1032z"/>
	<path class="st2" d="M965.1,1022.3l4.3-8.8h3.6l-6.2,11.7v6.8h-3.2v-6.8l-6.2-11.7h3.6L965.1,1022.3z"/>
</g>
<path class="st3" d="M727,1016.7l-13.1,13.1l-6-6l1.5-1.5l4.5,4.5l11.6-11.5L727,1016.7z"/>
<g class="st1">
	<path class="st3" d="M747.1,1027.7H740l-1.5,4.3h-3.3l7-18.5h2.9l7,18.5h-3.4L747.1,1027.7z M740.9,1025.1h5.4l-2.7-7.7
		L740.9,1025.1z"/>
	<path class="st3" d="M757.3,1025.2v6.9h-3.2v-18.5h7.1c2.1,0,3.7,0.5,4.9,1.6c1.2,1.1,1.8,2.5,1.8,4.3c0,1.8-0.6,3.2-1.8,4.2
		c-1.2,1-2.9,1.5-5,1.5H757.3z M757.3,1022.6h3.9c1.1,0,2-0.3,2.6-0.8s0.9-1.3,0.9-2.3c0-1-0.3-1.8-0.9-2.4s-1.4-0.9-2.5-0.9h-4
		V1022.6z"/>
	<path class="st3" d="M774,1025.2v6.9h-3.2v-18.5h7.1c2.1,0,3.7,0.5,4.9,1.6c1.2,1.1,1.8,2.5,1.8,4.3c0,1.8-0.6,3.2-1.8,4.2
		c-1.2,1-2.9,1.5-5,1.5H774z M774,1022.6h3.9c1.1,0,2-0.3,2.6-0.8s0.9-1.3,0.9-2.3c0-1-0.3-1.8-0.9-2.4s-1.4-0.9-2.5-0.9h-4V1022.6z
		"/>
	<path class="st3" d="M794.2,1024.9h-3.6v7.1h-3.2v-18.5h6.5c2.1,0,3.8,0.5,4.9,1.4s1.7,2.3,1.7,4.2c0,1.2-0.3,2.3-0.9,3.1
		c-0.6,0.8-1.4,1.5-2.5,1.9l4.2,7.7v0.2h-3.4L794.2,1024.9z M790.6,1022.3h3.3c1.1,0,1.9-0.3,2.5-0.8c0.6-0.5,0.9-1.3,0.9-2.2
		c0-1-0.3-1.8-0.8-2.3c-0.6-0.5-1.4-0.8-2.5-0.8h-3.4V1022.3z"/>
	<path class="st3" d="M818.4,1023.3c0,1.8-0.3,3.4-0.9,4.8c-0.6,1.4-1.5,2.4-2.7,3.2c-1.2,0.7-2.5,1.1-4,1.1c-1.5,0-2.8-0.4-4-1.1
		c-1.2-0.7-2.1-1.8-2.7-3.1c-0.6-1.4-1-2.9-1-4.7v-1c0-1.8,0.3-3.4,1-4.8c0.6-1.4,1.5-2.4,2.7-3.2c1.2-0.7,2.5-1.1,4-1.1
		c1.5,0,2.8,0.4,4,1.1c1.2,0.7,2.1,1.8,2.7,3.1c0.6,1.4,1,2.9,1,4.7V1023.3z M815.2,1022.3c0-2.1-0.4-3.6-1.2-4.7
		c-0.8-1.1-1.9-1.6-3.3-1.6c-1.4,0-2.5,0.5-3.3,1.6s-1.2,2.6-1.2,4.6v1.1c0,2,0.4,3.6,1.2,4.7c0.8,1.1,1.9,1.7,3.3,1.7
		c1.4,0,2.5-0.5,3.3-1.6c0.8-1.1,1.2-2.7,1.2-4.8V1022.3z"/>
	<path class="st3" d="M827.8,1028l4.7-14.5h3.5l-6.7,18.5h-3.1l-6.6-18.5h3.5L827.8,1028z"/>
	<path class="st3" d="M849,1023.8h-7.6v5.7h8.9v2.6h-12.1v-18.5h12v2.6h-8.8v5.1h7.6V1023.8z"/>
</g>
<g>
	<path d="M970.9,818l-6.4-6.4l-6.4,6.4l-2-2l8.4-8.4l8.4,8.4L970.9,818z"/>
</g>
</svg>
