<?xml version="1.0" encoding="utf-8"?>
<!-- Generator: Adobe Illustrator 22.0.0, SVG Export Plug-In . SVG Version: 6.00 Build 0)  -->
<svg version="1.1" id="Layer_1" xmlns="http://www.w3.org/2000/svg" xmlns:xlink="http://www.w3.org/1999/xlink" x="0px" y="0px"
	 viewBox="0 0 8208.4 3540.8" style="enable-background:new 0 0 8208.4 3540.8;" xml:space="preserve">
<style type="text/css">
	.st0{opacity:0.11;}
	.st1{fill:#FFFFFF;}
	.st2{opacity:0.8;}
	.st3{fill:none;stroke:#000000;stroke-width:30;stroke-miterlimit:10;}
	.st4{fill:#F4F4F4;}
	.st5{fill:#E57373;}
	.st6{fill:#4DD0E1;}
	.st7{fill:#FFD54F;}
</style>
<path class="st0" d="M2908.9,978.2c-367.2,0-664.6,153.6-664.6,343.2s297.4,343.2,664.6,343.2s664.6-153.6,664.6-343.2
	S3276.1,978.2,2908.9,978.2 M2244.3,1492.9v257.4c0,189.6,297.4,343.2,664.6,343.2s664.6-153.6,664.6-343.2v-257.4
	c0,189.6-297.4,343.2-664.6,343.2S2244.3,1682.5,2244.3,1492.9 M2244.3,1921.9v257.4c0,189.6,297.4,343.2,664.6,343.2
	s664.6-153.6,664.6-343.2v-257.4c0,189.6-297.4,343.2-664.6,343.2S2244.3,2111.5,2244.3,1921.9z"/>
<g>
	<path class="st1" d="M1738.9,2909.5H399.8c-31.9,0-58-26.1-58-58v-1991c0-31.9,26.1-58,58-58h1339.1c31.9,0,58,26.1,58,58v1991
		C1796.9,2883.4,1770.8,2909.5,1738.9,2909.5z"/>
	<g class="st2">
		<path d="M623.1,985.7c22.8,0,41.3,18.5,41.3,41.3c0,22.8-18.5,41.3-41.3,41.3c-22.8,0-41.3-18.5-41.3-41.3
			C581.7,1004.2,600.3,985.7,623.1,985.7 M623.1,1089.1c45.7,0,82.7,18.5,82.7,41.3v20.7H540.4v-20.7
			C540.4,1107.6,577.4,1089.1,623.1,1089.1z"/>
		<path class="st3" d="M789.9,1085.8c0,0,19.1-27.8,54.7-10.5s51.2,17.3,69.6,5.9s27.5,18.3,53.9,11.3c26.4-7,22.7-25.9,57.2-14
			c34.5,11.9,47.5,10.2,60.4,3.2c12.9-7,28.6-1.1,53.9,11.9c25.3,12.9,38.8-23.7,52.3-25.9s13.5,17.8,32.9,28.6s48.5-30.7,69.6-24.3
			c21,6.5,43.7,35.1,70.7,25.9c27-9.2,36.1-30.2,62-23.2c25.9,7,29.7,23.2,49.6,20.5c20-2.7,17.3-20,42.1-18.3
			c24.8,1.6,38.8,10.2,59.6,8.9"/>
		<path d="M623.1,1300.7c22.8,0,41.3,18.5,41.3,41.3s-18.5,41.3-41.3,41.3c-22.8,0-41.3-18.5-41.3-41.3S600.3,1300.7,623.1,1300.7
			 M623.1,1404.1c45.7,0,82.7,18.5,82.7,41.3v20.7H540.4v-20.7C540.4,1422.6,577.4,1404.1,623.1,1404.1z"/>
		<path d="M623.1,1615.7c22.8,0,41.3,18.5,41.3,41.3s-18.5,41.3-41.3,41.3c-22.8,0-41.3-18.5-41.3-41.3S600.3,1615.7,623.1,1615.7
			 M623.1,1719c45.7,0,82.7,18.5,82.7,41.3v20.7H540.4v-20.7C540.4,1737.5,577.4,1719,623.1,1719z"/>
		<path class="st3" d="M789.9,1710.6c0,0,8.9,14,40.7,9.7c31.8-4.3,35.1-32.4,86.3-4.3c51.2,28,64.2-37.8,112.2-21.6
			c48,16.2,48.5,32.4,89,9.2c40.5-23.2,41,25.3,91.7,19.4c50.7-5.9,57.7-40.5,119.7-18.9s62,5.9,82-8.6c20-14.6,23.2,29.7,60.9,24.3
			c37.8-5.4,46.9-27,62-15.6c15.1,11.3,44,6.5,44,6.5"/>
		<path class="st3" d="M789.9,1400.5c0,0,15.9-22.7,60.1-2.7c44.2,20,65.3,8.1,83.6-2.7s38.3-10.2,59.9,11.9
			c21.6,22.1,60.4-34.5,87.4-21c27,13.5,44.2,35.1,83.6,30.2c39.4-4.9,59.9-37.8,83.6-20s37.8,14,54.5,9.2
			c16.7-4.9,28.6-25.9,46.9-9.7c18.3,16.2,34.5,30.7,65.3,17.8c30.7-12.9,35.1-48.5,59.9-29.7c24.8,18.9,27.5,36.1,65.8,26.4
			c38.3-9.7,30.2-9.2,38-9.7"/>
		<path d="M623.1,1930.7c22.8,0,41.3,18.5,41.3,41.3s-18.5,41.3-41.3,41.3c-22.8,0-41.3-18.5-41.3-41.3S600.3,1930.7,623.1,1930.7
			 M623.1,2034c45.7,0,82.7,18.5,82.7,41.3v20.7H540.4v-20.7C540.4,2052.5,577.4,2034,623.1,2034z"/>
		<path class="st3" d="M1578.5,2030.7c0,0-19.1-27.8-54.7-10.5c-35.6,17.3-51.2,17.3-69.6,5.9s-27.5,18.3-53.9,11.3
			c-26.4-7-22.7-25.9-57.2-14c-34.5,11.9-47.5,10.2-60.4,3.2c-12.9-7-28.6-1.1-53.9,11.9s-38.8-23.7-52.3-25.9s-13.5,17.8-32.9,28.6
			s-48.5-30.7-69.6-24.3c-21,6.5-43.7,35.1-70.7,25.9c-27-9.2-36.1-30.2-62-23.2c-25.9,7-29.7,23.2-49.6,20.5
			c-20-2.7-17.3-20-42.1-18.3c-24.8,1.6-38.8,10.2-59.6,8.9"/>
		<path d="M623.1,2245.6c22.8,0,41.3,18.5,41.3,41.3c0,22.8-18.5,41.3-41.3,41.3c-22.8,0-41.3-18.5-41.3-41.3
			C581.7,2264.2,600.3,2245.6,623.1,2245.6 M623.1,2349c45.7,0,82.7,18.5,82.7,41.3v20.7H540.4v-20.7
			C540.4,2367.5,577.4,2349,623.1,2349z"/>
		<path d="M623.1,2560.6c22.8,0,41.3,18.5,41.3,41.3c0,22.8-18.5,41.3-41.3,41.3c-22.8,0-41.3-18.5-41.3-41.3
			C581.7,2579.1,600.3,2560.6,623.1,2560.6 M623.1,2664c45.7,0,82.7,18.5,82.7,41.3v20.7H540.4v-20.7
			C540.4,2682.5,577.4,2664,623.1,2664z"/>
		<path class="st3" d="M1578.5,2655.6c0,0-8.9,14-40.7,9.7s-35.1-32.4-86.3-4.3c-51.2,28-64.2-37.8-112.2-21.6
			c-48,16.2-48.5,32.4-89,9.2c-40.5-23.2-41,25.3-91.7,19.4s-57.7-40.5-119.7-18.9s-62,5.9-82-8.6s-23.2,29.7-60.9,24.3
			c-37.8-5.4-46.9-27-62-15.6c-15.1,11.3-44,6.5-44,6.5"/>
		<path class="st3" d="M1578.5,2345.5c0,0-15.9-22.7-60.1-2.7c-44.2,20-65.3,8.1-83.6-2.7c-18.3-10.8-38.3-10.2-59.9,11.9
			c-21.6,22.1-60.4-34.5-87.4-21c-27,13.5-44.2,35.1-83.6,30.2c-39.4-4.9-59.9-37.8-83.6-20c-23.7,17.8-37.8,14-54.5,9.2
			c-16.7-4.9-28.6-25.9-46.9-9.7c-18.3,16.2-34.5,30.7-65.3,17.8c-30.7-12.9-35.1-48.5-59.9-29.7s-27.5,36.1-65.8,26.4
			c-38.3-9.7-30.2-9.2-38-9.7"/>
	</g>
</g>
<path class="st4" d="M2126.6,1870.7v-29.7h178l-81.6-81.6l21.1-21.1l117.5,117.5l-117.5,117.5l-21.1-21.1l81.6-81.6H2126.6z"/>
<g>
	<path class="st5" d="M2658.4,1417h20.7v-61.8h-20.7v-15.5h58.8v15.5h-20.8v61.8h20.8v15.6h-58.8V1417z"/>
	<path class="st5" d="M2754.7,1360h-2.4v72.6h-16.6v-92.9h26l16.4,72.6h2.4v-72.6h16.6v92.9h-26L2754.7,1360z"/>
	<path class="st5" d="M2812.9,1428.8l2.4-17.7c9.6,4.1,19.4,6.3,27.4,6.3c9.3,0,14.5-3.4,14.5-9.6c0-3.9-2.8-7.4-7.7-9.7l-13.3-6.5
		c-13.2-6.4-20.7-16.2-20.7-27.7c0-16.2,11.2-25.5,30.8-25.5c11.4,0,21.9,4.1,29.9,11.7l-11.9,13.7c-6-5.8-12.3-9-17.9-9
		c-7.7,0-12.2,3.4-12.2,9.6c0,4.1,3.1,7.9,8.7,10.8l12.6,6.5c13.1,6.8,20.5,16.1,20.5,26.5c0,16.5-12.3,25.8-34.2,25.8
		C2831.1,1433.9,2820.8,1432.1,2812.9,1428.8z"/>
	<path class="st5" d="M2893.5,1339.7h63.7v15.9h-46.5v22.5h34.7v16h-34.7v22.6h46.5v15.9h-63.7V1339.7z"/>
	<path class="st5" d="M2970.7,1339.7h33c20,0,31.3,10.2,31.3,28.1c0,12.8-4.9,22-13.9,26.9l17.3,37.9h-20.6l-13.7-34
		c-0.1,0-0.3,0-0.5,0h-15.8v34h-17.3V1339.7z M3003.7,1382.7c8,0,12.7-5,12.7-13.5c0-8.6-4.7-13.5-12.7-13.5h-15.8v27.1H3003.7z"/>
	<path class="st5" d="M3071.8,1355.6h-26.5v-15.9h70.3v15.9H3089v77h-17.3V1355.6z"/>
	<path class="st5" d="M3208,1417h20.7v-61.8H3208v-15.5h58.8v15.5H3246v61.8h20.8v15.6H3208V1417z"/>
	<path class="st5" d="M3304.3,1360h-2.4v72.6h-16.6v-92.9h26l16.4,72.6h2.4v-72.6h16.6v92.9h-26L3304.3,1360z"/>
	<path class="st5" d="M3385.8,1355.6h-26.5v-15.9h70.3v15.9h-26.5v77h-17.3V1355.6z"/>
	<path class="st5" d="M3437.6,1386.8c0-32.3,11.9-48.4,35.4-48.4s35.4,16.1,35.4,48.4c0,31.5-11.9,47.1-35.4,47.1
		S3437.6,1418.4,3437.6,1386.8z M3490.2,1386.8c0-21.4-5.8-32-17.3-32s-17.3,10.6-17.3,32c0,20.5,5.8,30.6,17.3,30.6
		S3490.2,1407.3,3490.2,1386.8z"/>
	<path class="st6" d="M3599.8,1409.1v-45.8h17.7v41.4c0,8,3.8,12.4,10.2,12.4c8.3,0,12.6-5.8,12.6-20.9v-32.9h17.7v53.5l9.6,1.4
		v14.4l-26.1,0.7l-1-14h-2c-2.2,9.4-8.8,14.7-17.9,14.7C3607.4,1433.9,3599.8,1424.9,3599.8,1409.1z"/>
	<path class="st6" d="M3678.4,1432l2.1-16.9c11,1.4,18.5,2.1,22.7,2.1c11.4,0,16.2-1.5,16.2-5.1c0-2.1-1.2-3.2-4.1-4.1l-21.9-6.5
		c-9.3-2.7-13.9-8-13.9-17.3c0-14.9,12.4-22.1,38-22.1c5.9,0,12.3,0.5,19.4,1.3l-1.9,16.4c-8-0.7-13.8-0.9-17.9-0.9
		c-13.2,0-18.8,1.4-18.8,4.9c0,2.2,1.2,3.2,3.9,4l18.8,5.4c11.9,3.4,17.8,9.2,17.8,19c0,14.7-11.6,21.9-35.5,21.9
		C3692.6,1433.9,3684.5,1433.3,3678.4,1432z"/>
	<path class="st6" d="M3755.6,1397.8c0-22.6,11.6-35.9,31.9-35.9c19.8,0,31.1,11.9,31.1,34c0,3.3-0.1,6.2-0.4,9h-44
		c2.7,8,9.8,12.2,20.7,12.2c6.3,0,12.3-0.7,18.6-1.8l1.7,16.8c-8.9,1.6-16.3,1.8-21.9,1.8
		C3769.2,1433.9,3755.6,1421.1,3755.6,1397.8z M3801.1,1392.6c0-9.4-5-14.5-13.5-14.5c-8,0-13.1,5.2-14.3,14.5H3801.1z"/>
	<path class="st6" d="M3862.7,1417.4h16.2v15.2h-48.5v-15.2h14.7v-39h-12v-15.2h27.1l2,15.6h2.5c0.7-11.4,6.5-16.9,17.7-16.9
		c13.2,0,20.4,10,20.4,28.2h-17.6c0-8.2-2.9-11.5-9.6-11.5c-8.6,0-12.9,8.7-12.9,24.1V1417.4z"/>
	<path class="st6" d="M3913.9,1432l2.1-16.9c11,1.4,18.5,2.1,22.7,2.1c11.4,0,16.2-1.5,16.2-5.1c0-2.1-1.2-3.2-4.1-4.1l-21.9-6.5
		c-9.3-2.7-13.9-8-13.9-17.3c0-14.9,12.4-22.1,38-22.1c5.9,0,12.3,0.5,19.4,1.3l-1.9,16.4c-8-0.7-13.8-0.9-17.9-0.9
		c-13.2,0-18.8,1.4-18.8,4.9c0,2.2,1.2,3.2,3.9,4l18.8,5.4c11.9,3.4,17.8,9.2,17.8,19c0,14.7-11.6,21.9-35.5,21.9
		C3928.1,1433.9,3920.1,1433.3,3913.9,1432z"/>
	<path class="st1" d="M2664.8,1598.8c0-37.6,16.8-59.1,45.9-59.1h4.3l-1.3,16.4h-1.6c-18.6,0-29.1,15.6-29.1,42.7
		c0,27.6,10.5,43.5,29.1,43.5h1.6l1.3,16.4h-4.3C2681.6,1658.7,2664.8,1636.9,2664.8,1598.8z"/>
	<path class="st6" d="M2751.5,1605.2h-21.1v-15.2h21.1v-7.9c0-24.1,11.5-36,34.7-36c5.6,0,10.3,0.4,15.5,1.3l-1.7,16.4
		c-5.8-0.7-10.1-0.9-14.2-0.9c-11.2,0-16.7,6.1-16.7,18.5v8.6h27.6v15.2h-27.6v40.4h-17.7V1605.2z"/>
	<path class="st6" d="M2814.9,1629.3h25.6v-36.6h-21.7v-16.4h39.4v53.1h20.5v16.3h-63.9V1629.3z M2837.3,1555.6
		c0-6.7,4.6-11.3,11.3-11.3s11.3,4.6,11.3,11.3s-4.6,11.3-11.3,11.3S2837.3,1562.3,2837.3,1555.6z"/>
	<path class="st6" d="M2920.5,1630.4h16.2v15.2h-48.5v-15.2h14.7v-39h-12v-15.2h27.1l2,15.6h2.5c0.7-11.4,6.5-16.9,17.7-16.9
		c13.2,0,20.4,10,20.4,28.2H2943c0-8.2-2.9-11.5-9.6-11.5c-8.6,0-12.9,8.7-12.9,24.1V1630.4z"/>
	<path class="st6" d="M2971.7,1645l2.1-16.9c11,1.4,18.5,2.1,22.7,2.1c11.4,0,16.2-1.5,16.2-5.1c0-2.1-1.2-3.2-4.1-4.1l-21.9-6.5
		c-9.3-2.7-13.9-8-13.9-17.3c0-14.9,12.4-22.1,38-22.1c5.9,0,12.3,0.5,19.4,1.3l-1.9,16.4c-8-0.7-13.8-0.9-17.9-0.9
		c-13.2,0-18.8,1.4-18.8,4.9c0,2.2,1.2,3.2,3.9,4l18.8,5.4c11.9,3.4,17.8,9.2,17.8,19c0,14.7-11.6,21.9-35.5,21.9
		C2985.9,1646.9,2977.9,1646.3,2971.7,1645z"/>
	<path class="st6" d="M3060.6,1616.7v-24.1h-16.6v-16.3h16.6v-20.9h17.7v20.9h30.8v16.3h-30.8v22.4c0,10.6,5,15.1,17.5,15.1
		c4,0,8.4-0.5,14.3-1.3l1.6,16.6c-5.8,1-10.9,1.6-17.1,1.6C3070.5,1646.9,3060.6,1637.8,3060.6,1616.7z"/>
	<path class="st6" d="M3126.2,1645.6h65.4v15.8h-65.4V1645.6z"/>
	<path class="st6" d="M3249.1,1604.9c0-8.4-3.6-13.1-9.9-13.1c-8.8,0-13.3,6.3-13.3,19.2v34.6H3208v-69.4h15.8l1.6,12.6h2
		c1.3-9.3,6-13.9,16.3-13.9c14.7,0,23,9.3,23,25.5v45.1h-17.7V1604.9z"/>
	<path class="st6" d="M3327.6,1631h-1.6c-1.2,10.7-8.8,16-20.8,16c-14.8,0-23.4-7.5-23.4-20.9c0-15.5,11.2-24.1,30.9-24.1
		c5.8,0,10,0.5,14.2,1.4v-0.2c0-7.4-6.3-10.7-18.8-11l-17.7-0.5l1.3-16.1l15.1,0.2c25.1,0.3,37.2,10,37.2,28.3v25.6l9.6,1.4v14.4
		l-24.9,0.7L3327.6,1631z M3313.6,1616.9c-9,0-13.7,2.7-13.7,7.9c0,4.7,3.4,7.3,9.7,7.3c11.3,0,17.1-7.1,17.3-14.1
		C3321.9,1616.9,3318.2,1616.9,3313.6,1616.9z"/>
	<path class="st6" d="M3410.1,1598.6c0-4.8-1.4-7.2-4.2-7.2c-3.1,0-4.7,2.6-4.7,7.8v46.4H3388v-48.3c0-3.9-1.4-5.9-4.2-5.9
		c-3.3,0-5,2.6-5,7.8v46.4h-17.5v-69.4h15.9l0.9,8.6h1.6c0.9-6.4,4.6-9.9,10.5-9.9c5.5,0,9.2,3.3,10.5,9.9h1.6
		c0.8-6.2,5-9.9,11.6-9.9c9.4,0,13.5,4.8,13.5,16.4v54.3h-17.4V1598.6z"/>
	<path class="st6" d="M3441.5,1610.8c0-22.6,11.6-35.9,31.9-35.9c19.8,0,31.1,11.9,31.1,34c0,3.3-0.1,6.2-0.4,9h-44
		c2.7,8,9.8,12.2,20.7,12.2c6.3,0,12.3-0.7,18.6-1.8l1.7,16.8c-8.9,1.6-16.3,1.8-21.9,1.8
		C3455.1,1646.9,3441.5,1634.1,3441.5,1610.8z M3487,1605.6c0-9.4-5-14.5-13.5-14.5c-8,0-13.1,5.2-14.3,14.5H3487z"/>
	<path class="st1" d="M3541.6,1629h19.5l-7.9,45.1h-16.9L3541.6,1629z"/>
	<path class="st6" d="M3693.5,1616.7v-52.9h-19.6v-16.3h37.3v68.6c0,8.7,1.9,12.4,12.2,12.4c4.1,0,8.5-0.8,14.5-2.5l2,18.2
		c-7.5,2-13.9,2.7-21.8,2.7C3700.7,1646.9,3693.5,1637.8,3693.5,1616.7z"/>
	<path class="st6" d="M3798.7,1631h-1.6c-1.2,10.7-8.8,16-20.8,16c-14.8,0-23.4-7.5-23.4-20.9c0-15.5,11.2-24.1,30.9-24.1
		c5.8,0,10,0.5,14.2,1.4v-0.2c0-7.4-6.3-10.7-18.8-11l-17.7-0.5l1.3-16.1l15.1,0.2c25.1,0.3,37.2,10,37.2,28.3v25.6l9.6,1.4v14.4
		l-24.9,0.7L3798.7,1631z M3784.7,1616.9c-9,0-13.7,2.7-13.7,7.9c0,4.7,3.4,7.3,9.7,7.3c11.3,0,17.1-7.1,17.3-14.1
		C3793,1616.9,3789.3,1616.9,3784.7,1616.9z"/>
	<path class="st6" d="M3835.4,1645l2.1-16.9c11,1.4,18.5,2.1,22.7,2.1c11.4,0,16.2-1.5,16.2-5.1c0-2.1-1.2-3.2-4.1-4.1l-21.9-6.5
		c-9.3-2.7-13.9-8-13.9-17.3c0-14.9,12.4-22.1,38-22.1c5.9,0,12.3,0.5,19.4,1.3l-1.9,16.4c-8-0.7-13.8-0.9-17.9-0.9
		c-13.2,0-18.8,1.4-18.8,4.9c0,2.2,1.2,3.2,3.9,4l18.8,5.4c11.9,3.4,17.8,9.2,17.8,19c0,14.7-11.6,21.9-35.5,21.9
		C3849.6,1646.9,3841.5,1646.3,3835.4,1645z"/>
	<path class="st6" d="M3924.2,1616.7v-24.1h-16.6v-16.3h16.6v-20.9h17.7v20.9h30.8v16.3h-30.8v22.4c0,10.6,5,15.1,17.5,15.1
		c4,0,8.4-0.5,14.3-1.3l1.6,16.6c-5.8,1-10.9,1.6-17.1,1.6C3934.2,1646.9,3924.2,1637.8,3924.2,1616.7z"/>
	<path class="st6" d="M3989.9,1645.6h65.4v15.8h-65.4V1645.6z"/>
	<path class="st6" d="M4112.7,1604.9c0-8.4-3.6-13.1-9.9-13.1c-8.8,0-13.3,6.3-13.3,19.2v34.6h-17.7v-69.4h15.8l1.6,12.6h2
		c1.3-9.3,6-13.9,16.3-13.9c14.7,0,23,9.3,23,25.5v45.1h-17.7V1604.9z"/>
	<path class="st6" d="M4191.3,1631h-1.6c-1.2,10.7-8.8,16-20.8,16c-14.8,0-23.4-7.5-23.4-20.9c0-15.5,11.2-24.1,30.9-24.1
		c5.8,0,10,0.5,14.2,1.4v-0.2c0-7.4-6.3-10.7-18.8-11l-17.7-0.5l1.3-16.1l15.1,0.2c25.1,0.3,37.2,10,37.2,28.3v25.6l9.6,1.4v14.4
		l-24.9,0.7L4191.3,1631z M4177.3,1616.9c-9,0-13.7,2.7-13.7,7.9c0,4.7,3.4,7.3,9.7,7.3c11.3,0,17.1-7.1,17.3-14.1
		C4185.6,1616.9,4181.8,1616.9,4177.3,1616.9z"/>
	<path class="st6" d="M4273.8,1598.6c0-4.8-1.4-7.2-4.2-7.2c-3.1,0-4.7,2.6-4.7,7.8v46.4h-13.2v-48.3c0-3.9-1.4-5.9-4.2-5.9
		c-3.3,0-5,2.6-5,7.8v46.4h-17.5v-69.4h15.9l0.9,8.6h1.6c0.9-6.4,4.6-9.9,10.5-9.9c5.5,0,9.2,3.3,10.5,9.9h1.6
		c0.8-6.2,5-9.9,11.6-9.9c9.4,0,13.5,4.8,13.5,16.4v54.3h-17.4V1598.6z"/>
	<path class="st6" d="M4305.2,1610.8c0-22.6,11.6-35.9,31.9-35.9c19.8,0,31.1,11.9,31.1,34c0,3.3-0.1,6.2-0.4,9h-44
		c2.7,8,9.8,12.2,20.7,12.2c6.3,0,12.3-0.7,18.6-1.8l1.7,16.8c-8.9,1.6-16.3,1.8-21.9,1.8
		C4318.8,1646.9,4305.2,1634.1,4305.2,1610.8z M4350.7,1605.6c0-9.4-5-14.5-13.5-14.5c-8,0-13.1,5.2-14.3,14.5H4350.7z"/>
	<path class="st1" d="M4405.3,1629h19.5l-7.9,45.1H4400L4405.3,1629z"/>
	<path class="st6" d="M4540.7,1610.8c0-22.6,11.6-35.9,31.9-35.9c19.8,0,31.1,11.9,31.1,34c0,3.3-0.1,6.2-0.4,9h-44
		c2.7,8,9.8,12.2,20.7,12.2c6.3,0,12.3-0.7,18.6-1.8l1.7,16.8c-8.9,1.6-16.3,1.8-21.9,1.8
		C4554.3,1646.9,4540.7,1634.1,4540.7,1610.8z M4586.3,1605.6c0-9.4-5-14.5-13.5-14.5c-8,0-13.1,5.2-14.3,14.5H4586.3z"/>
	<path class="st6" d="M4666.3,1598.6c0-4.8-1.4-7.2-4.2-7.2c-3.1,0-4.7,2.6-4.7,7.8v46.4h-13.2v-48.3c0-3.9-1.4-5.9-4.2-5.9
		c-3.3,0-5,2.6-5,7.8v46.4h-17.5v-69.4h15.9l0.9,8.6h1.6c0.9-6.4,4.6-9.9,10.5-9.9c5.5,0,9.2,3.3,10.5,9.9h1.6
		c0.8-6.2,5-9.9,11.6-9.9c9.4,0,13.5,4.8,13.5,16.4v54.3h-17.4V1598.6z"/>
	<path class="st6" d="M4740.9,1631h-1.6c-1.2,10.7-8.8,16-20.8,16c-14.8,0-23.4-7.5-23.4-20.9c0-15.5,11.2-24.1,30.9-24.1
		c5.8,0,10,0.5,14.2,1.4v-0.2c0-7.4-6.3-10.7-18.8-11l-17.7-0.5l1.3-16.1l15.1,0.2c25.1,0.3,37.2,10,37.2,28.3v25.6l9.6,1.4v14.4
		l-24.9,0.7L4740.9,1631z M4726.9,1616.9c-9,0-13.7,2.7-13.7,7.9c0,4.7,3.4,7.3,9.7,7.3c11.3,0,17.1-7.1,17.3-14.1
		C4735.2,1616.9,4731.4,1616.9,4726.9,1616.9z"/>
	<path class="st6" d="M4777.8,1629.3h25.6v-36.6h-21.7v-16.4h39.4v53.1h20.5v16.3h-63.9V1629.3z M4800.2,1555.6
		c0-6.7,4.6-11.3,11.3-11.3s11.3,4.6,11.3,11.3s-4.6,11.3-11.3,11.3S4800.2,1562.3,4800.2,1555.6z"/>
	<path class="st6" d="M4871.3,1616.7v-52.9h-19.6v-16.3h37.3v68.6c0,8.7,1.9,12.4,12.2,12.4c4.1,0,8.5-0.8,14.5-2.5l2,18.2
		c-7.5,2-13.9,2.7-21.8,2.7C4878.5,1646.9,4871.3,1637.8,4871.3,1616.7z"/>
	<path class="st1" d="M4954.9,1629h19.5l-7.9,45.1h-16.9L4954.9,1629z"/>
	<path class="st6" d="M5111.9,1634.9h-1.7v40.8h-17.7v-99.5h16.4l1.1,12.6h1.9c1.6-9.3,6.9-13.9,17.3-13.9c17,0,26.7,13.3,26.7,36.6
		c0,22.8-9.7,35.3-26.6,35.3C5119.4,1646.9,5113.4,1642.9,5111.9,1634.9z M5124.1,1630.2c8.7,0,13.2-6.3,13.2-18.6
		c0-12.7-4.8-20-13.2-20c-9.3,0-13.9,6-13.9,18.4v4.1C5110.2,1624.9,5114.7,1630.2,5124.1,1630.2z"/>
	<path class="st6" d="M5212,1603.7c0-7.7-3.6-12.1-9.9-12.1c-8.8,0-13.3,6-13.3,18.3v35.7h-17.7v-98.1h17.7v41.4h1.7
		c1.3-9.3,6-13.9,16.3-13.9c14.7,0,23,9.3,23,25.5v45.1H5212V1603.7z"/>
	<path class="st6" d="M5247.4,1610.9c0-22.9,11.5-36,31.5-36s31.5,13.1,31.5,36s-11.5,36-31.5,36S5247.4,1633.8,5247.4,1610.9z
		 M5291.5,1610.9c0-12.3-4.6-19.2-12.7-19.2c-8,0-12.7,6.9-12.7,19.2c0,12.2,4.6,19.2,12.7,19.2
		C5286.9,1630.1,5291.5,1623.2,5291.5,1610.9z"/>
	<path class="st6" d="M5369,1604.9c0-8.4-3.6-13.1-9.9-13.1c-8.8,0-13.3,6.3-13.3,19.2v34.6H5328v-69.4h15.8l1.6,12.6h2
		c1.3-9.3,6-13.9,16.3-13.9c14.7,0,23,9.3,23,25.5v45.1H5369V1604.9z"/>
	<path class="st6" d="M5404.4,1610.8c0-22.6,11.6-35.9,31.9-35.9c19.8,0,31.1,11.9,31.1,34c0,3.3-0.1,6.2-0.4,9h-44
		c2.7,8,9.8,12.2,20.7,12.2c6.3,0,12.3-0.7,18.6-1.8l1.7,16.8c-8.9,1.6-16.3,1.8-21.9,1.8C5418,1646.9,5404.4,1634.1,5404.4,1610.8z
		 M5449.9,1605.6c0-9.4-5-14.5-13.5-14.5c-8,0-13.1,5.2-14.3,14.5H5449.9z"/>
	<path class="st1" d="M5488.5,1642.3h1.6c18.6,0,29.1-15.9,29.1-43.5c0-27.1-10.4-42.7-29.1-42.7h-1.6l-1.3-16.4h4.2
		c29.1,0,45.9,21.5,45.9,59.1c0,38.1-16.8,59.9-45.9,59.9h-4.2L5488.5,1642.3z"/>
	<path class="st5" d="M2650.4,1765.7h17.9l19,77.4h1.2l19-77.4h17.9l-24,92.9h-26.8L2650.4,1765.7z"/>
	<path class="st5" d="M2755.7,1765.7h21.2l26.8,92.9h-18.6l-4.6-17.6h-28.4l-4.6,17.6h-18.6L2755.7,1765.7z M2776.4,1825l-9.5-36.6
		h-1.2l-9.5,36.6H2776.4z"/>
	<path class="st5" d="M2814.9,1765.7h17.3v77h46.5v15.9h-63.7V1765.7z"/>
	<path class="st5" d="M2892.2,1828.8v-63.1h17.3v63.1c0,9.7,4.3,14.6,13.9,14.6c9.2,0,13.9-4.9,13.9-14.6v-63.1h17.3v63.1
		c0,20.8-10.9,31.1-31.5,31.1S2892.2,1849.6,2892.2,1828.8z"/>
	<path class="st5" d="M2972,1765.7h63.7v15.9h-46.5v22.5h34.7v16h-34.7v22.6h46.5v15.9H2972V1765.7z"/>
	<path class="st5" d="M3048.5,1854.8l2.4-17.7c9.6,4.1,19.4,6.3,27.4,6.3c9.3,0,14.5-3.4,14.5-9.6c0-3.9-2.8-7.4-7.7-9.7l-13.3-6.5
		c-13.2-6.4-20.7-16.2-20.7-27.7c0-16.2,11.2-25.5,30.8-25.5c11.4,0,21.9,4.1,29.9,11.7l-11.9,13.7c-6-5.8-12.3-9-17.9-9
		c-7.7,0-12.2,3.4-12.2,9.6c0,4.1,3.1,7.9,8.7,10.8l12.6,6.5c13.1,6.8,20.5,16.1,20.5,26.5c0,16.5-12.3,25.8-34.2,25.8
		C3066.7,1859.9,3056.3,1858.1,3048.5,1854.8z"/>
	<path class="st1" d="M2664.8,2024.8c0-37.6,16.8-59.1,45.9-59.1h4.3l-1.3,16.4h-1.6c-18.6,0-29.1,15.6-29.1,42.7
		c0,27.6,10.5,43.5,29.1,43.5h1.6l1.3,16.4h-4.3C2681.6,2084.7,2664.8,2062.9,2664.8,2024.8z"/>
	<path class="st7" d="M2747.5,1978.7h25.2l-23,45.1h-13.2L2747.5,1978.7z M2776.3,1978.7h25.2l-23,45.1h-13.2L2776.3,1978.7z"/>
	<path class="st7" d="M2812.8,1978.7h24.7l6.8,41.5h1l6.8-41.5h24.7v92.9h-16.1v-76.4h-2l-7.9,43.9h-12l-7.9-43.9h-2v76.4h-16.1
		V1978.7z"/>
	<path class="st7" d="M2935,2057h-1.6c-1.2,10.7-8.8,16-20.8,16c-14.8,0-23.4-7.5-23.4-20.9c0-15.5,11.2-24.1,30.9-24.1
		c5.8,0,10,0.5,14.2,1.4v-0.2c0-7.4-6.3-10.7-18.8-11l-17.7-0.5l1.3-16.1l15.1,0.2c25.1,0.3,37.2,10,37.2,28.3v25.6l9.6,1.4v14.4
		l-24.9,0.7L2935,2057z M2921,2042.9c-9,0-13.7,2.7-13.7,7.9c0,4.7,3.4,7.3,9.7,7.3c11.3,0,17.1-7.1,17.3-14.1
		C2929.3,2042.9,2925.6,2042.9,2921,2042.9z"/>
	<path class="st7" d="M2982.1,2042.7v-24.1h-16.6v-16.3h16.6v-20.9h17.7v20.9h30.8v16.3h-30.8v22.4c0,10.6,5,15.1,17.5,15.1
		c4,0,8.4-0.5,14.3-1.3l1.6,16.6c-5.8,1-10.9,1.6-17.1,1.6C2992,2072.9,2982.1,2063.8,2982.1,2042.7z"/>
	<path class="st7" d="M3048.9,2036.8c0-22.6,11.6-35.9,31.9-35.9c19.8,0,31.1,11.9,31.1,34c0,3.3-0.1,6.2-0.4,9h-44
		c2.7,8,9.8,12.2,20.7,12.2c6.3,0,12.3-0.7,18.6-1.8l1.7,16.8c-8.9,1.6-16.3,1.8-21.9,1.8
		C3062.5,2072.9,3048.9,2060.1,3048.9,2036.8z M3094.5,2031.6c0-9.4-5-14.5-13.5-14.5c-8,0-13.1,5.2-14.3,14.5H3094.5z"/>
	<path class="st7" d="M3127.4,2036.9c0-22.9,11.5-36,31.5-36s31.5,13.1,31.5,36c0,22.9-11.5,36-31.5,36S3127.4,2059.8,3127.4,2036.9
		z M3171.6,2036.9c0-12.3-4.6-19.2-12.7-19.2c-8,0-12.7,6.9-12.7,19.2c0,12.2,4.6,19.2,12.7,19.2
		C3167,2056.1,3171.6,2049.2,3171.6,2036.9z"/>
	<path class="st7" d="M3297.1,1978.7h25.2l-23,45.1H3286L3297.1,1978.7z M3325.9,1978.7h25.2l-23,45.1h-13.2L3325.9,1978.7z"/>
	<path class="st1" d="M3384.6,2055h19.5l-7.9,45.1h-16.9L3384.6,2055z"/>
	<path class="st7" d="M3541.9,1978.7h13.2l-11.3,45.1h-25.2L3541.9,1978.7z M3570.7,1978.7h13.2l-11.3,45.1h-25.2L3570.7,1978.7z"/>
	<path class="st7" d="M3600.1,1978.7h17.3v77h46.5v15.9h-63.7V1978.7z"/>
	<path class="st7" d="M3678.6,2055.3h25.6v-36.6h-21.7v-16.4h39.4v53.1h20.5v16.3h-63.9V2055.3z M3701,1981.6
		c0-6.7,4.6-11.3,11.3-11.3s11.3,4.6,11.3,11.3s-4.6,11.3-11.3,11.3S3701,1988.3,3701,1981.6z"/>
	<path class="st7" d="M3798.7,2030.9c0-8.4-3.6-13.1-9.9-13.1c-8.8,0-13.3,6.3-13.3,19.2v34.6h-17.7v-69.4h15.8l1.6,12.6h2
		c1.3-9.3,6-13.9,16.3-13.9c14.7,0,23,9.3,23,25.5v45.1h-17.7V2030.9z"/>
	<path class="st7" d="M3865.3,2019.3h-0.8l-7,52.3h-23.2l-4.6-69.4h17.2l2.5,52.9h1.2l7.9-52.9h12.7l7.9,52.9h1.2l4.3-52.9h16.8
		l-6.5,69.4h-22.5L3865.3,2019.3z"/>
	<path class="st7" d="M3955.7,2057h-1.6c-1.2,10.7-8.8,16-20.8,16c-14.8,0-23.4-7.5-23.4-20.9c0-15.5,11.2-24.1,30.9-24.1
		c5.8,0,10,0.5,14.2,1.4v-0.2c0-7.4-6.3-10.7-18.8-11l-17.7-0.5l1.3-16.1l15.1,0.2c25.1,0.3,37.2,10,37.2,28.3v25.6l9.6,1.4v14.4
		l-24.9,0.7L3955.7,2057z M3941.7,2042.9c-9,0-13.7,2.7-13.7,7.9c0,4.7,3.4,7.3,9.7,7.3c11.3,0,17.1-7.1,17.3-14.1
		C3950,2042.9,3946.3,2042.9,3941.7,2042.9z"/>
	<path class="st7" d="M4034.2,2030.9c0-8.4-3.6-13.1-9.9-13.1c-8.8,0-13.3,6.3-13.3,19.2v34.6h-17.7v-69.4h15.8l1.6,12.6h2
		c1.3-9.3,6-13.9,16.3-13.9c14.7,0,23,9.3,23,25.5v45.1h-17.7V2030.9z"/>
	<path class="st7" d="M4112.7,2057h-1.6c-1.2,10.7-8.8,16-20.8,16c-14.8,0-23.4-7.5-23.4-20.9c0-15.5,11.2-24.1,30.9-24.1
		c5.8,0,10,0.5,14.2,1.4v-0.2c0-7.4-6.3-10.7-18.8-11l-17.7-0.5l1.3-16.1l15.1,0.2c25.1,0.3,37.2,10,37.2,28.3v25.6l9.6,1.4v14.4
		l-24.9,0.7L4112.7,2057z M4098.7,2042.9c-9,0-13.7,2.7-13.7,7.9c0,4.7,3.4,7.3,9.7,7.3c11.3,0,17.1-7.1,17.3-14.1
		C4107,2042.9,4103.3,2042.9,4098.7,2042.9z"/>
	<path class="st7" d="M4145.5,2037.6c0-23.3,9.7-36.6,26.7-36.6c10.5,0,15.7,4.6,17.3,13.9h1.9l1.1-12.6h16.4v63.2
		c0,24.7-11.1,35.9-36.4,36.8l-20.3,0.7l-0.7-15.4l22.2-0.7c12.1-0.3,17.3-6.7,17.3-19.2v-6.7h-1.3c-1.4,8-7.7,12-17.7,12
		C4155.3,2072.9,4145.5,2060.4,4145.5,2037.6z M4191.3,2036c0-12.4-4.6-18.4-13.9-18.4c-8.4,0-13.2,7.3-13.2,20
		c0,11.6,4.5,17.5,13.2,17.5c9.4,0,13.9-5,13.9-15V2036z"/>
	<path class="st7" d="M4239.3,1978.7h25.2l-23,45.1h-13.2L4239.3,1978.7z M4268.1,1978.7h25.2l-23,45.1H4257L4268.1,1978.7z"/>
	<path class="st1" d="M4326.8,2055h19.5l-7.9,45.1h-16.9L4326.8,2055z"/>
	<path class="st7" d="M4484.1,1978.7h13.2l-11.3,45.1h-25.2L4484.1,1978.7z M4512.8,1978.7h13.2l-11.3,45.1h-25.2L4512.8,1978.7z"/>
	<path class="st7" d="M4587.8,2024.6c0-4.8-1.4-7.2-4.2-7.2c-3.1,0-4.7,2.6-4.7,7.8v46.4h-13.2v-48.3c0-3.9-1.4-5.9-4.2-5.9
		c-3.3,0-5,2.6-5,7.8v46.4h-17.5v-69.4h15.9l0.9,8.6h1.6c0.9-6.4,4.6-9.9,10.5-9.9c5.5,0,9.2,3.3,10.5,9.9h1.6
		c0.8-6.2,5-9.9,11.6-9.9c9.4,0,13.5,4.8,13.5,16.4v54.3h-17.4V2024.6z"/>
	<path class="st7" d="M4662.4,2057h-1.6c-1.2,10.7-8.8,16-20.8,16c-14.8,0-23.4-7.5-23.4-20.9c0-15.5,11.2-24.1,30.9-24.1
		c5.8,0,10,0.5,14.2,1.4v-0.2c0-7.4-6.3-10.7-18.8-11l-17.7-0.5l1.3-16.1l15.1,0.2c25.1,0.3,37.2,10,37.2,28.3v25.6l9.6,1.4v14.4
		l-24.9,0.7L4662.4,2057z M4648.3,2042.9c-9,0-13.7,2.7-13.7,7.9c0,4.7,3.4,7.3,9.7,7.3c11.3,0,17.1-7.1,17.3-14.1
		C4656.7,2042.9,4652.9,2042.9,4648.3,2042.9z"/>
	<path class="st7" d="M4709.4,2042.7v-24.1h-16.6v-16.3h16.6v-20.9h17.7v20.9h30.8v16.3h-30.8v22.4c0,10.6,5,15.1,17.5,15.1
		c4,0,8.4-0.5,14.3-1.3l1.6,16.6c-5.8,1-10.9,1.6-17.1,1.6C4719.3,2072.9,4709.4,2063.8,4709.4,2042.7z"/>
	<path class="st7" d="M4776.3,2036.8c0-22.6,11.6-35.9,31.9-35.9c19.8,0,31.1,11.9,31.1,34c0,3.3-0.1,6.2-0.4,9h-44
		c2.7,8,9.8,12.2,20.7,12.2c6.3,0,12.3-0.7,18.6-1.8l1.7,16.8c-8.9,1.6-16.3,1.8-21.9,1.8
		C4789.9,2072.9,4776.3,2060.1,4776.3,2036.8z M4821.8,2031.6c0-9.4-5-14.5-13.5-14.5c-8,0-13.1,5.2-14.3,14.5H4821.8z"/>
	<path class="st7" d="M4854.8,2036.9c0-22.9,11.5-36,31.5-36s31.5,13.1,31.5,36c0,22.9-11.5,36-31.5,36S4854.8,2059.8,4854.8,2036.9
		z M4898.9,2036.9c0-12.3-4.6-19.2-12.7-19.2c-8,0-12.7,6.9-12.7,19.2c0,12.2,4.6,19.2,12.7,19.2
		C4894.4,2056.1,4898.9,2049.2,4898.9,2036.9z"/>
	<path class="st7" d="M4931.5,2032.5c0-36.8,11.5-55,34.6-55c20.4,0,30.7,12.4,30.7,37.4v47.4h-15.6v-13.9h-1.3
		c-1.4,9.7-6,15.2-12.2,15.2c-8.1,0-12.8-11.3-12.8-30.8c0-20.7,4.6-30.8,12.9-30.8c5.8,0,10.3,5.5,12.1,15.2h1.3v-2
		c0-14.9-5.1-22.2-15-22.2c-12.8,0-19.1,13.1-19.1,39.5c0,29.6,7.8,42.1,26.1,42.1c5.6,0,9.5-0.5,12.9-1.6v15.6
		c-3.7,1.2-7.5,1.6-12.9,1.6C4943.9,2090.3,4931.5,2073,4931.5,2032.5z M4981.1,2033.3c0-11.6-2.6-16.7-7.2-16.7
		c-4.1,0-6.3,4.9-6.3,16.2c0,10.3,2,16.2,5.4,16.2C4978.2,2049,4981.1,2043.3,4981.1,2033.3z"/>
	<path class="st7" d="M5013.1,2071l2.1-16.9c11,1.4,18.5,2.1,22.7,2.1c11.4,0,16.2-1.5,16.2-5.1c0-2.1-1.2-3.2-4.1-4.1l-21.9-6.5
		c-9.3-2.7-13.9-8-13.9-17.3c0-14.9,12.4-22.1,38-22.1c5.9,0,12.3,0.5,19.4,1.3l-1.9,16.4c-8-0.7-13.8-0.9-17.9-0.9
		c-13.2,0-18.8,1.4-18.8,4.9c0,2.2,1.2,3.2,3.9,4l18.8,5.4c11.9,3.4,17.8,9.2,17.8,19c0,14.7-11.6,21.9-35.5,21.9
		C5027.3,2072.9,5019.3,2072.3,5013.1,2071z"/>
	<path class="st7" d="M5091.6,2048.1v-45.8h17.7v41.4c0,8,3.8,12.4,10.2,12.4c8.3,0,12.6-5.8,12.6-20.9v-32.9h17.7v53.5l9.6,1.4
		v14.4l-26.1,0.7l-1-14h-2c-2.2,9.4-8.8,14.7-17.9,14.7C5099.2,2072.9,5091.6,2063.9,5091.6,2048.1z"/>
	<path class="st7" d="M5190.4,2060.9h-1.7v40.8h-17.7v-99.5h16.4l1.1,12.6h1.9c1.6-9.3,6.9-13.9,17.3-13.9c17,0,26.7,13.3,26.7,36.6
		c0,22.8-9.7,35.3-26.6,35.3C5198,2072.9,5191.9,2068.9,5190.4,2060.9z M5202.6,2056.2c8.7,0,13.2-6.3,13.2-18.6
		c0-12.7-4.8-20-13.2-20c-9.3,0-13.9,6-13.9,18.4v4.1C5188.7,2050.9,5193.2,2056.2,5202.6,2056.2z"/>
	<path class="st7" d="M5247.4,2036.8c0-22.6,11.6-35.9,31.9-35.9c19.8,0,31.1,11.9,31.1,34c0,3.3-0.1,6.2-0.4,9h-44
		c2.7,8,9.8,12.2,20.7,12.2c6.3,0,12.3-0.7,18.6-1.8l1.7,16.8c-8.9,1.6-16.3,1.8-21.9,1.8C5261,2072.9,5247.4,2060.1,5247.4,2036.8z
		 M5292.9,2031.6c0-9.4-5-14.5-13.5-14.5c-8,0-13.1,5.2-14.3,14.5H5292.9z"/>
	<path class="st7" d="M5354.5,2056.4h16.2v15.2h-48.5v-15.2h14.7v-39h-12v-15.2h27.1l2,15.6h2.5c0.7-11.4,6.5-16.9,17.7-16.9
		c13.2,0,20.4,10,20.4,28.2H5377c0-8.2-2.9-11.5-9.6-11.5c-8.6,0-12.9,8.7-12.9,24.1V2056.4z"/>
	<path class="st7" d="M5405.7,2071l2.1-16.9c11,1.4,18.5,2.1,22.7,2.1c11.4,0,16.2-1.5,16.2-5.1c0-2.1-1.2-3.2-4.1-4.1l-21.9-6.5
		c-9.3-2.7-13.9-8-13.9-17.3c0-14.9,12.4-22.1,38-22.1c5.9,0,12.3,0.5,19.4,1.3l-1.9,16.4c-8-0.7-13.8-0.9-17.9-0.9
		c-13.2,0-18.8,1.4-18.8,4.9c0,2.2,1.2,3.2,3.9,4l18.8,5.4c11.9,3.4,17.8,9.2,17.8,19c0,14.7-11.6,21.9-35.5,21.9
		C5419.9,2072.9,5411.8,2072.3,5405.7,2071z"/>
	<path class="st7" d="M5494.6,2042.7v-24.1h-16.6v-16.3h16.6v-20.9h17.7v20.9h30.8v16.3h-30.8v22.4c0,10.6,5,15.1,17.5,15.1
		c4,0,8.4-0.5,14.3-1.3l1.6,16.6c-5.8,1-10.9,1.6-17.1,1.6C5504.5,2072.9,5494.6,2063.8,5494.6,2042.7z"/>
	<path class="st7" d="M5561.4,2036.9c0-22.9,11.5-36,31.5-36s31.5,13.1,31.5,36c0,22.9-11.5,36-31.5,36S5561.4,2059.8,5561.4,2036.9
		z M5605.6,2036.9c0-12.3-4.6-19.2-12.7-19.2c-8,0-12.7,6.9-12.7,19.2c0,12.2,4.6,19.2,12.7,19.2
		C5601,2056.1,5605.6,2049.2,5605.6,2036.9z"/>
	<path class="st7" d="M5668.6,2056.4h16.2v15.2h-48.5v-15.2h14.7v-39h-12v-15.2h27.1l2,15.6h2.5c0.7-11.4,6.5-16.9,17.7-16.9
		c13.2,0,20.4,10,20.4,28.2H5691c0-8.2-2.9-11.5-9.6-11.5c-8.6,0-12.9,8.7-12.9,24.1V2056.4z"/>
	<path class="st7" d="M5718.5,2036.8c0-22.6,11.6-35.9,31.9-35.9c19.8,0,31.1,11.9,31.1,34c0,3.3-0.1,6.2-0.4,9h-44
		c2.7,8,9.8,12.2,20.7,12.2c6.3,0,12.3-0.7,18.6-1.8l1.7,16.8c-8.9,1.6-16.3,1.8-21.9,1.8
		C5732.1,2072.9,5718.5,2060.1,5718.5,2036.8z M5764,2031.6c0-9.4-5-14.5-13.5-14.5c-8,0-13.1,5.2-14.3,14.5H5764z"/>
	<path class="st7" d="M5816.5,2061c0-6.6,5.3-11.9,11.9-11.9s11.9,5.3,11.9,11.9c0,6.5-5.3,11.9-11.9,11.9
		S5816.5,2067.6,5816.5,2061z"/>
	<path class="st7" d="M5875.5,2036.8c0-22.6,13-35.9,36.3-35.9c14.3,0,25,5.8,29.3,16l-12.8,10.2c-3.9-6-9.9-9.4-17-9.4
		c-10.7,0-17,6.6-17,18.4c0,13,8,20,22.4,20c6.3,0,12.6-0.7,18.5-1.7l1.8,16.6c-7.1,1.6-14.8,2-21.9,2
		C5889.8,2072.9,5875.5,2060.1,5875.5,2036.8z"/>
	<path class="st7" d="M5954,2036.9c0-22.9,11.5-36,31.5-36s31.5,13.1,31.5,36c0,22.9-11.5,36-31.5,36S5954,2059.8,5954,2036.9z
		 M5998.2,2036.9c0-12.3-4.6-19.2-12.7-19.2c-8,0-12.7,6.9-12.7,19.2c0,12.2,4.6,19.2,12.7,19.2
		C5993.6,2056.1,5998.2,2049.2,5998.2,2036.9z"/>
	<path class="st7" d="M6079.6,2024.6c0-4.8-1.4-7.2-4.2-7.2c-3.1,0-4.7,2.6-4.7,7.8v46.4h-13.2v-48.3c0-3.9-1.4-5.9-4.2-5.9
		c-3.3,0-5,2.6-5,7.8v46.4h-17.5v-69.4h15.9l0.9,8.6h1.6c0.9-6.4,4.6-9.9,10.5-9.9c5.5,0,9.2,3.3,10.5,9.9h1.6
		c0.8-6.2,5-9.9,11.6-9.9c9.4,0,13.5,4.8,13.5,16.4v54.3h-17.4V2024.6z"/>
	<path class="st7" d="M6123.7,1978.7h25.2l-23,45.1h-13.2L6123.7,1978.7z M6152.4,1978.7h25.2l-23,45.1h-13.2L6152.4,1978.7z"/>
	<path class="st1" d="M6211.1,2055h19.5l-7.9,45.1h-16.9L6211.1,2055z"/>
	<path class="st7" d="M6368.4,1978.7h13.2l-11.3,45.1h-25.2L6368.4,1978.7z M6397.2,1978.7h13.2l-11.3,45.1h-25.2L6397.2,1978.7z"/>
	<path class="st7" d="M6426,2069.8l1.6-16.9c5.6,1.5,12.1,3.6,22.8,3.6c11.5,0,18.1-4.2,18.1-11.5c0-8-8.8-12.6-24.3-12.6h-2.1
		l-1.6-15c18.3-2.3,26-8,26-15.8c0-4.8-3.3-7.7-9.7-7.7c-7,0-15.9,2.8-23.4,8.3l-9-13.3c8.4-8,19.2-11.4,32.7-11.4
		c17.7,0,27.7,7.5,27.7,20.8c0,11.7-8.8,20.9-21.6,24.1v2.2c14.1,1.3,23.6,9.4,23.6,22.2c0,16.6-13,26.2-35.8,26.2
		C6440.9,2072.9,6432.5,2071.7,6426,2069.8z"/>
	<path class="st7" d="M6505.8,2056.3h22.4v-60.8l-21.1,7.6v-16.5l21.1-7.9h17.7v77.6h19.9v15.3h-59.9V2056.3z"/>
	<path class="st7" d="M6589.5,1983.9h17.6l-9,53.2h24.4v-58.4h17.2v58.4h9v15.8h-9v18.7h-17.2v-18.7h-44.5L6589.5,1983.9z"/>
	<path class="st7" d="M6662.9,2056.3h22.4v-60.8l-21.1,7.6v-16.5l21.1-7.9h17.7v77.6h19.9v15.3h-59.9V2056.3z"/>
	<path class="st7" d="M6741.5,2053.2c27.3-14.4,40.6-30.1,40.6-46.7c0-8.4-4.1-12.7-12.6-12.7c-7.5,0-16.2,4.4-22,11.3l-10.1-11.7
		c6.4-9.6,19.4-16,32.4-16c20.3,0,30.4,9.3,30.4,28c0,17.3-10.2,33.2-31.2,47.8v2.5h35.1v15.9h-62.7V2053.2z"/>
	<path class="st7" d="M6818.6,2069.8l1.6-16.9c5.6,1.5,12.1,3.6,22.8,3.6c11.5,0,18.1-4.2,18.1-11.5c0-8-8.8-12.6-24.3-12.6h-2.1
		l-1.6-15c18.3-2.3,26-8,26-15.8c0-4.8-3.3-7.7-9.7-7.7c-7,0-15.9,2.8-23.4,8.3l-9-13.3c8.4-8,19.2-11.4,32.7-11.4
		c17.7,0,27.7,7.5,27.7,20.8c0,11.7-8.8,20.9-21.6,24.1v2.2c14.1,1.3,23.6,9.4,23.6,22.2c0,16.6-13,26.2-35.8,26.2
		C6833.4,2072.9,6825.1,2071.7,6818.6,2069.8z"/>
	<path class="st7" d="M6903.6,1983.9h17.6l-9,53.2h24.4v-58.4h17.2v58.4h9v15.8h-9v18.7h-17.2v-18.7h-44.5L6903.6,1983.9z"/>
	<path class="st7" d="M6974.4,2043.4h18.2c0,8.2,5,13,14.1,13c9,0,14.7-6,14.7-15.3c0-8.4-5.7-13.7-14.7-13.7
		c-5.4,0-10.3,1.2-15,3.7h-11.7l1.3-52.5h52.3v15.9h-35.9l-1.1,19.5c4.6-2,10.4-3.1,15.6-3.1c16.6,0,27.2,11.8,27.2,30.1
		c0,19.3-13.2,31.8-33.6,31.8C6985.9,2072.9,6974.4,2062.1,6974.4,2043.4z"/>
	<path class="st7" d="M7052,2037.2v-3.6c0-35.2,18.5-53.5,56.9-55.3l1.3,16.5c-26.8,1.1-39.8,12-39.8,33.1h1.7
		c2.4-9.7,9.7-15.2,20-15.2c16.2,0,25.4,10.7,25.4,29.6c0,19.4-11.6,30.6-32.1,30.6C7064.1,2072.9,7052,2060,7052,2037.2z
		 M7099.2,2042.3c0-8.4-5-13.2-14.1-13.2c-9.4,0-14.8,4.8-14.8,13.3c0,9.3,5.1,13.9,15.2,13.9
		C7094.2,2056.4,7099.2,2051.3,7099.2,2042.3z"/>
	<path class="st7" d="M7176.9,1994.6h-29.4v20h-17.3v-35.9h70.4l-29.8,92.9h-17.6L7176.9,1994.6z"/>
	<path class="st7" d="M7222.9,1978.7h25.2l-23,45.1h-13.2L7222.9,1978.7z M7251.7,1978.7h25.2l-23,45.1h-13.2L7251.7,1978.7z"/>
	<path class="st1" d="M7294.4,2068.3h1.6c18.6,0,29.1-15.9,29.1-43.5c0-27.1-10.4-42.7-29.1-42.7h-1.6l-1.3-16.4h4.2
		c29.1,0,45.9,21.5,45.9,59.1c0,38.1-16.8,59.9-45.9,59.9h-4.2L7294.4,2068.3z"/>
	<path class="st1" d="M7388.9,2055h19.5l-7.9,45.1h-16.9L7388.9,2055z"/>
	<path class="st1" d="M2664.8,2237.8c0-37.6,16.8-59.1,45.9-59.1h4.3l-1.3,16.4h-1.6c-18.6,0-29.1,15.6-29.1,42.7
		c0,27.6,10.5,43.5,29.1,43.5h1.6l1.3,16.4h-4.3C2681.6,2297.7,2664.8,2275.9,2664.8,2237.8z"/>
	<path class="st7" d="M2747.5,2191.7h25.2l-23,45.1h-13.2L2747.5,2191.7z M2776.3,2191.7h25.2l-23,45.1h-13.2L2776.3,2191.7z"/>
	<path class="st7" d="M2810.8,2238c0-30.2,15.6-47.6,42.9-47.6c12.3,0,22.2,4.1,27.2,11.5l-9.7,12.6c-3.9-4.8-10.3-7.7-17.3-7.7
		c-15,0-24.8,11.1-24.8,30.6c0,21.4,9.6,32.1,28.5,32.1c6.4,0,12.6-1.3,18.7-3.9l3,16c-7.7,3-15.7,4.4-23.9,4.4
		C2825.7,2285.9,2810.8,2270,2810.8,2238z"/>
	<path class="st7" d="M2935,2242.7c0-7.7-3.6-12.1-9.9-12.1c-8.8,0-13.3,6-13.3,18.3v35.7H2894v-98.1h17.7v41.4h1.7
		c1.3-9.3,6-13.9,16.3-13.9c14.7,0,23,9.3,23,25.5v45.1H2935V2242.7z"/>
	<path class="st7" d="M2970.4,2249.8c0-22.6,11.6-35.9,31.9-35.9c19.8,0,31.1,11.9,31.1,34c0,3.3-0.1,6.2-0.4,9h-44
		c2.7,8,9.8,12.2,20.7,12.2c6.3,0,12.3-0.7,18.6-1.8l1.7,16.8c-8.9,1.6-16.3,1.8-21.9,1.8C2984,2285.9,2970.4,2273.1,2970.4,2249.8z
		 M3015.9,2244.6c0-9.4-5-14.5-13.5-14.5c-8,0-13.1,5.2-14.3,14.5H3015.9z"/>
	<path class="st7" d="M3044.3,2300.6l12-1.3c9.6-1,15.6-5.2,20-14.7h-9.4l-23.3-69.4h18.8l17.2,54.3h1.6l15.2-54.3h18.8l-19.5,63.2
		c-7.9,25-18.5,34.3-37.9,36.2l-12.9,1.3L3044.3,2300.6z"/>
	<path class="st7" d="M3127.4,2249.8c0-22.6,11.6-35.9,31.9-35.9c19.8,0,31.1,11.9,31.1,34c0,3.3-0.1,6.2-0.4,9h-44
		c2.7,8,9.8,12.2,20.7,12.2c6.3,0,12.3-0.7,18.6-1.8l1.7,16.8c-8.9,1.6-16.3,1.8-21.9,1.8C3141,2285.9,3127.4,2273.1,3127.4,2249.8z
		 M3173,2244.6c0-9.4-5-14.5-13.5-14.5c-8,0-13.1,5.2-14.3,14.5H3173z"/>
	<path class="st7" d="M3249.1,2243.9c0-8.4-3.6-13.1-9.9-13.1c-8.8,0-13.3,6.3-13.3,19.2v34.6H3208v-69.4h15.8l1.6,12.6h2
		c1.3-9.3,6-13.9,16.3-13.9c14.7,0,23,9.3,23,25.5v45.1h-17.7V2243.9z"/>
	<path class="st7" d="M3327.6,2243.9c0-8.4-3.6-13.1-9.9-13.1c-8.8,0-13.3,6.3-13.3,19.2v34.6h-17.7v-69.4h15.8l1.6,12.6h2
		c1.3-9.3,6-13.9,16.3-13.9c14.7,0,23,9.3,23,25.5v45.1h-17.7V2243.9z"/>
	<path class="st7" d="M3363,2249.8c0-22.6,11.6-35.9,31.9-35.9c19.8,0,31.1,11.9,31.1,34c0,3.3-0.1,6.2-0.4,9h-44
		c2.7,8,9.8,12.2,20.7,12.2c6.3,0,12.3-0.7,18.6-1.8l1.7,16.8c-8.9,1.6-16.3,1.8-21.9,1.8C3376.6,2285.9,3363,2273.1,3363,2249.8z
		 M3408.5,2244.6c0-9.4-5-14.5-13.5-14.5c-8,0-13.1,5.2-14.3,14.5H3408.5z"/>
	<path class="st7" d="M3532.6,2191.7h25.2l-23,45.1h-13.2L3532.6,2191.7z M3561.4,2191.7h25.2l-23,45.1h-13.2L3561.4,2191.7z"/>
	<path class="st1" d="M3620.1,2268h19.5l-7.9,45.1h-16.9L3620.1,2268z"/>
	<path class="st7" d="M3777.4,2191.7h13.2l-11.3,45.1h-25.2L3777.4,2191.7z M3806.2,2191.7h13.2l-11.3,45.1h-25.2L3806.2,2191.7z"/>
	<path class="st7" d="M3856.9,2207.6h-26.5v-15.9h70.3v15.9h-26.5v77h-17.3V2207.6z"/>
	<path class="st7" d="M3955.7,2242.7c0-7.7-3.6-12.1-9.9-12.1c-8.8,0-13.3,6-13.3,18.3v35.7h-17.7v-98.1h17.7v41.4h1.7
		c1.3-9.3,6-13.9,16.3-13.9c14.7,0,23,9.3,23,25.5v45.1h-17.7V2242.7z"/>
	<path class="st7" d="M3991.1,2249.9c0-22.9,11.5-36,31.5-36s31.5,13.1,31.5,36s-11.5,36-31.5,36S3991.1,2272.8,3991.1,2249.9z
		 M4035.3,2249.9c0-12.3-4.6-19.2-12.7-19.2c-8,0-12.7,6.9-12.7,19.2c0,12.2,4.6,19.2,12.7,19.2
		C4030.7,2269.1,4035.3,2262.2,4035.3,2249.9z"/>
	<path class="st7" d="M4116.7,2237.6c0-4.8-1.4-7.2-4.2-7.2c-3.1,0-4.7,2.6-4.7,7.8v46.4h-13.2v-48.3c0-3.9-1.4-5.9-4.2-5.9
		c-3.3,0-5,2.6-5,7.8v46.4h-17.5v-69.4h15.9l0.9,8.6h1.6c0.9-6.4,4.6-9.9,10.5-9.9c5.5,0,9.2,3.3,10.5,9.9h1.6
		c0.8-6.2,5-9.9,11.6-9.9c9.4,0,13.5,4.8,13.5,16.4v54.3h-17.4V2237.6z"/>
	<path class="st7" d="M4169.7,2273.9h-1.7v40.8h-17.7v-99.5h16.4l1.1,12.6h1.9c1.6-9.3,6.9-13.9,17.3-13.9c17,0,26.7,13.3,26.7,36.6
		c0,22.8-9.7,35.3-26.6,35.3C4177.3,2285.9,4171.2,2281.9,4169.7,2273.9z M4181.9,2269.2c8.7,0,13.2-6.3,13.2-18.6
		c0-12.7-4.8-20-13.2-20c-9.3,0-13.9,6-13.9,18.4v4.1C4168,2263.9,4172.5,2269.2,4181.9,2269.2z"/>
	<path class="st7" d="M4228,2284l2.1-16.9c11,1.4,18.5,2.1,22.7,2.1c11.4,0,16.2-1.5,16.2-5.1c0-2.1-1.2-3.2-4.1-4.1l-21.9-6.5
		c-9.3-2.7-13.9-8-13.9-17.3c0-14.9,12.4-22.1,38-22.1c5.9,0,12.3,0.5,19.4,1.3l-1.9,16.4c-8-0.7-13.8-0.9-17.9-0.9
		c-13.2,0-18.8,1.4-18.8,4.9c0,2.2,1.2,3.2,3.9,4l18.8,5.4c11.9,3.4,17.8,9.2,17.8,19c0,14.7-11.6,21.9-35.5,21.9
		C4242.2,2285.9,4234.1,2285.3,4228,2284z"/>
	<path class="st7" d="M4305.2,2249.9c0-22.9,11.5-36,31.5-36s31.5,13.1,31.5,36s-11.5,36-31.5,36S4305.2,2272.8,4305.2,2249.9z
		 M4349.3,2249.9c0-12.3-4.6-19.2-12.7-19.2c-8,0-12.7,6.9-12.7,19.2c0,12.2,4.6,19.2,12.7,19.2
		C4344.8,2269.1,4349.3,2262.2,4349.3,2249.9z"/>
	<path class="st7" d="M4426.8,2243.9c0-8.4-3.6-13.1-9.9-13.1c-8.8,0-13.3,6.3-13.3,19.2v34.6h-17.7v-69.4h15.8l1.6,12.6h2
		c1.3-9.3,6-13.9,16.3-13.9c14.7,0,23,9.3,23,25.5v45.1h-17.7V2243.9z"/>
	<path class="st7" d="M4474.8,2191.7h25.2l-23,45.1h-13.2L4474.8,2191.7z M4503.6,2191.7h25.2l-23,45.1h-13.2L4503.6,2191.7z"/>
	<path class="st1" d="M4562.3,2268h19.5l-7.9,45.1h-16.9L4562.3,2268z"/>
	<path class="st7" d="M4719.6,2191.7h13.2l-11.3,45.1h-25.2L4719.6,2191.7z M4748.4,2191.7h13.2l-11.3,45.1h-25.2L4748.4,2191.7z"/>
	<path class="st7" d="M4776.3,2249.8c0-22.6,13-35.9,36.3-35.9c14.3,0,25,5.8,29.3,16l-12.8,10.2c-3.9-6-9.9-9.4-17-9.4
		c-10.7,0-17,6.6-17,18.4c0,13,8,20,22.4,20c6.3,0,12.6-0.7,18.5-1.7l1.8,16.6c-7.1,1.6-14.8,2-21.9,2
		C4790.6,2285.9,4776.3,2273.1,4776.3,2249.8z"/>
	<path class="st7" d="M4897.9,2242.7c0-7.7-3.6-12.1-9.9-12.1c-8.8,0-13.3,6-13.3,18.3v35.7h-17.7v-98.1h17.7v41.4h1.7
		c1.3-9.3,6-13.9,16.3-13.9c14.7,0,23,9.3,23,25.5v45.1h-17.7V2242.7z"/>
	<path class="st7" d="M4933.3,2249.8c0-22.6,11.6-35.9,31.9-35.9c19.8,0,31.1,11.9,31.1,34c0,3.3-0.1,6.2-0.4,9h-44
		c2.7,8,9.8,12.2,20.7,12.2c6.3,0,12.3-0.7,18.6-1.8l1.7,16.8c-8.9,1.6-16.3,1.8-21.9,1.8
		C4946.9,2285.9,4933.3,2273.1,4933.3,2249.8z M4978.8,2244.6c0-9.4-5-14.5-13.5-14.5c-8,0-13.1,5.2-14.3,14.5H4978.8z"/>
	<path class="st7" d="M5007.2,2300.6l12-1.3c9.6-1,15.6-5.2,20-14.7h-9.4l-23.3-69.4h18.8l17.2,54.3h1.6l15.2-54.3h18.8l-19.5,63.2
		c-7.9,25-18.5,34.3-37.9,36.2l-12.9,1.3L5007.2,2300.6z"/>
	<path class="st7" d="M5090.3,2249.8c0-22.6,11.6-35.9,31.9-35.9c19.8,0,31.1,11.9,31.1,34c0,3.3-0.1,6.2-0.4,9h-44
		c2.7,8,9.8,12.2,20.7,12.2c6.3,0,12.3-0.7,18.6-1.8l1.7,16.8c-8.9,1.6-16.3,1.8-21.9,1.8
		C5103.9,2285.9,5090.3,2273.1,5090.3,2249.8z M5135.9,2244.6c0-9.4-5-14.5-13.5-14.5c-8,0-13.1,5.2-14.3,14.5H5135.9z"/>
	<path class="st7" d="M5212,2243.9c0-8.4-3.6-13.1-9.9-13.1c-8.8,0-13.3,6.3-13.3,19.2v34.6h-17.7v-69.4h15.8l1.6,12.6h2
		c1.3-9.3,6-13.9,16.3-13.9c14.7,0,23,9.3,23,25.5v45.1H5212V2243.9z"/>
	<path class="st7" d="M5290.5,2243.9c0-8.4-3.6-13.1-9.9-13.1c-8.8,0-13.3,6.3-13.3,19.2v34.6h-17.7v-69.4h15.8l1.6,12.6h2
		c1.3-9.3,6-13.9,16.3-13.9c14.7,0,23,9.3,23,25.5v45.1h-17.7V2243.9z"/>
	<path class="st7" d="M5325.9,2249.8c0-22.6,11.6-35.9,31.9-35.9c19.8,0,31.1,11.9,31.1,34c0,3.3-0.1,6.2-0.4,9h-44
		c2.7,8,9.8,12.2,20.7,12.2c6.3,0,12.3-0.7,18.6-1.8l1.7,16.8c-8.9,1.6-16.3,1.8-21.9,1.8
		C5339.5,2285.9,5325.9,2273.1,5325.9,2249.8z M5371.4,2244.6c0-9.4-5-14.5-13.5-14.5c-8,0-13.1,5.2-14.3,14.5H5371.4z"/>
	<path class="st7" d="M5402.6,2245.5c0-36.8,11.5-55,34.6-55c20.4,0,30.7,12.4,30.7,37.4v47.4h-15.6v-13.9h-1.3
		c-1.4,9.7-6,15.2-12.2,15.2c-8.1,0-12.8-11.3-12.8-30.8c0-20.7,4.6-30.8,12.9-30.8c5.8,0,10.3,5.5,12.1,15.2h1.3v-2
		c0-14.9-5.1-22.2-15-22.2c-12.8,0-19.1,13.1-19.1,39.5c0,29.6,7.8,42.1,26.1,42.1c5.6,0,9.5-0.5,12.9-1.6v15.6
		c-3.7,1.2-7.5,1.6-12.9,1.6C5415,2303.3,5402.6,2286,5402.6,2245.5z M5452.2,2246.3c0-11.6-2.6-16.7-7.2-16.7
		c-4.1,0-6.3,4.9-6.3,16.2c0,10.3,2,16.2,5.4,16.2C5449.3,2262,5452.2,2256.3,5452.2,2246.3z"/>
	<path class="st7" d="M5484.2,2284l2.1-16.9c11,1.4,18.5,2.1,22.7,2.1c11.4,0,16.2-1.5,16.2-5.1c0-2.1-1.2-3.2-4.1-4.1l-21.9-6.5
		c-9.3-2.7-13.9-8-13.9-17.3c0-14.9,12.4-22.1,38-22.1c5.9,0,12.3,0.5,19.4,1.3l-1.9,16.4c-8-0.7-13.8-0.9-17.9-0.9
		c-13.2,0-18.8,1.4-18.8,4.9c0,2.2,1.2,3.2,3.9,4l18.8,5.4c11.9,3.4,17.8,9.2,17.8,19c0,14.7-11.6,21.9-35.5,21.9
		C5498.4,2285.9,5490.4,2285.3,5484.2,2284z"/>
	<path class="st7" d="M5562.7,2261.1v-45.8h17.7v41.4c0,8,3.8,12.4,10.2,12.4c8.3,0,12.6-5.8,12.6-20.9v-32.9h17.7v53.5l9.6,1.4
		v14.4l-26.1,0.7l-1-14h-2c-2.2,9.4-8.8,14.7-17.9,14.7C5570.3,2285.9,5562.7,2276.9,5562.7,2261.1z"/>
	<path class="st7" d="M5661.5,2273.9h-1.7v40.8H5642v-99.5h16.4l1.1,12.6h1.9c1.6-9.3,6.9-13.9,17.3-13.9c17,0,26.7,13.3,26.7,36.6
		c0,22.8-9.7,35.3-26.6,35.3C5669.1,2285.9,5663,2281.9,5661.5,2273.9z M5673.7,2269.2c8.7,0,13.2-6.3,13.2-18.6
		c0-12.7-4.8-20-13.2-20c-9.3,0-13.9,6-13.9,18.4v4.1C5659.8,2263.9,5664.3,2269.2,5673.7,2269.2z"/>
	<path class="st7" d="M5718.5,2249.8c0-22.6,11.6-35.9,31.9-35.9c19.8,0,31.1,11.9,31.1,34c0,3.3-0.1,6.2-0.4,9h-44
		c2.7,8,9.8,12.2,20.7,12.2c6.3,0,12.3-0.7,18.6-1.8l1.7,16.8c-8.9,1.6-16.3,1.8-21.9,1.8
		C5732.1,2285.9,5718.5,2273.1,5718.5,2249.8z M5764,2244.6c0-9.4-5-14.5-13.5-14.5c-8,0-13.1,5.2-14.3,14.5H5764z"/>
	<path class="st7" d="M5825.6,2269.4h16.2v15.2h-48.5v-15.2h14.7v-39h-12v-15.2h27.1l2,15.6h2.5c0.7-11.4,6.5-16.9,17.7-16.9
		c13.2,0,20.4,10,20.4,28.2h-17.6c0-8.2-2.9-11.5-9.6-11.5c-8.6,0-12.9,8.7-12.9,24.1V2269.4z"/>
	<path class="st7" d="M5876.8,2284l2.1-16.9c11,1.4,18.5,2.1,22.7,2.1c11.4,0,16.2-1.5,16.2-5.1c0-2.1-1.2-3.2-4.1-4.1l-21.9-6.5
		c-9.3-2.7-13.9-8-13.9-17.3c0-14.9,12.4-22.1,38-22.1c5.9,0,12.3,0.5,19.4,1.3l-1.9,16.4c-8-0.7-13.8-0.9-17.9-0.9
		c-13.2,0-18.8,1.4-18.8,4.9c0,2.2,1.2,3.2,3.9,4l18.8,5.4c11.9,3.4,17.8,9.2,17.8,19c0,14.7-11.6,21.9-35.5,21.9
		C5891,2285.9,5882.9,2285.3,5876.8,2284z"/>
	<path class="st7" d="M5965.6,2255.7v-24.1H5949v-16.3h16.6v-20.9h17.7v20.9h30.8v16.3h-30.8v22.4c0,10.6,5,15.1,17.5,15.1
		c4,0,8.4-0.5,14.3-1.3l1.6,16.6c-5.8,1-10.9,1.6-17.1,1.6C5975.6,2285.9,5965.6,2276.8,5965.6,2255.7z"/>
	<path class="st7" d="M6032.5,2249.9c0-22.9,11.5-36,31.5-36s31.5,13.1,31.5,36s-11.5,36-31.5,36S6032.5,2272.8,6032.5,2249.9z
		 M6076.7,2249.9c0-12.3-4.6-19.2-12.7-19.2c-8,0-12.7,6.9-12.7,19.2c0,12.2,4.6,19.2,12.7,19.2
		C6072.1,2269.1,6076.7,2262.2,6076.7,2249.9z"/>
	<path class="st7" d="M6139.7,2269.4h16.2v15.2h-48.5v-15.2h14.7v-39h-12v-15.2h27.1l2,15.6h2.5c0.7-11.4,6.5-16.9,17.7-16.9
		c13.2,0,20.4,10,20.4,28.2h-17.6c0-8.2-2.9-11.5-9.6-11.5c-8.6,0-12.9,8.7-12.9,24.1V2269.4z"/>
	<path class="st7" d="M6189.5,2249.8c0-22.6,11.6-35.9,31.9-35.9c19.8,0,31.1,11.9,31.1,34c0,3.3-0.1,6.2-0.4,9h-44
		c2.7,8,9.8,12.2,20.7,12.2c6.3,0,12.3-0.7,18.6-1.8l1.7,16.8c-8.9,1.6-16.3,1.8-21.9,1.8
		C6203.2,2285.9,6189.5,2273.1,6189.5,2249.8z M6235.1,2244.6c0-9.4-5-14.5-13.5-14.5c-8,0-13.1,5.2-14.3,14.5H6235.1z"/>
	<path class="st7" d="M6287.6,2274c0-6.6,5.3-11.9,11.9-11.9s11.9,5.3,11.9,11.9c0,6.5-5.3,11.9-11.9,11.9
		S6287.6,2280.6,6287.6,2274z"/>
	<path class="st7" d="M6346.6,2249.8c0-22.6,13-35.9,36.3-35.9c14.3,0,25,5.8,29.3,16l-12.8,10.2c-3.9-6-9.9-9.4-17-9.4
		c-10.7,0-17,6.6-17,18.4c0,13,8,20,22.4,20c6.3,0,12.6-0.7,18.5-1.7l1.8,16.6c-7.1,1.6-14.8,2-21.9,2
		C6360.9,2285.9,6346.6,2273.1,6346.6,2249.8z"/>
	<path class="st7" d="M6425.1,2249.9c0-22.9,11.5-36,31.5-36s31.5,13.1,31.5,36s-11.5,36-31.5,36S6425.1,2272.8,6425.1,2249.9z
		 M6469.3,2249.9c0-12.3-4.6-19.2-12.7-19.2c-8,0-12.7,6.9-12.7,19.2c0,12.2,4.6,19.2,12.7,19.2
		C6464.7,2269.1,6469.3,2262.2,6469.3,2249.9z"/>
	<path class="st7" d="M6550.7,2237.6c0-4.8-1.4-7.2-4.2-7.2c-3.1,0-4.7,2.6-4.7,7.8v46.4h-13.2v-48.3c0-3.9-1.4-5.9-4.2-5.9
		c-3.3,0-5,2.6-5,7.8v46.4H6502v-69.4h15.9l0.9,8.6h1.6c0.9-6.4,4.6-9.9,10.5-9.9c5.5,0,9.2,3.3,10.5,9.9h1.6
		c0.8-6.2,5-9.9,11.6-9.9c9.4,0,13.5,4.8,13.5,16.4v54.3h-17.4V2237.6z"/>
	<path class="st7" d="M6594.8,2191.7h25.2l-23,45.1h-13.2L6594.8,2191.7z M6623.5,2191.7h25.2l-23,45.1h-13.2L6623.5,2191.7z"/>
	<path class="st1" d="M6682.2,2268h19.5l-7.9,45.1H6677L6682.2,2268z"/>
	<path class="st7" d="M6839.5,2191.7h13.2l-11.3,45.1h-25.2L6839.5,2191.7z M6868.3,2191.7h13.2l-11.3,45.1H6845L6868.3,2191.7z"/>
	<path class="st7" d="M6897.1,2282.8l1.6-16.9c5.6,1.5,12.1,3.6,22.8,3.6c11.5,0,18.1-4.2,18.1-11.5c0-8-8.8-12.6-24.3-12.6h-2.1
		l-1.6-15c18.3-2.3,26-8,26-15.8c0-4.8-3.3-7.7-9.7-7.7c-7,0-15.9,2.8-23.4,8.3l-9-13.3c8.4-8,19.2-11.4,32.7-11.4
		c17.7,0,27.7,7.5,27.7,20.8c0,11.7-8.8,20.9-21.6,24.1v2.2c14.1,1.3,23.6,9.4,23.6,22.2c0,16.6-13,26.2-35.8,26.2
		C6912,2285.9,6903.6,2284.7,6897.1,2282.8z"/>
	<path class="st7" d="M6976.9,2269.3h22.4v-60.8l-21.1,7.6v-16.5l21.1-7.9h17.7v77.6h19.9v15.3h-59.9V2269.3z"/>
	<path class="st7" d="M7060.6,2196.9h17.6l-9,53.2h24.4v-58.4h17.2v58.4h9v15.8h-9v18.7h-17.2v-18.7h-44.5L7060.6,2196.9z"/>
	<path class="st7" d="M7134.1,2266.2c27.3-14.4,40.6-30.1,40.6-46.7c0-8.4-4.1-12.7-12.6-12.7c-7.5,0-16.2,4.4-22,11.3l-10.1-11.7
		c6.4-9.6,19.4-16,32.4-16c20.3,0,30.4,9.3,30.4,28c0,17.3-10.2,33.2-31.2,47.8v2.5h35.1v15.9h-62.7V2266.2z"/>
	<path class="st7" d="M7211.2,2282.8l1.6-16.9c5.6,1.5,12.1,3.6,22.8,3.6c11.5,0,18.1-4.2,18.1-11.5c0-8-8.8-12.6-24.3-12.6h-2.1
		l-1.6-15c18.3-2.3,26-8,26-15.8c0-4.8-3.3-7.7-9.7-7.7c-7,0-15.9,2.8-23.4,8.3l-9-13.3c8.4-8,19.2-11.4,32.7-11.4
		c17.7,0,27.7,7.5,27.7,20.8c0,11.7-8.8,20.9-21.6,24.1v2.2c14.1,1.3,23.6,9.4,23.6,22.2c0,16.6-13,26.2-35.8,26.2
		C7226,2285.9,7217.6,2284.7,7211.2,2282.8z"/>
	<path class="st7" d="M7296.2,2196.9h17.6l-9,53.2h24.4v-58.4h17.2v58.4h9v15.8h-9v18.7h-17.2v-18.7h-44.5L7296.2,2196.9z"/>
	<path class="st7" d="M7367,2256.4h18.2c0,8.2,5,13,14.1,13c9,0,14.7-6,14.7-15.3c0-8.4-5.7-13.7-14.7-13.7c-5.4,0-10.3,1.2-15,3.7
		h-11.7l1.3-52.5h52.3v15.9h-35.9l-1.1,19.5c4.6-2,10.4-3.1,15.6-3.1c16.6,0,27.2,11.8,27.2,30.1c0,19.3-13.2,31.8-33.6,31.8
		C7378.5,2285.9,7367,2275.1,7367,2256.4z"/>
	<path class="st7" d="M7444.6,2250.2v-3.6c0-35.2,18.5-53.5,56.9-55.3l1.3,16.5c-26.8,1.1-39.8,12-39.8,33.1h1.7
		c2.4-9.7,9.7-15.2,20-15.2c16.2,0,25.4,10.7,25.4,29.6c0,19.4-11.6,30.6-32.1,30.6C7456.7,2285.9,7444.6,2273,7444.6,2250.2z
		 M7491.8,2255.3c0-8.4-5-13.2-14.1-13.2c-9.4,0-14.8,4.8-14.8,13.3c0,9.3,5.1,13.9,15.2,13.9
		C7486.8,2269.4,7491.8,2264.3,7491.8,2255.3z"/>
	<path class="st7" d="M7569.5,2207.6h-29.4v20h-17.3v-35.9h70.4l-29.8,92.9h-17.6L7569.5,2207.6z"/>
	<path class="st7" d="M7601.5,2259.1c0-12.6,7.9-20.9,21.9-23.6v-0.8c-12.4-2.6-19.3-9.8-19.3-20.8c0-14.9,11-23.6,30.2-23.6
		s30.2,8.6,30.2,23.6c0,10.9-6.9,18.3-19.2,20.8v0.9c14,2.7,21.8,10.9,21.8,23.5c0,17-11.9,26.8-32.8,26.8
		S7601.5,2276.1,7601.5,2259.1z M7648.9,2256.5c0-8.1-5.3-12.8-14.6-12.8s-14.6,4.7-14.6,12.8c0,8.2,5.3,12.9,14.6,12.9
		S7648.9,2264.8,7648.9,2256.5z M7646.3,2217.4c0-6.7-4.4-10.5-12-10.5s-12,3.8-12,10.5c0,6.3,4.4,10,12,10
		S7646.3,2223.7,7646.3,2217.4z"/>
	<path class="st7" d="M7694,2191.7h25.2l-23,45.1h-13.2L7694,2191.7z M7722.8,2191.7h25.2l-23,45.1h-13.2L7722.8,2191.7z"/>
	<path class="st1" d="M7765.5,2281.3h1.6c18.6,0,29.1-15.9,29.1-43.5c0-27.1-10.4-42.7-29.1-42.7h-1.6l-1.3-16.4h4.2
		c29.1,0,45.9,21.5,45.9,59.1c0,38.1-16.8,59.9-45.9,59.9h-4.2L7765.5,2281.3z"/>
	<path class="st1" d="M7860,2268h19.5l-7.9,45.1h-16.9L7860,2268z"/>
	<path class="st1" d="M2664.8,2450.8c0-37.6,16.8-59.1,45.9-59.1h4.3l-1.3,16.4h-1.6c-18.6,0-29.1,15.6-29.1,42.7
		c0,27.6,10.5,43.5,29.1,43.5h1.6l1.3,16.4h-4.3C2681.6,2510.7,2664.8,2488.9,2664.8,2450.8z"/>
	<path class="st7" d="M2747.5,2404.7h25.2l-23,45.1h-13.2L2747.5,2404.7z M2776.3,2404.7h25.2l-23,45.1h-13.2L2776.3,2404.7z"/>
	<path class="st7" d="M2812.9,2493.8l2.4-17.7c9.6,4.1,19.4,6.3,27.4,6.3c9.3,0,14.5-3.4,14.5-9.6c0-3.9-2.8-7.4-7.7-9.7l-13.3-6.5
		c-13.2-6.4-20.7-16.2-20.7-27.7c0-16.2,11.2-25.5,30.8-25.5c11.4,0,21.9,4.1,29.9,11.7l-11.9,13.7c-6-5.8-12.3-9-17.9-9
		c-7.7,0-12.2,3.4-12.2,9.6c0,4.1,3.1,7.9,8.7,10.8l12.6,6.5c13.1,6.8,20.5,16.1,20.5,26.5c0,16.5-12.3,25.8-34.2,25.8
		C2831.1,2498.9,2820.8,2497.1,2812.9,2493.8z"/>
	<path class="st7" d="M2935,2483h-1.6c-1.2,10.7-8.8,16-20.8,16c-14.8,0-23.4-7.5-23.4-20.9c0-15.5,11.2-24.1,30.9-24.1
		c5.8,0,10,0.5,14.2,1.4v-0.2c0-7.4-6.3-10.7-18.8-11l-17.7-0.5l1.3-16.1l15.1,0.2c25.1,0.3,37.2,10,37.2,28.3v25.6l9.6,1.4v14.4
		l-24.9,0.7L2935,2483z M2921,2468.9c-9,0-13.7,2.7-13.7,7.9c0,4.7,3.4,7.3,9.7,7.3c11.3,0,17.1-7.1,17.3-14.1
		C2929.3,2468.9,2925.6,2468.9,2921,2468.9z"/>
	<path class="st7" d="M3013.5,2456.9c0-8.4-3.6-13.1-9.9-13.1c-8.8,0-13.3,6.3-13.3,19.2v34.6h-17.7v-69.4h15.8l1.6,12.6h2
		c1.3-9.3,6-13.9,16.3-13.9c14.7,0,23,9.3,23,25.5v45.1h-17.7V2456.9z"/>
	<path class="st7" d="M3046.3,2463.6c0-23.3,9.7-36.6,26.7-36.6c10.5,0,15.7,4.6,17.3,13.9h1.7v-41.4h17.7v98.1l-15.2,0.7l-2.2-11.4
		h-1.8c-1.4,8-7.7,12-17.7,12C3056.1,2498.9,3046.3,2486.4,3046.3,2463.6z M3077.8,2443.6c-8.2,0-12.8,7.3-12.8,20
		c0,11.6,4.4,17.5,12.8,17.5c9.6,0,14.3-5,14.3-15v-3.7C3092,2449.8,3087.3,2443.6,3077.8,2443.6z"/>
	<path class="st7" d="M3156.1,2482.4h16.2v15.2h-48.5v-15.2h14.7v-39h-12v-15.2h27.1l2,15.6h2.5c0.7-11.4,6.5-16.9,17.7-16.9
		c13.2,0,20.4,10,20.4,28.2h-17.6c0-8.2-2.9-11.5-9.6-11.5c-8.6,0-12.9,8.7-12.9,24.1V2482.4z"/>
	<path class="st7" d="M3249.1,2483h-1.6c-1.2,10.7-8.8,16-20.8,16c-14.8,0-23.4-7.5-23.4-20.9c0-15.5,11.2-24.1,30.9-24.1
		c5.8,0,10,0.5,14.2,1.4v-0.2c0-7.4-6.3-10.7-18.8-11l-17.7-0.5l1.3-16.1l15.1,0.2c25.1,0.3,37.2,10,37.2,28.3v25.6l9.6,1.4v14.4
		l-24.9,0.7L3249.1,2483z M3235.1,2468.9c-9,0-13.7,2.7-13.7,7.9c0,4.7,3.4,7.3,9.7,7.3c11.3,0,17.1-7.1,17.3-14.1
		C3243.4,2468.9,3239.6,2468.9,3235.1,2468.9z"/>
	<path class="st7" d="M3375.6,2404.7h25.2l-23,45.1h-13.2L3375.6,2404.7z M3404.4,2404.7h25.2l-23,45.1h-13.2L3404.4,2404.7z"/>
	<path class="st1" d="M3463.1,2481h19.5l-7.9,45.1h-16.9L3463.1,2481z"/>
	<path class="st7" d="M3620.4,2404.7h13.2l-11.3,45.1h-25.2L3620.4,2404.7z M3649.2,2404.7h13.2l-11.3,45.1h-25.2L3649.2,2404.7z"/>
	<path class="st7" d="M3678.6,2404.7h17.3v45.4c20.1-3.7,29.2-24.3,29.2-45.4h17.5c0,18.5-6.3,36.2-17.9,48.1l22.4,44.8h-21.3
		l-15.6-34.4c-4.4,2-9.1,3.5-14.3,4.3v30.1h-17.3V2404.7z"/>
	<path class="st7" d="M3798.7,2483h-1.6c-1.2,10.7-8.8,16-20.8,16c-14.8,0-23.4-7.5-23.4-20.9c0-15.5,11.2-24.1,30.9-24.1
		c5.8,0,10,0.5,14.2,1.4v-0.2c0-7.4-6.3-10.7-18.8-11l-17.7-0.5l1.3-16.1l15.1,0.2c25.1,0.3,37.2,10,37.2,28.3v25.6l9.6,1.4v14.4
		l-24.9,0.7L3798.7,2483z M3784.7,2468.9c-9,0-13.7,2.7-13.7,7.9c0,4.7,3.4,7.3,9.7,7.3c11.3,0,17.1-7.1,17.3-14.1
		C3793,2468.9,3789.3,2468.9,3784.7,2468.9z"/>
	<path class="st7" d="M3850.6,2468.7v-52.9h-19.6v-16.3h37.3v68.6c0,8.7,1.9,12.4,12.2,12.4c4.1,0,8.5-0.8,14.5-2.5l2,18.2
		c-7.5,2-13.9,2.7-21.8,2.7C3857.8,2498.9,3850.6,2489.8,3850.6,2468.7z"/>
	<path class="st7" d="M3913.9,2474.1v-45.8h17.7v41.4c0,8,3.8,12.4,10.2,12.4c8.3,0,12.6-5.8,12.6-20.9v-32.9h17.7v53.5l9.6,1.4
		v14.4l-26.1,0.7l-1-14h-2c-2.2,9.4-8.8,14.7-17.9,14.7C3921.4,2498.9,3913.9,2489.9,3913.9,2474.1z"/>
	<path class="st7" d="M3992.7,2481.3h25.6v-36.6h-21.7v-16.4h39.4v53.1h20.5v16.3h-63.9V2481.3z M4015.1,2407.6
		c0-6.7,4.6-11.3,11.3-11.3s11.3,4.6,11.3,11.3s-4.6,11.3-11.3,11.3S4015.1,2414.3,4015.1,2407.6z"/>
	<path class="st7" d="M4069.6,2462.9c0-22.9,11.5-36,31.5-36c20,0,31.5,13.1,31.5,36s-11.5,36-31.5,36
		C4081.1,2498.9,4069.6,2485.8,4069.6,2462.9z M4113.8,2462.9c0-12.3-4.6-19.2-12.7-19.2c-8,0-12.7,6.9-12.7,19.2
		c0,12.2,4.6,19.2,12.7,19.2C4109.2,2482.1,4113.8,2475.2,4113.8,2462.9z"/>
	<path class="st7" d="M4149.7,2399.5h17.7v56.7h1c15.6,0,22.2-7.5,24.9-27.9h18.3c-2.1,16.4-6.9,28.3-14.7,35.7l19.1,33.7h-21
		l-13-25.8c-3.1,0.7-6.6,1.1-10.3,1.1h-4.3v24.7h-17.7V2399.5z"/>
	<path class="st7" d="M4269.8,2483h-1.6c-1.2,10.7-8.8,16-20.8,16c-14.8,0-23.4-7.5-23.4-20.9c0-15.5,11.2-24.1,30.9-24.1
		c5.8,0,10,0.5,14.2,1.4v-0.2c0-7.4-6.3-10.7-18.8-11l-17.7-0.5l1.3-16.1l15.1,0.2c25.1,0.3,37.2,10,37.2,28.3v25.6l9.6,1.4v14.4
		l-24.9,0.7L4269.8,2483z M4255.8,2468.9c-9,0-13.7,2.7-13.7,7.9c0,4.7,3.4,7.3,9.7,7.3c11.3,0,17.1-7.1,17.3-14.1
		C4264.1,2468.9,4260.4,2468.9,4255.8,2468.9z"/>
	<path class="st7" d="M4321.7,2468.7v-52.9H4302v-16.3h37.3v68.6c0,8.7,1.9,12.4,12.2,12.4c4.1,0,8.5-0.8,14.5-2.5l2,18.2
		c-7.5,2-13.9,2.7-21.8,2.7C4328.9,2498.9,4321.7,2489.8,4321.7,2468.7z"/>
	<path class="st7" d="M4426.8,2483h-1.6c-1.2,10.7-8.8,16-20.8,16c-14.8,0-23.4-7.5-23.4-20.9c0-15.5,11.2-24.1,30.9-24.1
		c5.8,0,10,0.5,14.2,1.4v-0.2c0-7.4-6.3-10.7-18.8-11l-17.7-0.5l1.3-16.1l15.1,0.2c25.1,0.3,37.2,10,37.2,28.3v25.6l9.6,1.4v14.4
		l-24.9,0.7L4426.8,2483z M4412.8,2468.9c-9,0-13.7,2.7-13.7,7.9c0,4.7,3.4,7.3,9.7,7.3c11.3,0,17.1-7.1,17.3-14.1
		C4421.1,2468.9,4417.4,2468.9,4412.8,2468.9z"/>
	<path class="st7" d="M4505.3,2456.9c0-8.4-3.6-13.1-9.9-13.1c-8.8,0-13.3,6.3-13.3,19.2v34.6h-17.7v-69.4h15.8l1.6,12.6h2
		c1.3-9.3,6-13.9,16.3-13.9c14.7,0,23,9.3,23,25.5v45.1h-17.7V2456.9z"/>
	<path class="st7" d="M4542.3,2481.3h25.6v-36.6h-21.7v-16.4h39.4v53.1h20.5v16.3h-63.9V2481.3z M4564.7,2407.6
		c0-6.7,4.6-11.3,11.3-11.3s11.3,4.6,11.3,11.3s-4.6,11.3-11.3,11.3S4564.7,2414.3,4564.7,2407.6z"/>
	<path class="st7" d="M4631.9,2404.7h25.2l-23,45.1h-13.2L4631.9,2404.7z M4660.6,2404.7h25.2l-23,45.1h-13.2L4660.6,2404.7z"/>
	<path class="st1" d="M4719.3,2481h19.5l-7.9,45.1h-16.9L4719.3,2481z"/>
	<path class="st7" d="M4876.6,2404.7h13.2l-11.3,45.1h-25.2L4876.6,2404.7z M4905.4,2404.7h13.2l-11.3,45.1h-25.2L4905.4,2404.7z"/>
	<path class="st7" d="M4934.6,2497l2.1-16.9c11,1.4,18.5,2.1,22.7,2.1c11.4,0,16.2-1.5,16.2-5.1c0-2.1-1.2-3.2-4.1-4.1l-21.9-6.5
		c-9.3-2.7-13.9-8-13.9-17.3c0-14.9,12.4-22.1,38-22.1c5.9,0,12.3,0.5,19.4,1.3l-1.9,16.4c-8-0.7-13.8-0.9-17.9-0.9
		c-13.2,0-18.8,1.4-18.8,4.9c0,2.2,1.2,3.2,3.9,4l18.8,5.4c11.9,3.4,17.8,9.2,17.8,19c0,14.7-11.6,21.9-35.5,21.9
		C4948.8,2498.9,4940.8,2498.3,4934.6,2497z"/>
	<path class="st7" d="M5054.9,2483h-1.6c-1.2,10.7-8.8,16-20.8,16c-14.8,0-23.4-7.5-23.4-20.9c0-15.5,11.2-24.1,30.9-24.1
		c5.8,0,10,0.5,14.2,1.4v-0.2c0-7.4-6.3-10.7-18.8-11l-17.7-0.5l1.3-16.1l15.1,0.2c25.1,0.3,37.2,10,37.2,28.3v25.6l9.6,1.4v14.4
		l-24.9,0.7L5054.9,2483z M5040.9,2468.9c-9,0-13.7,2.7-13.7,7.9c0,4.7,3.4,7.3,9.7,7.3c11.3,0,17.1-7.1,17.3-14.1
		C5049.2,2468.9,5045.5,2468.9,5040.9,2468.9z"/>
	<path class="st7" d="M5133.4,2456.9c0-8.4-3.6-13.1-9.9-13.1c-8.8,0-13.3,6.3-13.3,19.2v34.6h-17.7v-69.4h15.8l1.6,12.6h2
		c1.3-9.3,6-13.9,16.3-13.9c14.7,0,23,9.3,23,25.5v45.1h-17.7V2456.9z"/>
	<path class="st7" d="M5166.2,2463.6c0-23.3,9.7-36.6,26.7-36.6c10.5,0,15.7,4.6,17.3,13.9h1.7v-41.4h17.7v98.1l-15.2,0.7l-2.2-11.4
		h-1.8c-1.4,8-7.7,12-17.7,12C5176,2498.9,5166.2,2486.4,5166.2,2463.6z M5197.7,2443.6c-8.2,0-12.8,7.3-12.8,20
		c0,11.6,4.4,17.5,12.8,17.5c9.6,0,14.3-5,14.3-15v-3.7C5212,2449.8,5207.2,2443.6,5197.7,2443.6z"/>
	<path class="st7" d="M5276,2482.4h16.2v15.2h-48.5v-15.2h14.7v-39h-12v-15.2h27.1l2,15.6h2.5c0.7-11.4,6.5-16.9,17.7-16.9
		c13.2,0,20.4,10,20.4,28.2h-17.6c0-8.2-2.9-11.5-9.6-11.5c-8.6,0-12.9,8.7-12.9,24.1V2482.4z"/>
	<path class="st7" d="M5369,2483h-1.6c-1.2,10.7-8.8,16-20.8,16c-14.8,0-23.4-7.5-23.4-20.9c0-15.5,11.2-24.1,30.9-24.1
		c5.8,0,10,0.5,14.2,1.4v-0.2c0-7.4-6.3-10.7-18.8-11l-17.7-0.5l1.3-16.1l15.1,0.2c25.1,0.3,37.2,10,37.2,28.3v25.6l9.6,1.4v14.4
		l-24.9,0.7L5369,2483z M5355,2468.9c-9,0-13.7,2.7-13.7,7.9c0,4.7,3.4,7.3,9.7,7.3c11.3,0,17.1-7.1,17.3-14.1
		C5363.3,2468.9,5359.6,2468.9,5355,2468.9z"/>
	<path class="st7" d="M5402.6,2458.5c0-36.8,11.5-55,34.6-55c20.4,0,30.7,12.4,30.7,37.4v47.4h-15.6v-13.9h-1.3
		c-1.4,9.7-6,15.2-12.2,15.2c-8.1,0-12.8-11.3-12.8-30.8c0-20.7,4.6-30.8,12.9-30.8c5.8,0,10.3,5.5,12.1,15.2h1.3v-2
		c0-14.9-5.1-22.2-15-22.2c-12.8,0-19.1,13.1-19.1,39.5c0,29.6,7.8,42.1,26.1,42.1c5.6,0,9.5-0.5,12.9-1.6v15.6
		c-3.7,1.2-7.5,1.6-12.9,1.6C5415,2516.3,5402.6,2499,5402.6,2458.5z M5452.2,2459.3c0-11.6-2.6-16.7-7.2-16.7
		c-4.1,0-6.3,4.9-6.3,16.2c0,10.3,2,16.2,5.4,16.2C5449.3,2475,5452.2,2469.3,5452.2,2459.3z"/>
	<path class="st7" d="M5484.2,2497l2.1-16.9c11,1.4,18.5,2.1,22.7,2.1c11.4,0,16.2-1.5,16.2-5.1c0-2.1-1.2-3.2-4.1-4.1l-21.9-6.5
		c-9.3-2.7-13.9-8-13.9-17.3c0-14.9,12.4-22.1,38-22.1c5.9,0,12.3,0.5,19.4,1.3l-1.9,16.4c-8-0.7-13.8-0.9-17.9-0.9
		c-13.2,0-18.8,1.4-18.8,4.9c0,2.2,1.2,3.2,3.9,4l18.8,5.4c11.9,3.4,17.8,9.2,17.8,19c0,14.7-11.6,21.9-35.5,21.9
		C5498.4,2498.9,5490.4,2498.3,5484.2,2497z"/>
	<path class="st7" d="M5562.7,2474.1v-45.8h17.7v41.4c0,8,3.8,12.4,10.2,12.4c8.3,0,12.6-5.8,12.6-20.9v-32.9h17.7v53.5l9.6,1.4
		v14.4l-26.1,0.7l-1-14h-2c-2.2,9.4-8.8,14.7-17.9,14.7C5570.3,2498.9,5562.7,2489.9,5562.7,2474.1z"/>
	<path class="st7" d="M5661.5,2486.9h-1.7v40.8H5642v-99.5h16.4l1.1,12.6h1.9c1.6-9.3,6.9-13.9,17.3-13.9c17,0,26.7,13.3,26.7,36.6
		c0,22.8-9.7,35.3-26.6,35.3C5669.1,2498.9,5663,2494.9,5661.5,2486.9z M5673.7,2482.2c8.7,0,13.2-6.3,13.2-18.6
		c0-12.7-4.8-20-13.2-20c-9.3,0-13.9,6-13.9,18.4v4.1C5659.8,2476.9,5664.3,2482.2,5673.7,2482.2z"/>
	<path class="st7" d="M5718.5,2462.8c0-22.6,11.6-35.9,31.9-35.9c19.8,0,31.1,11.9,31.1,34c0,3.3-0.1,6.2-0.4,9h-44
		c2.7,8,9.8,12.2,20.7,12.2c6.3,0,12.3-0.7,18.6-1.8l1.7,16.8c-8.9,1.6-16.3,1.8-21.9,1.8
		C5732.1,2498.9,5718.5,2486.1,5718.5,2462.8z M5764,2457.6c0-9.4-5-14.5-13.5-14.5c-8,0-13.1,5.2-14.3,14.5H5764z"/>
	<path class="st7" d="M5825.6,2482.4h16.2v15.2h-48.5v-15.2h14.7v-39h-12v-15.2h27.1l2,15.6h2.5c0.7-11.4,6.5-16.9,17.7-16.9
		c13.2,0,20.4,10,20.4,28.2h-17.6c0-8.2-2.9-11.5-9.6-11.5c-8.6,0-12.9,8.7-12.9,24.1V2482.4z"/>
	<path class="st7" d="M5876.8,2497l2.1-16.9c11,1.4,18.5,2.1,22.7,2.1c11.4,0,16.2-1.5,16.2-5.1c0-2.1-1.2-3.2-4.1-4.1l-21.9-6.5
		c-9.3-2.7-13.9-8-13.9-17.3c0-14.9,12.4-22.1,38-22.1c5.9,0,12.3,0.5,19.4,1.3l-1.9,16.4c-8-0.7-13.8-0.9-17.9-0.9
		c-13.2,0-18.8,1.4-18.8,4.9c0,2.2,1.2,3.2,3.9,4l18.8,5.4c11.9,3.4,17.8,9.2,17.8,19c0,14.7-11.6,21.9-35.5,21.9
		C5891,2498.9,5882.9,2498.3,5876.8,2497z"/>
	<path class="st7" d="M5965.6,2468.7v-24.1H5949v-16.3h16.6v-20.9h17.7v20.9h30.8v16.3h-30.8v22.4c0,10.6,5,15.1,17.5,15.1
		c4,0,8.4-0.5,14.3-1.3l1.6,16.6c-5.8,1-10.9,1.6-17.1,1.6C5975.6,2498.9,5965.6,2489.8,5965.6,2468.7z"/>
	<path class="st7" d="M6032.5,2462.9c0-22.9,11.5-36,31.5-36s31.5,13.1,31.5,36s-11.5,36-31.5,36S6032.5,2485.8,6032.5,2462.9z
		 M6076.7,2462.9c0-12.3-4.6-19.2-12.7-19.2c-8,0-12.7,6.9-12.7,19.2c0,12.2,4.6,19.2,12.7,19.2
		C6072.1,2482.1,6076.7,2475.2,6076.7,2462.9z"/>
	<path class="st7" d="M6139.7,2482.4h16.2v15.2h-48.5v-15.2h14.7v-39h-12v-15.2h27.1l2,15.6h2.5c0.7-11.4,6.5-16.9,17.7-16.9
		c13.2,0,20.4,10,20.4,28.2h-17.6c0-8.2-2.9-11.5-9.6-11.5c-8.6,0-12.9,8.7-12.9,24.1V2482.4z"/>
	<path class="st7" d="M6189.5,2462.8c0-22.6,11.6-35.9,31.9-35.9c19.8,0,31.1,11.9,31.1,34c0,3.3-0.1,6.2-0.4,9h-44
		c2.7,8,9.8,12.2,20.7,12.2c6.3,0,12.3-0.7,18.6-1.8l1.7,16.8c-8.9,1.6-16.3,1.8-21.9,1.8
		C6203.2,2498.9,6189.5,2486.1,6189.5,2462.8z M6235.1,2457.6c0-9.4-5-14.5-13.5-14.5c-8,0-13.1,5.2-14.3,14.5H6235.1z"/>
	<path class="st7" d="M6287.6,2487c0-6.6,5.3-11.9,11.9-11.9s11.9,5.3,11.9,11.9c0,6.5-5.3,11.9-11.9,11.9
		S6287.6,2493.6,6287.6,2487z"/>
	<path class="st7" d="M6346.6,2462.8c0-22.6,13-35.9,36.3-35.9c14.3,0,25,5.8,29.3,16l-12.8,10.2c-3.9-6-9.9-9.4-17-9.4
		c-10.7,0-17,6.6-17,18.4c0,13,8,20,22.4,20c6.3,0,12.6-0.7,18.5-1.7l1.8,16.6c-7.1,1.6-14.8,2-21.9,2
		C6360.9,2498.9,6346.6,2486.1,6346.6,2462.8z"/>
	<path class="st7" d="M6425.1,2462.9c0-22.9,11.5-36,31.5-36s31.5,13.1,31.5,36s-11.5,36-31.5,36S6425.1,2485.8,6425.1,2462.9z
		 M6469.3,2462.9c0-12.3-4.6-19.2-12.7-19.2c-8,0-12.7,6.9-12.7,19.2c0,12.2,4.6,19.2,12.7,19.2
		C6464.7,2482.1,6469.3,2475.2,6469.3,2462.9z"/>
	<path class="st7" d="M6550.7,2450.6c0-4.8-1.4-7.2-4.2-7.2c-3.1,0-4.7,2.6-4.7,7.8v46.4h-13.2v-48.3c0-3.9-1.4-5.9-4.2-5.9
		c-3.3,0-5,2.6-5,7.8v46.4H6502v-69.4h15.9l0.9,8.6h1.6c0.9-6.4,4.6-9.9,10.5-9.9c5.5,0,9.2,3.3,10.5,9.9h1.6
		c0.8-6.2,5-9.9,11.6-9.9c9.4,0,13.5,4.8,13.5,16.4v54.3h-17.4V2450.6z"/>
	<path class="st7" d="M6594.8,2404.7h25.2l-23,45.1h-13.2L6594.8,2404.7z M6623.5,2404.7h25.2l-23,45.1h-13.2L6623.5,2404.7z"/>
	<path class="st1" d="M6682.2,2481h19.5l-7.9,45.1H6677L6682.2,2481z"/>
	<path class="st7" d="M6839.5,2404.7h13.2l-11.3,45.1h-25.2L6839.5,2404.7z M6868.3,2404.7h13.2l-11.3,45.1H6845L6868.3,2404.7z"/>
	<path class="st7" d="M6897.1,2495.8l1.6-16.9c5.6,1.5,12.1,3.6,22.8,3.6c11.5,0,18.1-4.2,18.1-11.5c0-8-8.8-12.6-24.3-12.6h-2.1
		l-1.6-15c18.3-2.3,26-8,26-15.8c0-4.8-3.3-7.7-9.7-7.7c-7,0-15.9,2.8-23.4,8.3l-9-13.3c8.4-8,19.2-11.4,32.7-11.4
		c17.7,0,27.7,7.5,27.7,20.8c0,11.7-8.8,20.9-21.6,24.1v2.2c14.1,1.3,23.6,9.4,23.6,22.2c0,16.6-13,26.2-35.8,26.2
		C6912,2498.9,6903.6,2497.7,6897.1,2495.8z"/>
	<path class="st7" d="M6976.9,2482.3h22.4v-60.8l-21.1,7.6v-16.5l21.1-7.9h17.7v77.6h19.9v15.3h-59.9V2482.3z"/>
	<path class="st7" d="M7060.6,2409.9h17.6l-9,53.2h24.4v-58.4h17.2v58.4h9v15.8h-9v18.7h-17.2v-18.7h-44.5L7060.6,2409.9z"/>
	<path class="st7" d="M7132.6,2495.8l1.6-16.9c5.6,1.5,12.1,3.6,22.8,3.6c11.5,0,18.1-4.2,18.1-11.5c0-8-8.8-12.6-24.3-12.6h-2.1
		l-1.6-15c18.3-2.3,26-8,26-15.8c0-4.8-3.3-7.7-9.7-7.7c-7,0-15.9,2.8-23.4,8.3l-9-13.3c8.4-8,19.2-11.4,32.7-11.4
		c17.7,0,27.7,7.5,27.7,20.8c0,11.7-8.8,20.9-21.6,24.1v2.2c14.1,1.3,23.6,9.4,23.6,22.2c0,16.6-13,26.2-35.8,26.2
		C7147.5,2498.9,7139.1,2497.7,7132.6,2495.8z"/>
	<path class="st7" d="M7217.6,2409.9h17.6l-9,53.2h24.4v-58.4h17.2v58.4h9v15.8h-9v18.7h-17.2v-18.7h-44.5L7217.6,2409.9z"/>
	<path class="st7" d="M7288.5,2469.4h18.2c0,8.2,5,13,14.1,13c9,0,14.7-6,14.7-15.3c0-8.4-5.7-13.7-14.7-13.7
		c-5.4,0-10.3,1.2-15,3.7h-11.7l1.3-52.5h52.3v15.9h-35.9l-1.1,19.5c4.6-2,10.4-3.1,15.6-3.1c16.6,0,27.2,11.8,27.2,30.1
		c0,19.3-13.2,31.8-33.6,31.8C7300,2498.9,7288.5,2488.1,7288.5,2469.4z"/>
	<path class="st7" d="M7366.1,2463.2v-3.6c0-35.2,18.5-53.5,56.9-55.3l1.3,16.5c-26.8,1.1-39.8,12-39.8,33.1h1.7
		c2.4-9.7,9.7-15.2,20-15.2c16.2,0,25.4,10.7,25.4,29.6c0,19.4-11.6,30.6-32.1,30.6C7378.1,2498.9,7366.1,2486,7366.1,2463.2z
		 M7413.3,2468.3c0-8.4-5-13.2-14.1-13.2c-9.4,0-14.8,4.8-14.8,13.3c0,9.3,5.1,13.9,15.2,13.9
		C7408.3,2482.4,7413.3,2477.3,7413.3,2468.3z"/>
	<path class="st7" d="M7491,2420.6h-29.4v20h-17.3v-35.9h70.4l-29.8,92.9h-17.6L7491,2420.6z"/>
	<path class="st7" d="M7523,2472.1c0-12.6,7.9-20.9,21.9-23.6v-0.8c-12.4-2.6-19.3-9.8-19.3-20.8c0-14.9,11-23.6,30.2-23.6
		s30.2,8.6,30.2,23.6c0,10.9-6.9,18.3-19.2,20.8v0.9c14,2.7,21.8,10.9,21.8,23.5c0,17-11.9,26.8-32.8,26.8S7523,2489.1,7523,2472.1z
		 M7570.4,2469.5c0-8.1-5.3-12.8-14.6-12.8s-14.6,4.7-14.6,12.8c0,8.2,5.3,12.9,14.6,12.9S7570.4,2477.8,7570.4,2469.5z
		 M7567.8,2430.4c0-6.7-4.4-10.5-12-10.5s-12,3.8-12,10.5c0,6.3,4.4,10,12,10S7567.8,2436.7,7567.8,2430.4z"/>
	<path class="st7" d="M7608.8,2482.2c26.8-1,39.8-11.9,39.8-33h-1.7c-2.4,9.7-9.7,15.2-20,15.2c-16.2,0-25.4-10.8-25.4-29.6
		c0-19.4,11.6-30.6,32.1-30.6c21.3,0,33.3,13,33.3,35.7v3.1c0,35.5-18.5,53.9-56.9,55.7L7608.8,2482.2z M7648.8,2434.6
		c0-9.4-5.1-14-15.2-14c-8.8,0-13.8,5.2-13.8,14.2c0,8.4,5,13.1,14.2,13.1C7643.5,2447.9,7648.8,2443.1,7648.8,2434.6z"/>
	<path class="st7" d="M7694,2404.7h25.2l-23,45.1h-13.2L7694,2404.7z M7722.8,2404.7h25.2l-23,45.1h-13.2L7722.8,2404.7z"/>
	<path class="st1" d="M7765.5,2494.3h1.6c18.6,0,29.1-15.9,29.1-43.5c0-27.1-10.4-42.7-29.1-42.7h-1.6l-1.3-16.4h4.2
		c29.1,0,45.9,21.5,45.9,59.1c0,38.1-16.8,59.9-45.9,59.9h-4.2L7765.5,2494.3z"/>
	<path class="st1" d="M7860,2481h19.5l-7.9,45.1h-16.9L7860,2481z M7856.9,2439.9c0-7.2,5.8-13,13-13c7.2,0,13,5.8,13,13
		c0,7.1-5.8,13-13,13C7862.7,2452.9,7856.9,2447,7856.9,2439.9z"/>
</g>
</svg>
