<?xml version="1.0" encoding="utf-8"?>
<!-- Generator: Adobe Illustrator 22.0.0, SVG Export Plug-In . SVG Version: 6.00 Build 0)  -->
<svg version="1.1" id="Layer_1" xmlns="http://www.w3.org/2000/svg" xmlns:xlink="http://www.w3.org/1999/xlink" x="0px" y="0px"
	 viewBox="0 0 576 460" style="enable-background:new 0 0 576 460;" xml:space="preserve">
<style type="text/css">
	.st0{fill:url(#SVGID_1_);}
	.st1{fill:url(#SVGID_2_);}
	.st2{fill:url(#SVGID_3_);}
	.st3{fill:url(#SVGID_4_);}
	.st4{filter:url(#Adobe_OpacityMaskFilter);}
	.st5{mask:url(#SVGID_5_);fill:url(#SVGID_6_);}
	.st6{opacity:0.1;fill:url(#SVGID_7_);}
</style>
<g>
	
		<image style="overflow:visible;opacity:9.000000e-02;" width="558" height="435" xlink:href="E27BC24B.png"  transform="matrix(1 0 0 1 15 15.0049)">
	</image>
	<g>
		<g>
			<linearGradient id="SVGID_1_" gradientUnits="userSpaceOnUse" x1="108.8472" y1="434.0293" x2="108.8472" y2="173.3447">
				<stop  offset="0" style="stop-color:#B0B8CF"/>
				<stop  offset="0.2718" style="stop-color:#C8CCDB"/>
				<stop  offset="0.4385" style="stop-color:#C8CCDB"/>
				<stop  offset="1" style="stop-color:#D5DDE9"/>
			</linearGradient>
			<path class="st0" d="M183.4,434H94.2c-3.1,0-5.8-2.1-6.5-5.1L27.8,181.6c-1-4.2,2.2-8.3,6.5-8.3h89.2c3.1,0,5.8,2.1,6.5,5.1
				l59.9,247.3C190.9,430,187.7,434,183.4,434z"/>
			<linearGradient id="SVGID_2_" gradientUnits="userSpaceOnUse" x1="271.216" y1="434.0293" x2="271.216" y2="230.0678">
				<stop  offset="0" style="stop-color:#B0B8CF"/>
				<stop  offset="0.359" style="stop-color:#C8CCDB"/>
				<stop  offset="0.7051" style="stop-color:#C8CCDB"/>
				<stop  offset="1" style="stop-color:#9DA7C6"/>
			</linearGradient>
			<path class="st1" d="M349.5,434h-88.7c-2.8,0-5.3-1.8-6.3-4.4L186.7,239c-1.5-4.4,1.7-8.9,6.3-8.9h88.7c2.8,0,5.3,1.8,6.3,4.4
				l67.8,190.6C357.3,429.5,354.1,434,349.5,434z"/>
			<linearGradient id="SVGID_3_" gradientUnits="userSpaceOnUse" x1="188.2348" y1="434.0293" x2="188.2348" y2="230.0677">
				<stop  offset="0" style="stop-color:#2E6AEF"/>
				<stop  offset="1" style="stop-color:#2EAAE6"/>
			</linearGradient>
			<path class="st2" d="M282.9,230.1h-4.6h0H180c-2.8,0-5.3,1.7-6.2,4.3l-74,195.5c-1,2.5-3.4,4.1-6.1,4.1h4.6h0h98.3
				c2.8,0,5.3-1.7,6.2-4.3l74-195.6C277.8,231.7,280.2,230.1,282.9,230.1z"/>
			<linearGradient id="SVGID_4_" gradientUnits="userSpaceOnUse" x1="394.424" y1="434.0293" x2="394.424" y2="24.1268">
				<stop  offset="0" style="stop-color:#2E6AEF"/>
				<stop  offset="0.6923" style="stop-color:#2EAAE6"/>
			</linearGradient>
			<path class="st3" d="M525.6,30.7c-0.1-5.4-6.2-8.4-10.6-5.3L410.6,99.8c-4.1,2.9-3.6,9.2,0.9,11.4l16,8L266.6,430.7
				c-1.3,2-3.9,3.4-6.3,3.4h4.6h0h98.7c2.6,0,4.9-1.5,6-3.8l133.2-273.4l16.1,8.1c4.5,2.3,9.8-1.1,9.7-6.1L525.6,30.7z"/>
			<g>
				<defs>
					<filter id="Adobe_OpacityMaskFilter" filterUnits="userSpaceOnUse" x="263.1" y="88.1" width="297.2" height="345.9">
						<feFlood  style="flood-color:white;flood-opacity:1" result="back"/>
						<feBlend  in="SourceGraphic" in2="back" mode="normal"/>
					</filter>
				</defs>
				<mask maskUnits="userSpaceOnUse" x="263.1" y="88.1" width="297.2" height="345.9" id="SVGID_5_">
					<g class="st4">
						<path d="M515,25.4L410.6,99.8c-4.1,2.9-3.6,9.2,0.9,11.4l16,8l-54.2,104.9H470l32.7-67.2l16.1,8.1c4.5,2.3,9.8-1.1,9.7-6.1
							l-3-128.2C525.4,25.3,519.4,22.3,515,25.4z"/>
					</g>
				</mask>
				<linearGradient id="SVGID_6_" gradientUnits="userSpaceOnUse" x1="411.743" y1="434.0293" x2="411.743" y2="88.1283">
					<stop  offset="0" style="stop-color:#C8CCDB"/>
					<stop  offset="0.9872" style="stop-color:#D5DDE9"/>
				</linearGradient>
				<path class="st5" d="M553.7,434h-86.7c-2.2,0-4.3-1.1-5.6-3L264.3,136.4c-2.1-3.1-1.2-7.3,1.9-9.3l59-37.9
					c3.1-2,7.1-1.1,9.1,1.9l224.9,332.5C562.2,428,559,434,553.7,434z"/>
				<linearGradient id="SVGID_7_" gradientUnits="userSpaceOnUse" x1="413.6178" y1="224.0933" x2="413.6178" y2="267.9386">
					<stop  offset="0" style="stop-color:#032E3F"/>
					<stop  offset="0.9872" style="stop-color:#002838;stop-opacity:0"/>
				</linearGradient>
				<polygon class="st6" points="373.3,224.1 416.4,267.5 453.9,267.9 424.3,224.1 				"/>
			</g>
		</g>
	</g>
</g>
</svg>
